<svg width="60" height="60" viewBox="0 0 60 60" fill="none" xmlns="http://www.w3.org/2000/svg">
<path d="M26.1542 9.61318V13.4585C26.1542 13.9872 25.7216 14.4198 25.1929 14.4198H24.2316H8.85038H7.88906C7.36033 14.4198 6.92773 13.9872 6.92773 13.4585V9.61318C6.92773 9.08445 7.36033 8.65186 7.88906 8.65186H25.1929C25.7216 8.65186 26.1542 9.08445 26.1542 9.61318Z" fill="#AAB2BD"/>
<path d="M31.9225 32.7043V32.7139C30.4036 33.1561 29.077 33.781 28.0772 34.5981V26.9171C28.0772 25.3213 22.9149 24.0331 16.5413 24.0331C10.1678 24.0331 5.00545 25.3213 5.00545 26.9171V50.9502C5.00545 53.0747 6.72621 54.7955 8.85074 54.7955H24.2319C26.3564 54.7955 28.0772 53.0747 28.0772 50.9502V50.2677C28.2502 50.5464 28.4329 50.8156 28.6251 51.0848C29.3846 52.1422 30.2978 53.0843 31.3457 53.8726C30.1921 56.6701 27.4427 58.6408 24.2319 58.6408H8.85074C4.60169 58.6408 1.16016 55.1992 1.16016 50.9502V29.0801C1.16016 24.4177 4.33252 20.3609 8.85074 19.2265V14.4199H24.2319V19.2265C26.491 19.7937 28.4137 21.0915 29.7691 22.8315C30.9131 24.2831 31.6437 26.0423 31.8552 27.9457C31.9033 28.3206 31.9225 28.6956 31.9225 29.0801V32.7043Z" fill="#E6E9ED"/>
<path d="M28.0776 34.598V26.917C28.0776 28.5128 22.9153 29.801 16.5417 29.801C10.1682 29.801 5.00586 28.5128 5.00586 26.917V50.9501C5.00586 53.0746 6.72663 54.7954 8.85115 54.7954H24.2323C26.3568 54.7954 28.0776 53.0746 28.0776 50.9501V50.2675C26.8471 48.2584 26.155 45.9031 26.155 43.4325V38.4529C26.155 36.8571 26.876 35.5881 28.0776 34.598Z" fill="#69D6F4"/>
<path d="M16.5417 29.8011C22.9128 29.8011 28.0776 28.5099 28.0776 26.9172C28.0776 25.3244 22.9128 24.0332 16.5417 24.0332C10.1706 24.0332 5.00586 25.3244 5.00586 26.9172C5.00586 28.5099 10.1706 29.8011 16.5417 29.8011Z" fill="#4FC1E9"/>
<path d="M11.7346 39.4144C13.3273 39.4144 14.6185 38.1232 14.6185 36.5305C14.6185 34.9377 13.3273 33.6465 11.7346 33.6465C10.1418 33.6465 8.85059 34.9377 8.85059 36.5305C8.85059 38.1232 10.1418 39.4144 11.7346 39.4144Z" fill="#4FC1E9"/>
<path d="M24.2322 41.337C25.2941 41.337 26.1549 40.4762 26.1549 39.4143C26.1549 38.3525 25.2941 37.4917 24.2322 37.4917C23.1704 37.4917 22.3096 38.3525 22.3096 39.4143C22.3096 40.4762 23.1704 41.337 24.2322 41.337Z" fill="#4FC1E9"/>
<path d="M15.5799 47.1051C16.6417 47.1051 17.5025 46.2443 17.5025 45.1824C17.5025 44.1206 16.6417 43.2598 15.5799 43.2598C14.518 43.2598 13.6572 44.1206 13.6572 45.1824C13.6572 46.2443 14.518 47.1051 15.5799 47.1051Z" fill="#4FC1E9"/>
<path d="M45.3809 14.4199C45.3809 10.7092 46.8901 7.34461 49.3223 4.90285C51.764 2.4707 55.1287 0.961426 58.8394 0.961426C58.8394 8.39245 52.8119 14.4199 45.3809 14.4199Z" fill="#A0D468"/>
<path d="M49.8604 22.0912L51.1486 24.0331L50.0911 24.3888C48.8798 24.7925 47.6109 24.9944 46.342 24.9944C45.9286 24.9944 45.5248 24.9656 45.1307 24.9175C44.0444 24.7829 43.0062 24.4561 42.0448 23.9754C40.7278 23.3217 39.555 22.3604 38.6514 21.1491L41.5353 18.2651C42.439 19.4764 43.6118 20.4377 44.9288 21.0914C46.2458 21.7547 47.707 22.1104 49.2259 22.1104C49.4374 22.1104 49.6489 22.1008 49.8604 22.0816V22.0912Z" fill="#B4DD7F"/>
<path d="M56.9165 16.3426C55.4457 17.3135 53.7826 17.9384 52.0426 18.1595C51.5523 18.2364 51.0621 18.2652 50.5622 18.2652C48.4184 18.2652 46.3035 17.7653 44.3809 16.804L43.458 16.3426L45.3807 14.4199H50.5622C52.8309 14.4199 55.0323 15.0928 56.9165 16.3426Z" fill="#B4DD7F"/>
<path d="M49.2267 22.1107C47.7078 22.1107 46.2466 21.755 44.9296 21.0917C43.6126 20.438 42.4398 19.4767 41.5361 18.2654L43.4588 16.3428L44.3816 16.8042C46.3043 17.7655 48.4192 18.2654 50.563 18.2654C51.0628 18.2654 51.5531 18.2366 52.0434 18.1597V18.1693L54.0333 21.1494L52.9759 21.5051C51.9665 21.8415 50.9186 22.0338 49.8612 22.0819C49.6497 22.1011 49.4382 22.1107 49.2267 22.1107Z" fill="#B4DD7F"/>
<path d="M46.3421 27.8787H45.054C41.5644 27.8787 38.2286 26.4944 35.7676 24.0334L38.6515 21.1494C39.5552 22.3607 40.728 23.322 42.045 23.9757C43.0063 24.4564 44.0446 24.7832 45.1309 24.9178C45.6692 25.8311 46.0826 26.8308 46.3421 27.8787Z" fill="#B4DD7F"/>
<path d="M45.3814 9.23862V14.4201L43.4588 16.3428L42.9973 15.4199C42.036 13.4973 41.5361 11.3824 41.5361 9.23862C41.5361 8.73873 41.565 8.24846 41.6419 7.75818C41.863 6.01819 42.4878 4.3551 43.4588 2.88428C44.7085 4.76847 45.3814 6.9699 45.3814 9.23862Z" fill="#B4DD7F"/>
<path d="M42.9969 15.4198L43.4584 16.3426L41.5357 18.2653C40.3245 17.3616 39.3631 16.1888 38.7094 14.8718C38.0461 13.5548 37.6904 12.0936 37.6904 10.5747C37.6904 10.3632 37.7 10.1517 37.7193 9.94021C37.7673 8.88275 37.9596 7.83491 38.2961 6.82552L38.6518 5.76807L41.6319 7.758H41.6415C41.5646 8.24828 41.5357 8.73855 41.5357 9.23844C41.5357 11.3822 42.0356 13.4971 42.9969 15.4198Z" fill="#B4DD7F"/>
<path d="M37.6906 10.5745C37.6906 12.0934 38.0463 13.5546 38.7096 14.8716C39.3633 16.1886 40.3246 17.3614 41.5359 18.2651L38.6519 21.1491C37.4407 20.2454 36.4793 19.0726 35.8256 17.7556C35.345 16.7943 35.0181 15.756 34.8835 14.6697C34.8355 14.2756 34.8066 13.8718 34.8066 13.4585C34.8066 12.1895 35.0085 10.9206 35.4123 9.70931L35.768 8.65186L37.7098 9.94003H37.7194C37.7002 10.1515 37.6906 10.363 37.6906 10.5745Z" fill="#B4DD7F"/>
<path d="M38.6521 21.1491L35.7681 24.033C33.3072 21.5721 31.9229 18.2363 31.9229 14.7467V13.4585C32.9707 13.7181 33.9705 14.1314 34.8837 14.6698C35.0183 15.7561 35.3452 16.7943 35.8258 17.7556C36.4795 19.0726 37.4408 20.2454 38.6521 21.1491Z" fill="#B4DD7F"/>
<path d="M26.1543 43.4328V39.4144V38.4531C26.1543 42.433 30.6341 44.3556 35.7675 44.9613C37.0269 45.1151 38.3246 45.1824 39.6128 45.1824C40.901 45.1824 42.1988 45.1151 43.4581 44.9613C48.5916 44.3556 53.0713 42.433 53.0713 38.4531V43.4328C53.0713 47.8549 50.8507 51.8924 47.3034 54.2765V54.2861C46.3325 54.9398 45.2654 55.4782 44.1118 55.8627C42.4199 56.4202 40.8818 57.372 39.6128 58.6409C38.3439 57.372 36.8058 56.4202 35.1138 55.8627C33.9602 55.4782 32.8932 54.9398 31.9222 54.2861V54.2765C31.7204 54.1515 31.5281 54.0169 31.3454 53.8727C30.2976 53.0845 29.3843 52.1424 28.6249 51.0849C28.4326 50.8157 28.25 50.5466 28.0769 50.2678C26.8464 48.2586 26.1543 45.9034 26.1543 43.4328Z" fill="#B4DD7F"/>
<path d="M39.6128 31.7236C46.121 31.7236 53.0713 33.4925 53.0713 38.4529C53.0713 42.4328 48.5916 44.3554 43.4581 44.961C42.1988 45.1149 40.901 45.1821 39.6128 45.1821C38.3246 45.1821 37.0269 45.1149 35.7675 44.961C30.6341 44.3554 26.1543 42.4328 26.1543 38.4529C26.1543 36.8571 26.8753 35.5882 28.0769 34.598C29.0767 33.7809 30.4033 33.156 31.9222 32.7138C34.2294 32.0216 36.9596 31.7236 39.6128 31.7236Z" fill="#DFB28B"/>
<path d="M39.6132 41.3368C44.9225 41.3368 49.2265 40.0456 49.2265 38.4528C49.2265 36.86 44.9225 35.5688 39.6132 35.5688C34.304 35.5688 30 36.86 30 38.4528C30 40.0456 34.304 41.3368 39.6132 41.3368Z" fill="#E6E9ED"/>
<path d="M39.6136 42.298C44.7067 42.298 50.1882 41.0944 50.1882 38.4527C50.1882 35.811 44.7067 34.6074 39.6136 34.6074C34.5205 34.6074 29.0391 35.811 29.0391 38.4527C29.0391 41.0944 34.5205 42.298 39.6136 42.298ZM39.6136 36.5301C45.1883 36.5301 48.0694 37.9096 48.2626 38.4527C48.0694 38.9959 45.1883 40.3754 39.6136 40.3754C33.9889 40.3754 31.1059 38.9718 30.9598 38.4671C31.1059 37.9336 33.9889 36.5301 39.6136 36.5301Z" fill="black"/>
<path d="M38.6523 48.0659H40.575V53.8339H38.6523V48.0659Z" fill="black"/>
<path d="M11.7349 40.3756C13.8556 40.3756 15.5802 38.651 15.5802 36.5303C15.5802 34.4097 13.8556 32.6851 11.7349 32.6851C9.61426 32.6851 7.88965 34.4097 7.88965 36.5303C7.88965 38.651 9.61426 40.3756 11.7349 40.3756ZM11.7349 34.6077C12.7953 34.6077 13.6576 35.47 13.6576 36.5303C13.6576 37.5907 12.7953 38.453 11.7349 38.453C10.6746 38.453 9.81229 37.5907 9.81229 36.5303C9.81229 35.47 10.6746 34.6077 11.7349 34.6077Z" fill="black"/>
<path d="M12.6963 45.1823C12.6963 46.7723 13.9902 48.0663 15.5803 48.0663C17.1703 48.0663 18.4642 46.7723 18.4642 45.1823C18.4642 43.5923 17.1703 42.2983 15.5803 42.2983C13.9902 42.2983 12.6963 43.5923 12.6963 45.1823ZM16.5416 45.1823C16.5416 45.713 16.1109 46.1436 15.5803 46.1436C15.0496 46.1436 14.6189 45.713 14.6189 45.1823C14.6189 44.6517 15.0496 44.221 15.5803 44.221C16.1109 44.221 16.5416 44.6517 16.5416 45.1823Z" fill="black"/>
<path d="M59.8012 0.961323V0H58.8399C53.4094 0 48.6739 3.01952 46.2149 7.4666C45.9534 5.64393 45.291 3.90105 44.2586 2.3514L43.4587 1.1507L42.6589 2.35043C41.8764 3.52421 41.3131 4.81142 40.9689 6.15727L38.1378 4.26924L37.388 6.52354C37.1957 7.09937 37.0534 7.68674 36.9448 8.28084L35.2539 7.15416L34.504 9.40847C34.106 10.6015 33.8965 11.8387 33.8609 13.0923C33.3081 12.8635 32.739 12.6731 32.1565 12.528L30.9615 12.2271V14.7496C30.9615 18.1902 32.1988 21.4337 34.4415 24.0004L32.4429 25.999C31.4364 22.4978 28.7572 19.6542 25.1926 18.5026V15.3812C26.253 15.3812 27.1153 14.5189 27.1153 13.4585V9.61323C27.1153 8.55289 26.253 7.69058 25.1926 7.69058H7.8898C6.82946 7.69058 5.96715 8.55289 5.96715 9.61323V13.4585C5.96715 14.5189 6.82946 15.3812 7.8898 15.3812V18.5016C3.32544 19.9763 0.199219 24.2215 0.199219 29.0762V50.9501C0.199219 55.7212 4.08008 59.602 8.85112 59.602H24.2323C27.3556 59.602 30.1733 57.9418 31.7075 55.2943C32.6621 55.9 33.6984 56.4008 34.8068 56.77C36.3536 57.2843 37.7802 58.1668 38.9338 59.3194L39.6134 60L40.2931 59.3204C41.4467 58.1677 42.8733 57.2852 44.4201 56.77C50.1697 54.854 54.0333 49.4937 54.0333 43.4326V38.4529C54.0333 32.783 46.584 30.7623 39.6134 30.7623C37.3274 30.7623 34.9943 30.9854 32.8842 31.4776V29.0762C32.8842 28.8176 32.8707 28.5619 32.8534 28.3071L35.8018 25.3587C38.3676 27.6025 41.612 28.8387 45.0526 28.8387H47.5751L47.2752 27.6448C47.13 27.0622 46.9397 26.4931 46.7109 25.9403C47.9645 25.9048 49.2017 25.6952 50.3947 25.2982L52.649 24.5474L51.5223 22.8574C52.1155 22.7497 52.7028 22.6065 53.2787 22.4152L55.533 21.6644L53.6449 18.8333C54.9908 18.4891 56.277 17.9258 57.4518 17.1433L58.6505 16.3425L57.4508 15.5427C55.9002 14.5092 54.1583 13.8469 52.3356 13.5864C56.7817 11.1273 59.8012 6.39184 59.8012 0.961323ZM7.8898 9.61323H25.1936L25.1955 13.4585H7.8898V9.61323ZM52.1106 43.4326C52.1106 46.8722 50.6629 50.0436 48.2654 52.2873V48.0661H46.3427V53.762C45.5592 54.2446 44.7133 54.6454 43.8115 54.9454C42.2763 55.4568 40.8411 56.2749 39.6134 57.3295C38.3858 56.2739 36.9496 55.4568 35.4154 54.9463C34.5136 54.6454 33.6677 54.2446 32.8842 53.762V48.0661H30.9615V52.2873C28.564 50.0436 27.1163 46.8712 27.1163 43.4316V42.7298C28.887 44.3602 31.7056 45.3264 34.8068 45.7936V51.9114H36.7295V46.0205C37.687 46.1012 38.654 46.1435 39.6134 46.1435C40.5728 46.1435 41.5399 46.1012 42.4974 46.0205V51.9114H44.4201V45.7936C47.5213 45.3264 50.3399 44.3602 52.1106 42.7298V43.4326ZM5.96715 29.1319C8.5906 30.374 13.3328 30.7623 16.5417 30.7623C19.7506 30.7623 24.4928 30.374 27.1163 29.1319V34.175C26.3174 34.9104 25.7473 35.7881 25.4445 36.8062C25.0744 36.6341 24.6668 36.5303 24.2323 36.5303C22.6423 36.5303 21.3483 37.8242 21.3483 39.4142C21.3483 41.0043 22.6423 42.2982 24.2323 42.2982C24.5707 42.2982 24.8918 42.229 25.1936 42.1213V43.4326C25.1936 45.9907 25.8886 48.4199 27.1163 50.5223V50.9501C27.1163 52.5401 25.8223 53.8341 24.2323 53.8341H8.85112C7.2611 53.8341 5.96715 52.5401 5.96715 50.9501V29.1319ZM5.99696 26.917C6.53818 26.1922 10.3258 24.9944 16.5417 24.9944C22.7576 24.9944 26.5452 26.1922 27.0865 26.917C26.5452 27.6419 22.7576 28.8397 16.5417 28.8397C10.3258 28.8397 6.53818 27.6419 5.99696 26.917ZM25.1936 39.4142C25.1936 39.9449 24.7629 40.3756 24.2323 40.3756C23.7016 40.3756 23.271 39.9449 23.271 39.4142C23.271 38.8836 23.7016 38.4529 24.2323 38.4529C24.7629 38.4529 25.1936 38.8836 25.1936 39.4142ZM52.1106 38.4529C52.1106 42.7106 45.3785 44.2209 39.6134 44.2209C33.8484 44.2209 27.1163 42.7106 27.1163 38.4529C27.1163 34.1952 33.8484 32.685 39.6134 32.685C45.3785 32.685 52.1106 34.1952 52.1106 38.4529ZM29.0389 32.8551V26.917C29.0389 23.8821 21.183 23.0718 16.5417 23.0718C11.9004 23.0718 4.04451 23.8821 4.04451 26.917V50.9501C4.04451 53.6005 6.20076 55.7567 8.85112 55.7567H24.2323C26.2597 55.7567 27.9891 54.4907 28.6947 52.7103C29.1418 53.2188 29.6234 53.6976 30.1425 54.1388C28.9755 56.3056 26.7336 57.6794 24.2323 57.6794H8.85112C5.14138 57.6794 2.12186 54.6599 2.12186 50.9501V29.0762C2.12186 24.8502 4.98564 21.1847 9.08376 20.1589L9.81245 19.9763V15.3812H23.271V19.9763L23.9996 20.158C28.0978 21.1847 30.9615 24.8512 30.9615 29.0762V32.0246C30.2752 32.263 29.633 32.5408 29.0389 32.8551ZM43.4587 4.84603C44.0903 6.21591 44.4201 7.70789 44.4201 9.23351V14.0209L43.7356 14.7054C42.9329 13 42.4974 11.1187 42.4974 9.23351C42.4974 7.70789 42.8272 6.21591 43.4587 4.84603ZM39.1674 7.26664L40.6171 8.23373C40.5911 8.56539 40.5748 8.89897 40.5748 9.23351C40.5748 11.5166 41.115 13.8027 42.135 15.8455L42.2888 16.1531L41.4813 16.9606C39.7009 15.3331 38.6521 13.0057 38.6521 10.5746C38.6521 9.4498 38.8252 8.33852 39.1674 7.26664ZM36.2834 10.1506L36.7343 10.4515C36.7343 10.4919 36.7295 10.5332 36.7295 10.5746C36.7295 13.5162 37.983 16.3358 40.1191 18.3228L38.5973 19.8446C36.817 18.2161 35.7682 15.8897 35.7682 13.4585C35.7682 12.3338 35.9412 11.2225 36.2834 10.1506ZM32.8842 14.7688C33.2764 14.9197 33.6561 15.1033 34.0282 15.3023C34.4329 17.5557 35.5519 19.6408 37.2351 21.2068L35.8008 22.6411C33.9224 20.4454 32.888 17.6883 32.8842 14.7688ZM37.1602 24.0004L38.5944 22.5661C40.1604 24.2494 42.2456 25.3693 44.4989 25.7731C44.6979 26.1451 44.8815 26.5239 45.0324 26.917C42.1129 26.9132 39.3558 25.8788 37.1602 24.0004ZM49.6506 23.5178C48.5787 23.8591 47.4675 24.0331 46.3427 24.0331C43.9115 24.0331 41.5851 22.9843 39.9566 21.2039L41.4784 19.6821C43.4655 21.8182 46.285 23.0718 49.2267 23.0718C49.268 23.0718 49.3094 23.0669 49.3507 23.0669L49.6506 23.5178ZM52.5346 20.6338C51.4627 20.9751 50.3514 21.1491 49.2267 21.1491C46.7955 21.1491 44.4681 20.1003 42.8406 18.3199L43.6481 17.5124L43.9557 17.6662C45.9986 18.6862 48.2846 19.2265 50.5677 19.2265C50.9032 19.2265 51.2368 19.2101 51.5685 19.1832L52.5346 20.6338ZM45.093 16.0676L45.7794 15.3812H50.5668C52.0933 15.3812 53.5853 15.7109 54.9542 16.3425C51.8943 17.7537 48.1836 17.5201 45.093 16.0676ZM47.9885 13.173L55.6743 5.48723L54.315 4.12792L46.6292 11.8137C47.7655 6.48893 52.2923 2.40427 57.8392 1.96302C57.397 7.50985 53.3133 12.0358 47.9885 13.173Z" fill="black"/>
</svg>
