<svg width="60" height="60" viewBox="0 0 60 60" fill="none" xmlns="http://www.w3.org/2000/svg">
<path d="M50.625 5.625V15H45H9.375V5.625C9.375 3.55312 7.69688 1.875 5.625 1.875H46.875C48.9469 1.875 50.625 3.55312 50.625 5.625Z" fill="#FCD770"/>
<path d="M9.375 15V5.625C9.375 3.55312 7.69688 1.875 5.625 1.875C4.59375 1.875 3.65625 2.29688 2.97188 2.97188C2.29688 3.65625 1.875 4.59375 1.875 5.625V58.125H45V51.5625L43.125 52.5V37.4437L43.1813 37.2937C42.7969 37.1625 42.4313 36.9469 42.1219 36.6281C41.0625 35.5781 41.0344 33.9 42 32.7937C40.5375 32.7 39.375 31.4906 39.375 30C39.375 29.25 39.6656 28.575 40.1437 28.0781C40.6125 27.5813 41.2687 27.2531 42 27.2063C41.0344 26.1 41.0625 24.4219 42.1219 23.3719C42.8812 22.6031 43.9781 22.3781 44.9437 22.6875L45 22.5V15H9.375Z" fill="#E6E9ED"/>
<path d="M7.5 43.125H37.5C38.5312 43.125 39.375 43.9688 39.375 45V52.5C39.375 53.5312 38.5312 54.375 37.5 54.375H7.5C6.46875 54.375 5.625 53.5312 5.625 52.5V45C5.625 43.9688 6.46875 43.125 7.5 43.125Z" fill="#FCD770"/>
<path d="M51.5437 36.75C52.3219 37.4344 53.3906 37.6219 54.3187 37.2937L54.375 37.4437V52.5L48.75 49.6875L45 51.5625L43.125 52.5V37.4437L43.1813 37.2937C44.1094 37.6219 45.1781 37.4344 45.9563 36.75C46.05 38.2125 47.2594 39.375 48.75 39.375C50.2406 39.375 51.45 38.2125 51.5437 36.75Z" fill="#FF826E"/>
<path d="M45.9563 23.25C46.05 21.7875 47.2594 20.625 48.75 20.625C50.2406 20.625 51.45 21.7875 51.5437 23.25C52.65 22.2844 54.3281 22.3125 55.3781 23.3719C56.4375 24.4219 56.4656 26.1 55.5 27.2063C56.9625 27.3 58.125 28.5094 58.125 30C58.125 31.4906 56.9625 32.7 55.5 32.7937C56.4656 33.9 56.4375 35.5781 55.3781 36.6281C55.0687 36.9469 54.7031 37.1625 54.3187 37.2937C53.3906 37.6219 52.3219 37.4344 51.5437 36.75C51.45 38.2125 50.2406 39.375 48.75 39.375C47.2594 39.375 46.05 38.2125 45.9563 36.75C45.1781 37.4344 44.1094 37.6219 43.1813 37.2937C42.7969 37.1625 42.4313 36.9469 42.1219 36.6281C41.0625 35.5781 41.0344 33.9 42 32.7937C40.5375 32.7 39.375 31.4906 39.375 30C39.375 29.25 39.6656 28.575 40.1437 28.0781C40.6125 27.5813 41.2687 27.2531 42 27.2063C41.0344 26.1 41.0625 24.4219 42.1219 23.3719C42.8813 22.6031 43.9781 22.3781 44.9437 22.6875C45.3094 22.7906 45.6563 22.9875 45.9563 23.25Z" fill="#FCD770"/>
<path d="M48.75 24.375C51.8531 24.375 54.375 26.8969 54.375 30C54.375 33.1031 51.8531 35.625 48.75 35.625C45.6469 35.625 43.125 33.1031 43.125 30C43.125 26.8969 45.6469 24.375 48.75 24.375Z" fill="#FF826E"/>
<path d="M48.75 31.875C49.7855 31.875 50.625 31.0355 50.625 30C50.625 28.9645 49.7855 28.125 48.75 28.125C47.7145 28.125 46.875 28.9645 46.875 30C46.875 31.0355 47.7145 31.875 48.75 31.875Z" fill="#FF826E"/>
<path d="M59.0625 30C59.0625 28.5187 58.185 27.2222 56.91 26.6203C57.3862 25.2928 57.0891 23.7553 56.0419 22.7081C54.9938 21.66 53.4562 21.3638 52.1306 21.84C51.5278 20.565 50.2313 19.6875 48.75 19.6875C47.6353 19.6875 46.6256 20.1844 45.9375 20.9737V15.9375H51.5625V5.625C51.5625 3.04031 49.4597 0.9375 46.875 0.9375H5.625C3.04031 0.9375 0.9375 3.04031 0.9375 5.625V59.0625H45.9375V52.1419L48.75 50.7356L55.3125 54.0169V37.8497C55.5722 37.695 55.8197 37.5141 56.0419 37.2928C57.0891 36.2456 57.3862 34.7081 56.91 33.3806C58.185 32.7778 59.0625 31.4813 59.0625 30ZM52.1625 23.9597C52.9022 23.31 54.0244 23.3428 54.7162 24.0338C55.4081 24.7256 55.4409 25.8478 54.7913 26.5875L54.5269 26.8894C53.9175 25.7625 52.9884 24.8334 51.8616 24.2241L52.1625 23.9597ZM54.7903 33.4125C55.44 34.1531 55.4072 35.2753 54.7153 35.9672C54.0244 36.6572 52.9022 36.6909 52.1616 36.0413L51.8606 35.7769C52.9875 35.1675 53.9166 34.2384 54.5259 33.1116L54.7903 33.4125ZM45.3375 23.9597L45.6394 24.2241C44.5125 24.8334 43.5834 25.7625 42.9741 26.8894L42.7097 26.5875C42.06 25.8469 42.0928 24.7256 42.7847 24.0338C43.4756 23.3419 44.5969 23.3091 45.3375 23.9597ZM48.75 25.3125C51.3347 25.3125 53.4375 27.4153 53.4375 30C53.4375 32.5847 51.3347 34.6875 48.75 34.6875C46.1653 34.6875 44.0625 32.5847 44.0625 30C44.0625 27.4153 46.1653 25.3125 48.75 25.3125ZM42.4659 28.1156C42.2869 28.7128 42.1875 29.3447 42.1875 30C42.1875 30.6553 42.2869 31.2872 42.4669 31.8844L42.0666 31.8581C41.0822 31.7944 40.3125 30.9778 40.3125 30C40.3125 29.0222 41.0822 28.2056 42.0656 28.1419L42.4659 28.1156ZM42.7838 35.9662C42.0928 35.2753 42.06 34.1522 42.7087 33.4116L42.9731 33.1106C43.5825 34.2375 44.5116 35.1666 45.6384 35.7759L45.3375 36.0403C44.5978 36.6919 43.4766 36.66 42.7838 35.9662ZM48.75 36.5625C49.4053 36.5625 50.0372 36.4631 50.6344 36.2841L50.6081 36.6844C50.5444 37.6678 49.7278 38.4375 48.75 38.4375C47.7722 38.4375 46.9556 37.6678 46.8919 36.6844L46.8656 36.2841C47.4628 36.4631 48.0947 36.5625 48.75 36.5625ZM48.75 21.5625C49.7278 21.5625 50.5444 22.3322 50.6081 23.3156L50.6344 23.7159C50.0372 23.5369 49.4053 23.4375 48.75 23.4375C48.0947 23.4375 47.4628 23.5369 46.8656 23.7159L46.8919 23.3156C46.9556 22.3322 47.7722 21.5625 48.75 21.5625ZM46.875 2.8125C48.4256 2.8125 49.6875 4.07437 49.6875 5.625V14.0625H10.3125V5.625C10.3125 4.57031 9.96187 3.59625 9.37313 2.8125H46.875ZM44.0625 57.1875H2.8125V5.625C2.8125 4.07437 4.07437 2.8125 5.625 2.8125C7.17562 2.8125 8.4375 4.07437 8.4375 5.625V15.9375H44.0625V21.6281C43.1147 21.6375 42.1725 21.9937 41.4581 22.7081C40.41 23.7553 40.1138 25.2928 40.59 26.6203C39.315 27.2222 38.4375 28.5187 38.4375 30C38.4375 31.4813 39.315 32.7778 40.59 33.3797C40.1138 34.7072 40.4109 36.2447 41.4581 37.2919C41.6803 37.5141 41.9278 37.695 42.1875 37.8497V54.0169L44.0625 53.0794V57.1875ZM53.4375 50.9831L49.6875 49.1081V42.1875H47.8125V49.1081L44.0625 50.9831V38.3719C44.5041 38.3756 44.9475 38.3119 45.3703 38.16C45.9722 39.435 47.2687 40.3125 48.75 40.3125C50.2313 40.3125 51.5278 39.435 52.1297 38.16C52.5516 38.3119 52.995 38.3756 53.4375 38.3719V50.9831ZM55.4344 31.8581L55.0341 31.8844C55.2131 31.2872 55.3125 30.6553 55.3125 30C55.3125 29.3447 55.2131 28.7128 55.0341 28.1156L55.4344 28.1419C56.4178 28.2056 57.1875 29.0222 57.1875 30C57.1875 30.9778 56.4178 31.7944 55.4344 31.8581Z" fill="black"/>
<path d="M48.75 32.8125C50.3006 32.8125 51.5625 31.5506 51.5625 30C51.5625 28.4494 50.3006 27.1875 48.75 27.1875C47.1994 27.1875 45.9375 28.4494 45.9375 30C45.9375 31.5506 47.1994 32.8125 48.75 32.8125ZM48.75 29.0625C49.2666 29.0625 49.6875 29.4834 49.6875 30C49.6875 30.5166 49.2666 30.9375 48.75 30.9375C48.2334 30.9375 47.8125 30.5166 47.8125 30C47.8125 29.4834 48.2334 29.0625 48.75 29.0625Z" fill="black"/>
<path d="M6.5625 17.8125H4.6875V19.6875H6.5625V17.8125Z" fill="black"/>
<path d="M42.1875 17.8125H8.4375V19.6875H42.1875V17.8125Z" fill="black"/>
<path d="M38.4375 21.5625H4.6875V23.4375H38.4375V21.5625Z" fill="black"/>
<path d="M38.4375 25.3125H4.6875V27.1875H38.4375V25.3125Z" fill="black"/>
<path d="M37.5 42.1875H7.5C5.94937 42.1875 4.6875 43.4494 4.6875 45V52.5C4.6875 54.0506 5.94937 55.3125 7.5 55.3125H37.5C39.0506 55.3125 40.3125 54.0506 40.3125 52.5V45C40.3125 43.4494 39.0506 42.1875 37.5 42.1875ZM38.4375 52.5C38.4375 53.0175 38.0166 53.4375 37.5 53.4375H7.5C6.98344 53.4375 6.5625 53.0175 6.5625 52.5V45C6.5625 44.4825 6.98344 44.0625 7.5 44.0625H37.5C38.0166 44.0625 38.4375 44.4825 38.4375 45V52.5Z" fill="black"/>
<path d="M12.1875 45.9375H10.3125V47.8125H12.1875V45.9375Z" fill="black"/>
<path d="M12.1875 49.6875H10.3125V51.5625H12.1875V49.6875Z" fill="black"/>
<path d="M14.0625 47.8125H12.1875V49.6875H14.0625V47.8125Z" fill="black"/>
<path d="M10.3125 47.8125H8.4375V49.6875H10.3125V47.8125Z" fill="black"/>
<path d="M19.6875 45.9375H17.8125V47.8125H19.6875V45.9375Z" fill="black"/>
<path d="M19.6875 49.6875H17.8125V51.5625H19.6875V49.6875Z" fill="black"/>
<path d="M21.5625 47.8125H19.6875V49.6875H21.5625V47.8125Z" fill="black"/>
<path d="M17.8125 47.8125H15.9375V49.6875H17.8125V47.8125Z" fill="black"/>
<path d="M27.1875 45.9375H25.3125V47.8125H27.1875V45.9375Z" fill="black"/>
<path d="M27.1875 49.6875H25.3125V51.5625H27.1875V49.6875Z" fill="black"/>
<path d="M29.0625 47.8125H27.1875V49.6875H29.0625V47.8125Z" fill="black"/>
<path d="M25.3125 47.8125H23.4375V49.6875H25.3125V47.8125Z" fill="black"/>
<path d="M34.6875 45.9375H32.8125V47.8125H34.6875V45.9375Z" fill="black"/>
<path d="M34.6875 49.6875H32.8125V51.5625H34.6875V49.6875Z" fill="black"/>
<path d="M36.5625 47.8125H34.6875V49.6875H36.5625V47.8125Z" fill="black"/>
<path d="M32.8125 47.8125H30.9375V49.6875H32.8125V47.8125Z" fill="black"/>
<path d="M36.5625 29.0625H4.6875V30.9375H36.5625V29.0625Z" fill="black"/>
<path d="M36.5625 32.8125H8.4375V34.6875H36.5625V32.8125Z" fill="black"/>
<path d="M6.5625 32.8125H4.6875V34.6875H6.5625V32.8125Z" fill="black"/>
<path d="M32.8125 36.5625H4.6875V38.4375H32.8125V36.5625Z" fill="black"/>
<path d="M36.5625 36.5625H34.6875V38.4375H36.5625V36.5625Z" fill="black"/>
</svg>
