<svg xmlns="http://www.w3.org/2000/svg" width="40" height="40" viewBox="0 0 40 40" fill="none">
  <path d="M20 36.6667C19.0833 36.6667 18.3333 36.3333 17.75 35.6667C17.1667 35 16.8333 34.1667 16.8333 33.1667V23.3333C13.9167 23.3333 11.4583 22.375 9.45833 20.4583C7.45833 18.5417 6.45833 16.1667 6.45833 13.3333C6.45833 10.5 7.45833 8.08333 9.45833 6.08333C11.4583 4.08333 13.9167 3.08333 16.8333 3.08333H23.3333C26.1667 3.08333 28.5417 4.08333 30.4583 6.08333C32.375 8.08333 33.3333 10.5 33.3333 13.3333C33.3333 16.1667 32.375 18.5417 30.4583 20.4583C28.5417 22.375 26.1667 23.3333 23.3333 23.3333V33.1667C23.3333 34.1667 23 35 22.3333 35.6667C21.6667 36.3333 20.9167 36.6667 20 36.6667ZM20 20C21.8333 20 23.4583 19.3333 24.875 18C26.2917 16.6667 27 15.0833 27 13.25C27 11.4167 26.2917 9.83333 24.875 8.5C23.4583 7.16667 21.8333 6.5 20 6.5C18.1667 6.5 16.5417 7.16667 15.125 8.5C13.7083 9.83333 13 11.4167 13 13.25C13 15.0833 13.7083 16.6667 15.125 18C16.5417 19.3333 18.1667 20 20 20Z" fill="#65582C"/>
  <path d="M16.6667 16.6667C17.5833 16.6667 18.3333 16.3333 18.9167 15.6667C19.5 15 19.8333 14.1667 19.8333 13.1667V11.6667H18.3333C17.4167 11.6667 16.6667 12 16.0833 12.6667C15.5 13.3333 15.1667 14.1667 15.1667 15.1667C15.1667 15.5833 15.2917 15.9583 15.5417 16.2917C15.7917 16.625 16.1667 16.7917 16.6667 16.6667Z" fill="#65582C"/>
</svg> 