<svg width="50" height="51" viewBox="0 0 50 51" fill="none" xmlns="http://www.w3.org/2000/svg">
<path d="M46.3972 49.3239H37.7157C37.9076 49.0831 38.0646 48.8078 38.1742 48.5015C38.6986 47.0351 37.9415 45.411 36.486 44.8715L39.4353 44.1196C39.72 44.0469 39.8919 43.7573 39.8192 43.4727C39.7467 43.188 39.4569 43.0164 39.1724 43.0886L14.9341 49.2687C14.0429 49.4959 13.1365 49.0121 12.8257 48.1433C12.4957 47.2206 12.9742 46.1985 13.8923 45.8648L36.6127 37.6053L39.314 40.1626C40.2793 41.0762 41.8373 41.0852 42.8133 40.1842C43.8335 39.2419 43.922 37.6801 43.0146 36.6286L37.8103 30.5973L37.2893 25.7871C36.9689 22.8281 35.1958 20.2647 32.5453 18.9262C32.5436 18.9252 32.5421 18.924 32.5404 18.9231L28.305 16.6784V16.4846C29.4693 15.6085 30.2722 14.2766 30.4408 12.7546C32.9512 10.2006 33.3002 6.4916 31.1791 3.58851C29.7617 1.6483 27.3554 0.483407 24.5772 0.39245C22.9016 0.337982 20.9384 0.859258 20.6958 2.82C18.902 3.11117 17.7424 4.75171 17.4085 7.50171C17.1899 9.30075 17.9844 11.8631 19.6791 12.8157C19.8551 14.2527 20.5967 15.516 21.6723 16.3794V16.7314C21.6723 16.7314 17.4524 18.9881 17.4414 18.995C14.7975 20.3353 13.03 22.8933 12.7099 25.849L12.189 30.6594L6.98454 36.6906C6.0772 37.7421 6.16571 39.3039 7.18603 40.2462C8.16188 41.1473 9.71986 41.1383 10.6852 40.2245L13.4336 37.6227L23.4422 41.2611L15.2866 44.2259L10.8257 43.0885C10.5405 43.0159 10.2515 43.1878 10.1789 43.4726C10.1062 43.7572 10.2783 44.0468 10.5628 44.1195L13.5121 44.8714C12.0567 45.411 11.2995 47.035 11.8239 48.5014C11.9335 48.8078 12.0904 49.083 12.2823 49.3238H0.531671C0.237841 49.3238 -0.000244141 49.562 -0.000244141 49.8557C-0.000244141 50.1495 0.237841 50.3877 0.531671 50.3877H46.3972C46.691 50.3877 46.9291 50.1495 46.9291 49.8557C46.9291 49.562 46.6909 49.3239 46.3972 49.3239ZM32.8228 20.314C34.7276 21.5639 35.9817 23.5956 36.2315 25.9015L36.7702 30.8765C36.7818 30.9838 36.8257 31.085 36.8964 31.1668L42.209 37.3236C42.7394 37.9384 42.6877 38.8516 42.0914 39.4026C41.5143 39.9353 40.6157 39.9299 40.0453 39.3899L34.815 34.4385C34.0104 33.6799 33.3418 32.7988 32.8228 31.8203V20.314ZM32.8228 33.8016C33.6596 34.9146 34.7414 35.8337 35.7487 36.7873L32.8228 37.851V33.8016ZM17.1542 37.8434L14.2974 36.8049C15.2833 35.8717 16.3386 34.9719 17.1602 33.8847L17.1542 37.8434ZM17.1648 31.9044C16.6475 32.8738 15.9826 33.7475 15.1834 34.5013L9.95359 39.452C9.38316 39.9919 8.48454 39.9973 7.90773 39.4647C7.31114 38.9137 7.25933 38.0005 7.78986 37.3857L13.1025 31.2289C13.1731 31.1472 13.217 31.046 13.2287 30.9387L13.7674 25.9637C14.0179 23.6505 15.2776 21.6152 17.1911 20.3663L17.1648 31.9044ZM19.9672 5.08862C19.7675 5.17053 19.6371 5.3649 19.6371 5.58075V11.3746C18.795 10.3511 18.3031 8.95809 18.4645 7.63011C18.6711 5.92788 19.3163 3.88809 21.2157 3.83809C21.5066 3.83043 21.7373 3.59043 21.7336 3.29947C21.7128 1.71564 23.2609 1.41319 24.5423 1.45596C26.9911 1.53607 29.0969 2.54213 30.3199 4.21617C32.4489 7.13022 31.4036 9.67245 30.4745 11.0396V8.60766C30.4272 8.23426 30.2157 8.06032 29.8401 8.08575C29.7858 8.09617 24.3822 9.09617 20.5477 5.20745C20.3962 5.05362 20.167 5.0067 19.9672 5.08862ZM20.701 12.1538V6.78064C24.0129 9.4633 27.9019 9.37788 29.4108 9.21905V12.1537C29.4108 14.555 27.4572 16.5086 25.0558 16.5086C22.6544 16.5086 20.701 14.5551 20.701 12.1538ZM27.3699 22.4348C25.3875 24.9484 21.2991 22.8566 22.0308 19.804L22.6958 17.0296C24.1238 17.724 25.85 17.7455 27.2948 17.0869L27.9461 19.8039C28.1681 20.7301 27.9581 21.689 27.3699 22.4348ZM18.2564 19.7627L21.342 18.114L20.9963 19.5561C20.3879 22.0947 22.3791 24.657 24.9885 24.657C27.6002 24.657 29.5888 22.0935 28.9806 19.5561L28.6193 18.0492L31.7589 19.7131V35.947H18.2193L18.2564 19.7627ZM18.2181 38.2301V37.0106H31.759V38.2377L24.9989 40.6951L18.2181 38.2301ZM34.6566 45.3379L36.1057 45.8647C37.0238 46.1984 37.5024 47.2206 37.1724 48.1432C36.8616 49.012 35.9553 49.4961 35.0639 49.2686L27.152 47.2513L34.6566 45.3379ZM24.999 47.8003L30.9746 49.3239H19.0233L24.999 47.8003Z" fill="#545418"/>
<path d="M48.9891 50.3342C49.371 50.3342 49.6806 50.0246 49.6806 49.6427C49.6806 49.2608 49.371 48.9512 48.9891 48.9512C48.6072 48.9512 48.2976 49.2608 48.2976 49.6427C48.2976 50.0246 48.6072 50.3342 48.9891 50.3342Z" fill="#545418"/>
<path d="M15.8015 11.9451C15.6857 11.841 15.5597 11.7891 15.4232 11.7893C15.3582 11.7895 14.6411 11.7976 13.6695 11.9953C13.8818 10.0584 13.4599 8.44022 13.4393 8.36341C13.3261 8.05799 13.109 7.93246 12.7878 7.98703C12.7145 8.00671 11.8526 8.2448 10.7852 8.80139C10.0193 6.60075 8.49763 5.05863 8.42721 4.98799C8.21955 4.78012 7.88252 4.78001 7.67476 4.98788C7.60263 5.06001 6.0504 6.63448 5.32848 8.88682C4.18763 8.2681 3.24295 8.00682 3.16955 7.98703C2.84827 7.93235 2.63104 8.05778 2.51774 8.36341C2.49721 8.44033 2.07497 10.0583 2.28721 11.9953C1.31572 11.7977 0.598908 11.7897 0.533802 11.7894C0.263695 11.7894 -0.00130478 12.0582 -0.000240948 12.3235C0.00039735 12.4687 0.0399719 15.9054 2.27082 18.101C5.24923 21.0324 10.7083 21.0319 13.6862 18.101C15.917 15.9055 15.9567 12.4688 15.9573 12.3235C15.9578 12.1815 15.9018 12.0453 15.8015 11.9451ZM8.0521 6.16512C8.5438 6.75756 9.39253 7.92161 9.84604 9.35075C9.20082 9.77331 8.54221 10.3072 7.97646 10.9721C7.45689 10.3625 6.85965 9.86235 6.26657 9.45767C6.68316 7.98097 7.55231 6.77256 8.0521 6.16512ZM3.43306 9.19405C4.32976 9.52597 6.14444 10.3447 7.33221 11.8629C6.91455 12.5509 6.63114 13.3089 6.46242 14.0948C5.62582 13.2436 4.52859 12.6493 3.39923 12.2854C3.1988 11.032 3.32295 9.85639 3.43306 9.19405ZM3.01689 17.3426C1.60348 15.9515 1.21242 13.8854 1.10444 12.8925C2.11274 12.9975 4.22529 13.3811 5.64572 14.7791C7.05955 16.1706 7.4505 18.2377 7.55827 19.2303C6.55199 19.127 4.44295 18.746 3.01689 17.3426ZM7.97976 16.4832C7.81646 16.0725 7.61338 15.6545 7.36284 15.2485C7.46146 14.1946 7.74018 13.265 8.1971 12.4863C9.32104 10.5702 11.51 9.57161 12.524 9.1949C12.6342 9.85767 12.7582 11.0328 12.5577 12.2855C10.4355 12.9692 8.80912 14.3919 7.97976 16.4832ZM12.9401 17.3426C11.6122 18.6495 9.67444 19.0693 8.62742 19.2034C8.60657 18.9868 8.57338 18.721 8.52082 18.4199C9.16423 15.1247 11.5859 13.2326 14.8525 12.8924C14.7444 13.8858 14.3533 15.9516 12.9401 17.3426Z" fill="#545418"/>
<path d="M49.8444 11.945C49.7287 11.8409 49.6026 11.7889 49.4661 11.7892C49.4011 11.7894 48.6841 11.7975 47.7125 11.9952C47.9247 10.0583 47.5028 8.44012 47.4823 8.36331C47.3691 8.05788 47.152 7.93235 46.8308 7.98692C46.7575 8.00661 45.8956 8.24469 44.8282 8.80129C44.0623 6.60075 42.5406 5.05852 42.4702 4.98799C42.2625 4.78012 41.9255 4.78001 41.7177 4.98788C41.6456 5.06001 40.0934 6.63448 39.3715 8.88682C38.2306 8.2681 37.2859 8.00682 37.2125 7.98703C36.8912 7.93235 36.674 8.05778 36.5607 8.36341C36.5402 8.44033 36.1179 10.0583 36.3302 11.9953C35.3587 11.7977 34.6419 11.7897 34.5768 11.7894C34.3067 11.7894 34.0416 12.0582 34.0427 12.3235C34.0434 12.4687 34.0829 15.9054 36.3138 18.101C39.2922 21.0324 44.7512 21.0319 47.7292 18.101C49.96 15.9055 49.9996 12.4688 50.0003 12.3235C50.0008 12.1814 49.9448 12.0452 49.8444 11.945ZM42.0951 6.16501C42.5868 6.75746 43.4355 7.9215 43.889 9.35065C43.2438 9.7732 42.5852 10.3071 42.0194 10.972C41.4999 10.3623 40.9026 9.86224 40.3095 9.45756C40.7261 7.98086 41.5953 6.77246 42.0951 6.16501ZM37.476 9.19395C38.3727 9.52586 40.1874 10.3446 41.3752 11.8628C40.9575 12.5508 40.6741 13.3088 40.5054 14.0947C39.6688 13.2435 38.5716 12.6492 37.4422 12.2853C37.2418 11.0319 37.3659 9.85629 37.476 9.19395ZM37.0599 17.3425C35.6465 15.9514 35.2554 13.8853 35.1474 12.8924C36.1557 12.9974 38.2683 13.381 39.6887 14.7789C41.1025 16.1705 41.4935 18.2376 41.6012 19.2302C40.595 19.1269 38.4859 18.7459 37.0599 17.3425ZM42.0227 16.4831C41.8594 16.0724 41.6563 15.6544 41.4058 15.2484C41.5044 14.1945 41.7832 13.2649 42.2401 12.4862C43.364 10.5701 45.5529 9.5715 46.567 9.1948C46.6772 9.85756 46.8011 11.0327 46.6007 12.2854C44.4785 12.9691 42.852 14.3918 42.0227 16.4831ZM46.983 17.3425C45.6552 18.6494 43.7174 19.0692 42.6704 19.2033C42.6495 18.9867 42.6163 18.7209 42.5638 18.4198C43.2072 15.1246 45.6289 13.2325 48.8955 12.8922C48.7874 13.8856 48.3962 15.9515 46.983 17.3425Z" fill="#545418"/>
</svg>
