<svg width="82" height="47" viewBox="0 0 82 47" fill="none" xmlns="http://www.w3.org/2000/svg">
<path d="M56.6493 24.8045C55.8655 26.7176 54.4902 28.3572 52.713 29.6656C51.2096 30.7724 49.5952 31.6798 47.8348 32.3251C46.5917 32.7806 45.3624 33.2745 44.1313 33.7618C43.2595 34.1066 42.4742 34.6012 41.7429 35.1852C41.6316 35.2739 41.556 35.3804 41.4788 35.4991C40.6418 36.7852 39.9646 38.166 39.1378 39.4573C38.7871 40.0047 38.3853 40.5191 38.0082 41.0492C37.8713 41.2417 37.6951 41.3912 37.5039 41.5263C37.3161 41.6586 37.1051 41.6765 36.9052 41.5942C36.5229 41.4367 36.2511 41.1503 36.0962 40.7692C35.982 40.4881 36.0353 40.2139 36.239 39.988C36.4567 39.7465 36.6852 39.5142 36.9194 39.2882C37.4039 38.82 37.9072 38.3707 38.3805 37.8915C39.0536 37.2103 39.584 36.4194 40.0935 35.611C40.3198 35.2515 40.316 34.9338 40.1483 34.5662C39.7697 33.7357 39.2999 32.9615 38.7314 32.2506C38.2234 31.6152 37.7087 30.9837 37.1659 30.3784C35.2881 28.2847 34.3561 25.803 34.1448 23.032C33.9977 21.1025 34.301 19.2383 34.9911 17.4241C35.6297 15.7452 36.4288 14.1453 37.2339 12.5449C37.8922 11.2355 38.5773 9.93921 39.168 8.59624C39.9569 6.80184 40.5392 4.9386 41.0474 3.04995C41.2164 2.42136 41.3717 1.78913 41.5345 1.15899C41.552 1.0916 41.5737 1.02491 41.5989 0.960075C41.856 0.295955 42.1971 0.230296 42.7992 0.548768C43.1283 0.722684 43.392 0.996113 43.6422 1.27089C44.9917 2.75304 46.5716 3.97483 48.1149 5.23706C48.6708 5.69154 49.2884 6.07048 49.8422 6.52711C50.8437 7.35239 51.8648 8.15379 52.8051 9.05412C53.8815 10.0856 54.871 11.1801 55.6957 12.4288C56.5688 13.7507 57.15 15.1813 57.4372 16.7327C57.7439 18.389 57.8234 20.053 57.5732 21.7275C57.4195 22.7458 57.1476 23.7267 56.6493 24.8045Z" fill="#545418"/>
<path d="M45.0767 12.7415C45.0747 11.7846 44.9368 10.8399 44.7986 9.89768C44.5518 8.21649 44.2118 6.55264 43.7452 4.91748C43.6432 4.56017 43.5059 4.21304 43.3864 3.86073C43.3447 3.73787 43.3642 3.63518 43.4898 3.56872C43.632 3.49386 43.7491 3.52308 43.8434 3.66955C44.0602 4.00554 44.1875 4.38182 44.3092 4.75762C44.9339 6.68611 45.4716 8.63615 45.7147 10.655C45.7983 11.3473 45.8545 12.0429 45.9232 12.7368C45.9437 12.9437 45.9635 13.1503 45.9866 13.3888C46.1861 13.1953 46.1496 12.9578 46.1704 12.7628C46.3231 11.3432 46.7267 9.98247 47.1053 8.61583C47.242 8.12283 47.4023 7.63668 47.556 7.14839C47.5904 7.03849 47.635 6.92993 47.6897 6.82848C47.7381 6.73911 47.8251 6.70802 47.9265 6.7384C48.012 6.76415 48.017 6.83675 48.0078 6.9051C47.9894 7.04291 47.9762 7.18373 47.9372 7.31639C47.1401 10.021 46.6983 12.8035 46.1325 15.5587C45.9777 16.3122 46.0022 17.0817 46.0007 17.847C46.0005 17.8614 46.0349 17.876 46.0713 17.9044C46.1702 17.677 46.2888 17.461 46.3605 17.2306C46.9083 15.4635 47.7437 13.8283 48.6353 12.2179C49.0522 11.4648 49.4629 10.7084 49.8801 9.95545C50.0035 9.73305 50.1024 9.49054 50.3198 9.33643C50.3478 9.31664 50.4076 9.33689 50.4511 9.34441C50.5097 9.35425 50.5361 9.39317 50.5164 9.4474C50.4694 9.57736 50.4281 9.71092 50.3662 9.83402C49.8837 10.7889 49.4084 11.748 48.9082 12.6937C47.8935 14.6107 47.0384 16.5952 46.3438 18.6491C46.2915 18.8034 46.2435 18.9604 46.176 19.1077C45.7033 20.1353 45.5684 21.2504 45.3364 22.3401C45.323 22.4043 45.3335 22.4747 45.3397 22.5418C45.3414 22.5608 45.3679 22.5777 45.3956 22.6103C45.8036 21.8225 46.2446 21.0621 46.6991 20.3082C47.7474 18.5695 48.9709 16.9621 50.2872 15.4222C51.2694 14.2734 52.2598 13.1312 53.2464 11.9863C53.4332 11.7694 53.626 11.6834 53.696 11.7911C53.8112 11.9684 53.6792 12.1082 53.5879 12.2253C53.0885 12.8671 52.5829 13.5047 52.0661 14.1328C50.8101 15.6583 49.5366 17.1689 48.3933 18.7845C46.9789 20.7839 45.7332 22.8811 44.7138 25.1076C44.4158 25.7589 44.209 26.4517 43.911 27.2599C44.1473 26.9484 44.3191 26.7528 44.4565 26.5357C46.0988 23.9458 48.0888 21.6487 50.3542 19.5924C51.6828 18.3868 53.1666 17.3768 54.6407 16.3593C54.6979 16.3198 54.7566 16.281 54.8174 16.2473C55.0317 16.1273 55.1708 16.1436 55.2346 16.2912C55.3135 16.4748 55.1617 16.5386 55.0583 16.6178C54.2281 17.2551 53.3881 17.8797 52.5647 18.5257C49.8938 20.6208 47.5732 23.0529 45.6228 25.8313C44.8616 26.9159 44.1431 28.0308 43.4054 29.1321C43.1419 29.5254 43.0072 29.9595 42.9385 30.5606C43.1541 30.2758 43.2965 30.1059 43.4193 29.9225C44.8288 27.8169 46.5806 26.0304 48.5176 24.4123C50.0221 23.1559 51.6647 22.0977 53.3084 21.0413C53.7386 20.7646 54.1831 20.5101 54.6233 20.2492C54.7228 20.19 54.8304 20.1439 54.9367 20.0965C55.0765 20.0343 55.206 20.0445 55.3184 20.16C55.4034 20.2472 55.3544 20.3294 55.1364 20.4612C52.903 21.8118 50.791 23.3349 48.7726 24.9861C46.7272 26.6591 44.9521 28.587 43.4377 30.7532C43.3047 30.9436 43.166 31.1304 43.0394 31.3251C42.8877 31.5584 42.7467 31.7987 42.6001 32.0379C42.8734 31.8629 43.0794 31.6185 43.3059 31.3953C44.5886 30.1331 46.0006 29.0345 47.5559 28.1314C49.1053 27.2323 50.6745 26.3684 52.2377 25.4936C52.3968 25.4043 52.5499 25.2764 52.748 25.2955C52.8072 25.301 52.8694 25.3578 52.9148 25.4057C52.9781 25.4728 52.9294 25.5472 52.8772 25.5831C52.6667 25.7276 52.4536 25.8692 52.2331 25.9972C50.5233 26.9903 48.7991 27.9596 47.1349 29.0289C45.2868 30.2166 43.6085 31.6072 42.135 33.2425C41.8194 33.5926 41.5924 33.9931 41.3478 34.3866C41.3199 34.4316 41.2292 34.458 41.1685 34.4568C41.093 34.4552 41.0515 34.38 41.0612 34.3096C41.1024 34.0115 41.1461 33.713 41.2024 33.4173C41.2328 33.258 41.2824 33.101 41.3378 32.9481C41.6242 32.1608 41.5086 31.4108 41.2214 30.6387C40.6482 29.098 39.847 27.691 38.8831 26.3677C37.9371 25.0689 36.8926 23.8519 35.8087 22.6679C35.6518 22.4965 35.4903 22.3284 35.3437 22.1482C35.2891 22.0811 35.2572 21.9872 35.2405 21.9004C35.2217 21.8043 35.2678 21.7079 35.3542 21.667C35.404 21.6433 35.502 21.6536 35.5433 21.689C35.7713 21.8871 35.9944 22.0919 36.2087 22.305C37.1826 23.2724 38.1028 24.29 38.9834 25.3418C39.8533 26.3806 40.5851 27.5119 41.1448 28.7501C41.4043 29.324 41.6151 29.9144 41.7609 30.5275C41.7922 30.6587 41.7844 30.8122 41.9622 30.8884C42.2661 30.1273 42.5056 29.3699 42.3628 28.5247C42.2618 27.926 42.1372 27.3351 41.9587 26.7579C41.4048 24.968 40.5904 23.297 39.5618 21.7347C38.7427 20.4907 37.8367 19.3091 36.8516 18.1902C36.7749 18.1032 36.6855 18.0224 36.6283 17.9237C36.585 17.8489 36.5657 17.7488 36.5695 17.6613C36.5721 17.6027 36.6241 17.5374 36.6705 17.4912C36.7292 17.4323 36.8101 17.4598 36.8611 17.5029C37.003 17.6221 37.1402 17.748 37.2711 17.8795C37.9779 18.59 38.5987 19.3743 39.223 20.1555C39.9942 21.1201 40.6997 22.127 41.2898 23.2158C41.9816 24.4923 42.5088 25.8279 42.8335 27.2433C42.8527 27.3278 42.8758 27.4114 42.8933 27.4814C43.0735 27.5198 43.0729 27.3931 43.097 27.3229C43.2252 26.9492 43.3215 26.5631 43.4691 26.1974C43.6516 25.7442 43.6328 25.2928 43.559 24.8267C43.0993 21.9241 42.0062 19.2849 40.2844 16.9041C39.7246 16.1304 39.0987 15.4113 38.4805 14.6853C38.3615 14.5456 38.2057 14.4284 38.1642 14.236C38.1562 14.199 38.1752 14.1422 38.2022 14.1151C38.2298 14.0875 38.2952 14.0615 38.3218 14.0757C38.401 14.1185 38.4789 14.1722 38.5406 14.2378C39.4332 15.1859 40.3422 16.1214 41.1284 17.161C42.4942 18.9671 43.4512 20.9677 43.9157 23.1935C43.9432 23.3247 43.9421 23.4692 44.0534 23.5854C44.2131 23.6095 44.2155 23.4682 44.2495 23.3741C44.733 22.0336 44.6394 20.6821 44.358 19.3163C43.8161 16.6841 42.7982 14.2545 41.3193 12.0148C41.0758 11.6459 40.8306 11.2781 40.5922 10.9061C40.5308 10.81 40.4761 10.7029 40.4507 10.5932C40.4399 10.5463 40.5029 10.4713 40.5493 10.4267C40.571 10.4057 40.6472 10.4084 40.674 10.4307C40.7623 10.5034 40.8495 10.5823 40.9192 10.6724C42.6692 12.9444 44.0665 15.3926 44.7001 18.2246C44.7482 18.4389 44.736 18.6849 44.9579 18.8785C45.1218 18.5804 45.1341 18.2789 45.1137 17.9853C44.9182 15.1747 44.3575 12.457 43.0534 9.92819C42.6053 9.05949 42.1594 8.19021 41.6375 7.36253C41.6002 7.3037 41.5643 7.24354 41.5339 7.18121C41.489 7.08933 41.4937 6.99432 41.5703 6.92595C41.6588 6.84678 41.7447 6.89784 41.8086 6.96978C41.8856 7.05619 41.9598 7.14744 42.0207 7.24551C43.0886 8.96541 44.1818 10.6727 44.7628 12.6404C44.7819 12.7059 44.8251 12.7642 44.8573 12.8258C44.8929 13.0891 44.9206 13.3555 45.0941 13.5756C45.1006 13.642 45.105 13.709 45.1144 13.7748C45.1173 13.7955 45.1339 13.8141 45.1442 13.8334C45.2066 13.7643 45.1282 13.8642 45.1219 13.7716C45.1176 13.7073 45.0951 13.6442 45.0809 13.5805C45.1788 13.301 45.1266 13.0209 45.0767 12.7415Z" fill="#95A834"/>
<path d="M73.4459 19.2424C73.5346 19.1611 73.561 19.0871 73.5358 18.9827C73.4945 18.8118 73.4679 18.6374 73.4352 18.4645C73.2583 17.5308 73.2173 16.5941 73.3636 15.6515C73.4227 15.2707 73.5172 14.9004 73.6519 14.5408C73.7732 14.2175 73.9481 13.9253 74.1889 13.6746C74.3345 13.523 74.5019 13.3997 74.6976 13.3256C74.9698 13.2225 75.4291 13.2488 75.6667 13.5446C75.7705 13.674 75.8637 13.811 75.9243 13.9677C76.0114 14.1928 76.0584 14.4271 76.0569 14.6667C76.0543 15.041 75.9984 15.4068 75.8837 15.7668C75.6436 16.5203 75.2334 17.1743 74.7448 17.7856C74.4275 18.1827 74.1241 18.5885 73.889 19.042C73.8079 19.1985 73.7202 19.3506 73.6701 19.5215C73.647 19.6003 73.618 19.6795 73.557 19.74C73.525 19.7717 73.4819 19.7899 73.4464 19.7603C72.9956 19.3861 72.4213 19.2743 71.9075 19.0343C71.6541 18.9159 71.3965 18.8076 71.1464 18.6811C70.3759 18.2918 69.8261 17.6941 69.4506 16.9247C69.2771 16.5691 69.1346 16.2051 69.0693 15.8121C69.0346 15.6034 69.0436 15.3963 69.0883 15.1956C69.2033 14.6776 69.8049 14.2329 70.4169 14.5403C70.7013 14.6833 70.9301 14.8903 71.1246 15.1357C71.4081 15.4936 71.6539 15.8777 71.8636 16.2829C72.1349 16.8071 72.3862 17.3418 72.6636 17.8626C72.9098 18.3251 73.1797 18.7752 73.4459 19.2424Z" fill="#CFCFCF"/>
<path d="M69.3584 31.3296C69.4783 31.8362 69.4905 32.277 69.4396 32.7248C69.3997 33.0762 69.3469 33.4227 69.2256 33.7551C69.0375 34.2705 68.8381 34.7812 68.5443 35.2487C68.523 35.2826 68.5047 35.3212 68.4968 35.3601C68.4908 35.389 68.5069 35.4205 68.5442 35.426C68.6078 35.4353 68.6718 35.4255 68.7239 35.3922C69.1919 35.0939 69.7262 35.0099 70.2569 34.9182C70.8832 34.8101 71.5143 34.7993 72.1437 34.8792C72.461 34.9195 72.7713 34.9903 73.0617 35.1478C73.2622 35.2566 73.4055 35.4093 73.5376 35.582C73.6411 35.7175 73.6219 35.8809 73.6052 36.0315C73.5793 36.2638 73.4782 36.4691 73.2954 36.6236C73.1045 36.7851 72.8972 36.9179 72.6576 37.0011C71.7809 37.3058 70.8904 37.343 69.9987 37.1033C69.4415 36.9535 68.9511 36.6613 68.5444 36.2437C68.4727 36.17 68.4148 36.0832 68.3499 36.0028C68.239 35.8657 68.2194 35.7209 68.3279 35.576C68.3807 35.5058 68.3468 35.4642 68.3004 35.4191C67.7206 34.8531 67.2906 34.1859 66.992 33.4367C66.7948 32.9424 66.689 32.4236 66.6813 31.89C66.675 31.4579 66.7656 31.039 66.9829 30.6667C67.196 30.3021 67.501 30.0299 67.9255 29.9113C68.1628 29.8449 68.3755 29.8832 68.5819 30.0019C68.7765 30.1138 68.9144 30.2807 69.0256 30.4708C69.1945 30.7597 69.3062 31.0708 69.3584 31.3296Z" fill="#CFCFCF"/>
<path d="M72.5801 30.9455C72.5348 30.9584 72.5151 30.9915 72.5079 31.0351C72.4986 31.0914 72.5475 31.1574 72.4701 31.212C71.8049 30.5203 71.0844 29.8778 70.5217 29.0891C70.2321 28.6833 69.9724 28.2599 69.7903 27.7938C69.6569 27.4525 69.5769 27.1009 69.6175 26.7307C69.6578 26.3629 69.8026 26.0559 70.121 25.8446C70.3985 25.6605 70.6806 25.6527 70.9735 25.8022C71.1802 25.9076 71.3507 26.0601 71.5022 26.2304C71.8647 26.6382 72.1235 27.1045 72.2861 27.628C72.4473 28.1472 72.5026 28.6809 72.5474 29.2182C72.5886 29.7126 72.6414 30.2061 72.6457 30.703C72.7504 30.7224 72.7481 30.6377 72.772 30.5947C73.3342 29.5881 74.1375 28.8328 75.1569 28.3031C75.4151 28.1689 75.6883 28.0744 75.9723 28.0066C76.2091 27.9501 76.4441 27.9561 76.682 27.9865C76.9464 28.0202 77.1357 28.1722 77.296 28.3706C77.3907 28.4878 77.433 28.6231 77.4312 28.7735C77.4265 29.1866 77.2846 29.5477 76.9915 29.8363C76.4698 30.3504 75.873 30.7525 75.1841 31.0153C74.8646 31.1372 74.5478 31.2652 74.2153 31.3473C73.8305 31.4424 73.4419 31.4753 73.0453 31.4299C72.9075 31.4142 72.8038 31.3667 72.7414 31.2498C72.6889 31.1515 72.6053 31.0681 72.5891 30.951C72.6023 30.9401 72.6221 30.9319 72.6275 30.9183C72.6374 30.8932 72.642 30.8615 72.6049 30.8534C72.5981 30.8519 72.5804 30.8771 72.5765 30.8922C72.5726 30.9086 72.5786 30.9277 72.5801 30.9455Z" fill="#CFCFCF"/>
<path d="M58.7895 34.7796C59.0141 34.7168 59.269 34.7131 59.5149 34.8274C59.8058 34.9628 59.9904 35.2018 60.0755 35.4996C60.2312 36.0443 60.2042 36.5888 59.9756 37.1107C59.6938 37.7545 59.2537 38.2627 58.6489 38.6306C58.3925 38.7867 58.1382 38.9451 57.8717 39.0839C57.8416 39.0995 57.7811 39.1023 57.8076 39.1631C57.8284 39.2107 57.8768 39.2006 57.9154 39.1992C58.3634 39.1824 58.805 39.2427 59.2388 39.339C59.8267 39.4694 60.3885 39.6713 60.86 40.0673C61.1379 40.3006 61.3371 40.5808 61.4048 40.9457C61.4884 41.3961 61.2922 41.7169 60.852 41.8455C60.494 41.9501 60.1341 41.9205 59.7766 41.856C59.5331 41.8121 59.2911 41.7535 59.0539 41.6833C58.6868 41.5745 58.3382 41.4165 57.9965 41.2444C57.9417 41.2167 57.8924 41.1771 57.8429 41.1398C57.5768 40.9387 57.3647 40.6901 57.184 40.4105C57.0842 40.256 57.0485 40.0876 57.0324 39.9115C57.0248 39.8293 57.0305 39.7458 57.0242 39.6633C57.0212 39.6242 57.015 39.5623 56.9915 39.5515C56.8425 39.4832 56.8687 39.3641 56.8707 39.2366C56.8728 39.1035 56.8397 38.9697 56.8214 38.8363C56.7047 37.9835 56.8293 37.1631 57.1615 36.3732C57.3612 35.8984 57.6614 35.4931 58.0478 35.1522C58.2742 34.953 58.4624 34.8565 58.7895 34.7796Z" fill="#CFCFCF"/>
<path d="M74.2234 24.362C74.3074 24.2965 74.2865 24.2084 74.2927 24.1286C74.3302 23.6527 74.3939 23.1811 74.5199 22.7194C74.6596 22.2066 74.8469 21.7144 75.1484 21.2717C75.3791 20.9332 75.6584 20.6488 76.0219 20.4483C76.2502 20.3222 76.4908 20.2749 76.7389 20.326C77.0318 20.3864 77.2376 20.5688 77.3331 20.8589C77.4254 21.1394 77.4345 21.4289 77.406 21.7196C77.3836 21.9476 77.324 22.1679 77.2376 22.3802C77.0687 22.7956 76.8481 23.1803 76.5603 23.5264C76.1053 24.0736 75.5857 24.5419 74.9534 24.8782C74.8613 24.9271 74.7726 24.9911 74.6663 24.9832C74.5567 24.9752 74.4898 25.0118 74.4477 25.1109C74.4233 25.1688 74.3736 25.1754 74.3189 25.1532C74.2997 25.1455 74.2808 25.1366 74.2629 25.1263C73.8674 24.8968 73.4442 24.7257 73.0274 24.5408C72.6672 24.381 72.3219 24.191 71.9786 23.9974C71.3229 23.6276 70.8597 23.0843 70.5405 22.4116C70.4287 22.176 70.3593 21.9262 70.337 21.6655C70.3136 21.3904 70.3935 21.1673 70.6191 20.9837C70.982 20.6883 71.3705 20.6613 71.7843 20.8267C72.128 20.9641 72.4097 21.1935 72.641 21.4798C72.7577 21.6242 72.862 21.7801 72.9597 21.9383C73.3794 22.6175 73.7571 23.3191 74.0759 24.0518C74.1211 24.1556 74.1732 24.2569 74.2234 24.362Z" fill="#CFCFCF"/>
<path d="M63.7847 37.4095C63.8782 37.52 63.9876 37.5588 64.1378 37.5371C64.7047 37.4551 65.2699 37.4612 65.8384 37.5553C66.5251 37.6689 67.1124 37.9637 67.602 38.4514C67.839 38.6877 67.9576 38.99 67.9635 39.3212C67.9698 39.672 67.7978 39.9356 67.4868 40.0984C67.3208 40.1854 67.1401 40.2387 66.9538 40.2588C66.2301 40.3372 65.5578 40.1812 64.9327 39.8093C64.4667 39.5319 64.1185 39.1494 63.8743 38.6662C63.7554 38.4308 63.6744 38.1898 63.6839 37.9227C63.687 37.8335 63.6793 37.7765 63.5302 37.7985C63.5105 37.8014 63.4893 37.7962 63.4693 37.7925C63.4608 37.7909 63.4467 37.7829 63.4469 37.7784C63.4477 37.7597 63.447 37.7304 63.4577 37.7243C63.52 37.6888 63.5934 37.6684 63.6468 37.6237C63.6809 37.5952 63.6995 37.534 63.702 37.4863C63.7047 37.4335 63.6412 37.4539 63.6099 37.4357C63.5646 37.4091 63.5193 37.3939 63.4633 37.4088C63.3908 37.428 63.3495 37.3771 63.3146 37.3233C63.2063 37.1563 63.1408 36.9685 63.0787 36.7831C62.8191 36.0056 62.722 35.2093 62.8339 34.3926C62.8821 34.0401 62.9766 33.7021 63.1559 33.393C63.3858 32.9967 63.7063 32.741 64.1817 32.6791C64.5048 32.637 64.9405 32.8152 65.1249 33.1992C65.3609 33.6902 65.4489 34.203 65.3456 34.7407C65.2611 35.1806 65.1221 35.6026 64.8989 35.9942C64.8579 36.0663 64.8152 36.1386 64.7853 36.2155C64.614 36.6557 64.3129 36.9888 63.937 37.2629C63.8811 37.3031 63.8135 37.3348 63.7847 37.4095Z" fill="#CFCFCF"/>
<path d="M71.659 12.5488C71.6545 12.542 71.6461 12.5348 71.6448 12.5263C71.5634 12.0414 71.3586 11.5995 71.1681 11.1524C70.9531 10.6475 70.763 10.1329 70.599 9.6097C70.4844 9.24423 70.3995 8.87133 70.3904 8.48389C70.3803 8.06042 70.4749 7.66288 70.6616 7.286C70.7793 7.04803 70.9593 6.85411 71.1824 6.7225C71.5571 6.50127 72.1013 6.51124 72.4337 6.88371C72.6107 7.08192 72.7213 7.31189 72.794 7.56244C72.9328 8.04097 72.9014 8.52351 72.8293 9.00833C72.733 9.65439 72.464 10.2345 72.1577 10.8006C71.9997 11.093 71.8551 11.3892 71.7872 11.7177C71.777 11.7669 71.7627 11.8223 71.7314 11.8584C71.6751 11.9232 71.6862 11.9885 71.6962 12.0617C71.7129 12.1846 71.7246 12.3083 71.7321 12.4322C71.7353 12.4825 71.7269 12.5373 71.659 12.5488Z" fill="#CFCFCF"/>
<path d="M73.196 30.7087C73.5571 30.4479 73.8757 30.137 74.2157 29.8512C74.4218 29.6782 74.633 29.5111 74.8451 29.345C74.9013 29.3011 74.9674 29.2693 75.0315 29.2368C75.0434 29.2307 75.0717 29.2437 75.084 29.2562C75.096 29.2685 75.1072 29.2966 75.101 29.3087C75.0783 29.3538 75.0565 29.4052 75.0195 29.4366C74.4287 29.9399 73.8364 30.4415 73.2422 30.9407C73.1641 31.0062 73.0858 31.0842 72.9747 31.088C72.8866 31.091 72.8496 31.1462 72.8131 31.2114C72.707 31.4012 72.6015 31.5917 72.4916 31.7793C72.0764 32.4892 71.5724 33.1293 71.0037 33.7238C70.4712 34.2805 69.8832 34.7663 69.2525 35.2042C69.1676 35.2632 69.0868 35.3282 69.0044 35.3902C69.0399 35.4568 69.1039 35.4577 69.1639 35.4687C69.6932 35.5673 70.2225 35.6665 70.7518 35.765C70.8127 35.7763 70.8752 35.7807 70.9355 35.7946C70.9729 35.8031 71.0192 35.8071 71.0227 35.8644C71.0261 35.9196 70.9681 35.983 70.9026 35.98C70.7992 35.9752 70.6951 35.9699 70.5934 35.9524C70.0424 35.8578 69.49 35.7694 68.9425 35.6574C68.7436 35.6167 68.588 35.6514 68.419 35.7535C67.8347 36.1063 67.2313 36.4256 66.608 36.7038C66.0036 36.9736 65.387 37.2151 64.7587 37.4252C64.5918 37.4809 64.4261 37.5403 64.26 37.5984C64.2159 37.6139 64.2018 37.6638 64.2335 37.6916C64.2567 37.712 64.2804 37.7321 64.3058 37.7496C64.8086 38.0976 65.2991 38.4645 65.8333 38.7653C65.8512 38.7754 65.8695 38.7854 65.8866 38.7968C65.9247 38.8223 65.9426 38.8541 65.9175 38.8994C65.8952 38.9396 65.8543 38.9678 65.8169 38.957C65.7381 38.9341 65.6591 38.9034 65.589 38.8612C65.3136 38.6956 65.0385 38.5292 64.7695 38.3535C64.5092 38.1834 64.2529 38.0068 64.0024 37.8225C63.9002 37.7473 63.8114 37.7286 63.688 37.767C63.2924 37.8894 62.8943 38.0044 62.4943 38.1116C61.8946 38.2722 61.2931 38.426 60.6914 38.5789C59.8994 38.7804 59.1063 38.9779 58.314 39.1788C58.2238 39.2016 58.1353 39.2318 58.048 39.2642C58.0184 39.275 58.0104 39.3093 58.0282 39.3384C58.0386 39.3552 58.0564 39.3683 58.0728 39.3804C58.3906 39.6132 58.7061 39.8491 59.0278 40.0764C59.1797 40.1838 59.3441 40.2739 59.5021 40.3728C59.5408 40.397 59.563 40.4368 59.534 40.4755C59.5111 40.5059 59.4716 40.5365 59.4359 40.5414C59.3993 40.5464 59.3548 40.5267 59.3199 40.5069C59.1492 40.4091 58.9749 40.3159 58.8121 40.2059C58.4601 39.9678 58.1114 39.7243 57.7673 39.475C57.645 39.3864 57.5305 39.3799 57.392 39.4265C56.2457 39.812 55.1776 40.3517 54.1873 41.0447C54.0436 41.1453 53.9126 41.2641 53.7749 41.3735C53.7343 41.4059 53.6978 41.3846 53.6646 41.3578C53.6349 41.3339 53.6403 41.3005 53.6551 41.2743C53.6752 41.2387 53.6998 41.2036 53.7297 41.1762C53.8367 41.0785 53.9407 40.976 54.0569 40.8902C54.7166 40.4035 55.4086 39.9671 56.1467 39.6104C56.4631 39.4575 56.7993 39.3462 57.1269 39.2166C57.1751 39.1975 57.2242 39.1807 57.2735 39.1645C57.3624 39.1353 57.3991 39.0741 57.4133 38.9813C57.4748 38.5823 57.5418 38.184 57.61 37.7861C57.6292 37.6742 57.6555 37.563 57.6851 37.4533C57.701 37.3938 57.7273 37.3363 57.7553 37.2812C57.7739 37.2449 57.803 37.2064 57.8515 37.2189C57.902 37.2318 57.901 37.2763 57.8926 37.3179C57.8864 37.3482 57.8768 37.3779 57.8689 37.4079C57.741 37.9007 57.7 38.4076 57.623 38.9086C57.6186 38.9369 57.6321 38.9677 57.6364 38.9929C57.6929 39.0252 57.7426 39.0039 57.7913 38.9893C58.5355 38.7665 59.2783 38.5386 60.024 38.3212C60.6607 38.1355 61.3016 37.9643 61.9391 37.7814C62.4763 37.6274 63.0114 37.4662 63.5472 37.3068C63.6653 37.2717 63.6726 37.2654 63.6749 37.1307C63.6825 36.7057 63.7016 36.2813 63.7431 35.8583C63.7612 35.6727 63.7899 35.4882 63.8138 35.3034C63.8208 35.2488 63.8465 35.2053 63.8948 35.1783C63.9114 35.169 63.936 35.1592 63.9509 35.1651C63.9665 35.1712 63.9837 35.1953 63.9849 35.2125C63.9883 35.2633 63.9866 35.3147 63.9826 35.3658C63.9415 35.9027 63.9077 36.4399 63.9095 36.9787C63.9096 37.02 63.9082 37.0618 63.9142 37.1023C63.9213 37.1495 63.9538 37.1753 64.0011 37.1624C64.0809 37.1407 64.1594 37.114 64.2378 37.0875C64.9349 36.8533 65.6231 36.5966 66.2912 36.2879C66.8556 36.0273 67.4116 35.7511 67.9436 35.4283C67.9968 35.3961 68.0482 35.3607 68.1035 35.3329C68.1766 35.296 68.2093 35.2475 68.1947 35.1605C68.162 34.9665 68.1294 34.7717 68.1111 34.5759C68.0696 34.1323 68.0366 33.6881 68.0008 33.244C67.9992 33.2236 67.9998 33.2024 68.0031 33.1822C68.0105 33.1387 68.0338 33.1026 68.0787 33.0971C68.1289 33.0911 68.1517 33.1292 68.1567 33.1727C68.1807 33.3785 68.2003 33.585 68.2253 33.7907C68.2705 34.1612 68.3184 34.5312 68.3656 34.9014C68.3696 34.9322 68.3757 34.9627 68.3824 34.9931C68.4056 35.0999 68.4428 35.1212 68.5269 35.0639C68.7834 34.8891 69.0425 34.7172 69.2911 34.5317C70.1865 33.864 70.9651 33.0806 71.6058 32.1637C71.8793 31.7723 72.1167 31.3588 72.3491 30.9418C72.4254 30.8047 72.4086 30.7085 72.3262 30.5789C72.1486 30.2996 71.9978 30.0033 71.8327 29.7159C71.7605 29.5903 71.6792 29.47 71.6043 29.3459C71.5802 29.3057 71.5933 29.2665 71.6247 29.2345C71.661 29.1976 71.7101 29.2049 71.736 29.234C71.8048 29.3108 71.8707 29.3922 71.9254 29.4795C72.0961 29.7514 72.2609 30.0269 72.4285 30.3009C72.4649 30.3605 72.4849 30.435 72.5833 30.4631C72.6902 30.2674 72.7815 30.0594 72.8698 29.8512C73.2353 28.99 73.4873 28.0942 73.678 27.1794C73.8349 26.4269 73.9177 25.667 73.9327 24.8991C73.9337 24.8473 73.9278 24.795 73.9335 24.7438C73.9412 24.6752 73.9193 24.6227 73.8662 24.5813C73.3578 24.1861 72.9302 23.7007 72.431 23.2951C72.4149 23.282 72.3992 23.2683 72.3846 23.2536C72.3535 23.2222 72.3396 23.187 72.3587 23.1426C72.3782 23.0971 72.4341 23.0863 72.4904 23.128C72.5985 23.2082 72.7069 23.289 72.8079 23.3776C73.1119 23.6443 73.4119 23.9151 73.7146 24.1831C73.7606 24.224 73.81 24.2622 73.8627 24.2939C73.8881 24.3092 73.9247 24.2991 73.9303 24.2611C73.9379 24.2101 73.9439 24.158 73.9421 24.1065C73.9142 23.2974 73.8458 22.4925 73.6705 21.7004C73.5025 20.9416 73.331 20.1834 73.1235 19.4341C73.107 19.3742 73.09 19.3144 73.0761 19.2537C73.0428 19.1062 72.9625 19.0009 72.8392 18.906C72.4116 18.5769 72.0104 18.2163 71.6516 17.812C71.5489 17.6962 71.4612 17.5669 71.3693 17.4417C71.3382 17.3991 71.3275 17.3487 71.3399 17.2945C71.3508 17.2467 71.4297 17.2107 71.4625 17.2436C71.5059 17.2872 71.5463 17.3341 71.5846 17.3824C71.9091 17.7908 72.2993 18.1309 72.7013 18.459C72.7243 18.4777 72.7533 18.4928 72.7817 18.4992C72.7945 18.502 72.8245 18.4813 72.8267 18.4679C72.8315 18.4385 72.8285 18.4057 72.8199 18.377C72.4988 17.2934 72.2122 16.201 71.9516 15.1013C71.6251 13.7237 71.4609 12.3268 71.4173 10.9143C71.4028 10.4484 71.4015 9.9821 71.3974 9.51595C71.3965 9.41274 71.4047 9.30889 71.417 9.20637C71.4212 9.17125 71.4277 9.1211 71.4847 9.11769C71.5424 9.16037 71.5267 9.22715 71.534 9.28358C71.6054 9.83827 71.6535 10.3951 71.695 10.9531C71.7274 11.3868 71.7887 11.8183 71.8369 12.2508C71.9115 12.9218 72.0464 13.5826 72.1978 14.2388C72.3469 14.8849 72.5251 15.5244 72.7 16.1643C72.8176 16.5941 72.9517 17.0193 73.0787 17.4466C73.1909 17.8241 73.3018 18.202 73.4175 18.5786C73.4369 18.642 73.4471 18.7187 73.5235 18.7531C73.5847 18.6811 73.5775 18.5943 73.595 18.5155C73.7093 18 73.8191 17.4833 73.9371 16.9686C73.9997 16.6954 74.0908 16.4304 74.2078 16.1752C74.2335 16.1192 74.2541 16.0585 74.3091 16.022C74.3356 16.0045 74.3665 15.9909 74.394 16.0148C74.4066 16.0258 74.4136 16.0497 74.413 16.0676C74.4126 16.0871 74.4027 16.1077 74.3933 16.1258C74.2401 16.4239 74.157 16.7454 74.0886 17.07C73.9436 17.7587 73.8108 18.4502 73.6655 19.139C73.6359 19.2788 73.6602 19.4056 73.6964 19.5358C73.8577 20.1151 74.0093 20.6966 74.1352 21.2847C74.2895 22.0047 74.422 22.7278 74.4553 23.4653C74.466 23.7029 74.4735 23.9405 74.4845 24.1782C74.4862 24.215 74.4789 24.268 74.5353 24.2697C74.5605 24.2705 74.5949 24.2487 74.6108 24.2268C74.9743 23.7225 75.3531 23.2274 75.5956 22.6476C75.6035 22.6287 75.61 22.6086 75.6215 22.5917C75.6469 22.5543 75.688 22.5357 75.7289 22.5444C75.7797 22.5552 75.7811 22.5984 75.7675 22.6416C75.6661 22.9606 75.5073 23.2516 75.3262 23.5303C75.0947 23.8867 74.8634 24.2447 74.565 24.55C74.4698 24.6475 74.4796 24.7597 74.4782 24.8684C74.4732 25.2834 74.4476 25.6968 74.3994 26.1089C74.2751 27.1722 74.0271 28.2073 73.6899 29.2229C73.5295 29.7058 73.308 30.1627 73.1192 30.6335C73.1049 30.6646 73.0666 30.6946 73.1045 30.7306C73.142 30.7658 73.17 30.7353 73.196 30.7087Z" fill="#D0D0D0"/>
<path d="M9.08707 17.7735C9.00264 17.6877 8.98008 17.6125 9.0106 17.5096C9.06048 17.3409 9.09603 17.1681 9.13752 16.9972C9.3618 16.0737 9.45061 15.1403 9.35256 14.1914C9.31305 13.8081 9.2376 13.4335 9.12141 13.0675C9.0168 12.7384 8.85696 12.4377 8.6293 12.175C8.49163 12.0162 8.33074 11.8845 8.13913 11.8005C7.87254 11.6837 7.41244 11.6865 7.16009 11.9698C7.04977 12.0937 6.94973 12.2258 6.88121 12.3791C6.78276 12.5995 6.7238 12.8311 6.71312 13.0705C6.69659 13.4444 6.73376 13.8126 6.82992 14.1779C7.03121 14.9427 7.4075 15.6168 7.86421 16.2523C8.16087 16.6651 8.44318 17.0858 8.65479 17.5507C8.72781 17.7112 8.80764 17.8676 8.84895 18.0407C8.86794 18.1206 8.89287 18.2012 8.95074 18.2648C8.98111 18.2981 9.02323 18.3184 9.06016 18.2907C9.52943 17.94 10.1087 17.8577 10.6341 17.6442C10.8932 17.5389 11.156 17.4438 11.4123 17.3303C12.2016 16.9809 12.7812 16.412 13.1955 15.6628C13.3869 15.3166 13.5478 14.9602 13.6331 14.5711C13.6784 14.3645 13.68 14.1572 13.6456 13.9545C13.5572 13.4312 12.9791 12.9564 12.3522 13.2322C12.0608 13.3604 11.8218 13.5555 11.615 13.7907C11.3136 14.1337 11.0485 14.5047 10.8184 14.8987C10.5207 15.4083 10.2424 15.9295 9.9388 16.4355C9.66931 16.8848 9.37683 17.3205 9.08707 17.7735Z" fill="#CFCFCF"/>
<path d="M12.553 30.0538C12.4074 30.5537 12.3727 30.9933 12.4007 31.4431C12.4226 31.796 12.4577 32.1448 12.5618 32.483C12.7233 33.0073 12.8964 33.5275 13.1659 34.0094C13.1855 34.0444 13.2018 34.0839 13.2077 34.1231C13.2122 34.1523 13.1945 34.1829 13.157 34.1865C13.093 34.1925 13.0296 34.1795 12.9793 34.1436C12.5271 33.8217 11.9978 33.7106 11.4724 33.5919C10.8525 33.4519 10.2228 33.4089 9.59015 33.4566C9.27117 33.4807 8.95771 33.5355 8.65961 33.678C8.45382 33.7764 8.30287 33.9216 8.16213 34.0874C8.05184 34.2174 8.06273 34.3815 8.07174 34.5328C8.0857 34.7662 8.17621 34.9763 8.35085 35.14C8.53326 35.311 8.73355 35.4542 8.96854 35.5495C9.82851 35.8986 10.716 35.9812 11.6188 35.7874C12.1829 35.6662 12.6875 35.3994 13.115 35.0031C13.1904 34.9332 13.2527 34.8494 13.3216 34.7725C13.4394 34.6412 13.4663 34.4976 13.3654 34.3474C13.3163 34.2745 13.3522 34.2347 13.4008 34.192C14.0088 33.6564 14.4723 33.012 14.8088 32.279C15.0309 31.7954 15.1631 31.2827 15.198 30.7502C15.2264 30.3189 15.1573 29.8961 14.9592 29.5131C14.7651 29.1381 14.4744 28.8507 14.0564 28.7105C13.8228 28.6321 13.6085 28.6595 13.3962 28.7675C13.1963 28.8693 13.05 29.029 12.9293 29.2132C12.7458 29.4931 12.6184 29.7981 12.553 30.0538Z" fill="#CFCFCF"/>
<path d="M9.35523 29.5059C9.39977 29.521 9.4178 29.5551 9.4227 29.599C9.42914 29.6558 9.37697 29.7191 9.45146 29.7776C10.1511 29.1208 10.9035 28.5159 11.5056 27.757C11.8156 27.3664 12.0966 26.9569 12.3023 26.5007C12.4529 26.1667 12.5507 25.8196 12.5291 25.4478C12.5077 25.0784 12.3787 24.7644 12.0716 24.5372C11.8038 24.3392 11.5225 24.3169 11.2223 24.4512C11.0104 24.546 10.8325 24.6896 10.6725 24.852C10.2896 25.2407 10.0073 25.6931 9.81814 26.2077C9.63069 26.718 9.54824 27.2481 9.47607 27.7824C9.40966 28.2741 9.3317 28.7643 9.30203 29.2603C9.19654 29.2743 9.2031 29.1898 9.18144 29.1457C8.67141 28.1117 7.9077 27.3164 6.91666 26.7353C6.6656 26.5881 6.39759 26.4798 6.1175 26.3976C5.88385 26.329 5.64883 26.3231 5.40976 26.3413C5.14393 26.3614 4.94713 26.5036 4.77693 26.6935C4.67635 26.8058 4.62718 26.9387 4.62127 27.089C4.60493 27.5018 4.72819 27.8696 5.00615 28.1729C5.50097 28.7129 6.07642 29.1449 6.75107 29.4427C7.0639 29.5806 7.37372 29.7247 7.70163 29.8236C8.08105 29.9382 8.46744 29.9909 8.86592 29.9659C9.00432 29.9573 9.11032 29.9151 9.17862 29.8015C9.23599 29.706 9.32377 29.627 9.3459 29.5108C9.3333 29.4993 9.31391 29.4902 9.30927 29.4762C9.30065 29.4507 9.29768 29.4188 9.33517 29.4126C9.34196 29.4114 9.35835 29.4375 9.36147 29.4528C9.36456 29.4694 9.35765 29.4881 9.35523 29.5059Z" fill="#CFCFCF"/>
<path d="M22.9315 34.039C22.7105 33.9648 22.456 33.9481 22.2047 34.0498C21.9072 34.1701 21.7107 34.3993 21.6105 34.6924C21.4272 35.2285 21.4264 35.7736 21.628 36.3065C21.8766 36.9639 22.2902 37.4939 22.8753 37.8921C23.1235 38.0612 23.3694 38.2323 23.6284 38.3845C23.6577 38.4017 23.7179 38.4075 23.6884 38.4669C23.6652 38.5134 23.6174 38.5009 23.5789 38.4974C23.1324 38.4578 22.6883 38.4955 22.2501 38.5695C21.6563 38.6697 21.0849 38.8427 20.5938 39.2141C20.3044 39.4329 20.0911 39.7026 20.0048 40.0635C19.8984 40.5091 20.078 40.8395 20.511 40.9904C20.8632 41.1132 21.2242 41.1019 21.5845 41.0558C21.8299 41.0244 22.0746 40.9782 22.3151 40.9202C22.6872 40.8303 23.0435 40.6903 23.3935 40.5358C23.4497 40.511 23.5008 40.474 23.5522 40.4392C23.8282 40.252 24.0527 40.0145 24.2475 39.7446C24.3551 39.5953 24.3993 39.429 24.4244 39.2539C24.4361 39.1722 24.4347 39.0885 24.4453 39.0064C24.4503 38.9676 24.4595 38.906 24.4836 38.8965C24.6359 38.8359 24.6158 38.7156 24.6203 38.5882C24.625 38.4552 24.6649 38.3232 24.69 38.1909C24.8501 37.3451 24.7675 36.5194 24.4761 35.7137C24.3009 35.2293 24.0218 34.8092 23.6532 34.449C23.4374 34.2385 23.2544 34.1325 22.9315 34.039Z" fill="#CFCFCF"/>
<path d="M8.04972 22.8468C7.96915 22.7772 7.99451 22.6903 7.99237 22.6103C7.97922 22.133 7.93966 21.6588 7.83742 21.1913C7.72411 20.6721 7.56218 20.1709 7.28364 19.7134C7.07058 19.3636 6.80609 19.0653 6.45335 18.8465C6.23175 18.7089 5.99394 18.6493 5.74349 18.6877C5.44791 18.7331 5.23308 18.9048 5.1229 19.1896C5.01633 19.465 4.99253 19.7537 5.00616 20.0455C5.01686 20.2743 5.06511 20.4973 5.14059 20.7138C5.28807 21.1373 5.48876 21.5327 5.75851 21.8931C6.18497 22.4628 6.67997 22.957 7.29431 23.3251C7.38379 23.3787 7.46907 23.4471 7.57564 23.4447C7.68546 23.4422 7.75047 23.4823 7.78739 23.5834C7.80886 23.6425 7.85819 23.6516 7.91393 23.6322C7.93347 23.6254 7.95285 23.6175 7.97118 23.6081C8.37795 23.3992 8.80926 23.2499 9.235 23.0865C9.6029 22.9453 9.95741 22.7732 10.3102 22.5973C10.9838 22.2615 11.4742 21.7426 11.8274 21.087C11.9511 20.8574 12.0331 20.6116 12.0687 20.3523C12.1061 20.0788 12.0376 19.8519 11.8217 19.657C11.4744 19.3434 11.0878 19.2967 10.666 19.4408C10.3158 19.5604 10.0227 19.7751 9.77719 20.0492C9.65325 20.1875 9.5411 20.3379 9.43548 20.4909C8.98159 21.1478 8.56864 21.8292 8.21283 22.5447C8.16238 22.646 8.10514 22.7445 8.04972 22.8468Z" fill="#CFCFCF"/>
<path d="M17.8089 36.4104C17.7099 36.516 17.5987 36.5491 17.4498 36.5198C16.8878 36.4089 16.323 36.3862 15.7505 36.4512C15.0588 36.5296 14.4573 36.7939 13.9434 37.2561C13.6946 37.4799 13.5608 37.7758 13.538 38.1063C13.5138 38.4563 13.6721 38.7283 13.9744 38.9068C14.1357 39.0021 14.3135 39.0646 14.4985 39.0942C15.2172 39.2094 15.8966 39.088 16.5399 38.7484C17.0195 38.4952 17.3867 38.131 17.6553 37.6609C17.7861 37.4319 17.8792 37.1953 17.8834 36.9281C17.8848 36.8388 17.8955 36.7823 18.0433 36.8119C18.0627 36.8158 18.0842 36.8117 18.1044 36.809C18.113 36.8078 18.1275 36.8006 18.1275 36.7961C18.1276 36.7773 18.1299 36.7481 18.1194 36.7414C18.059 36.7029 17.9868 36.6787 17.9357 36.6313C17.9031 36.6011 17.8877 36.539 17.8876 36.4913C17.8876 36.4385 17.95 36.4621 17.9822 36.4454C18.0288 36.4213 18.0748 36.4084 18.1299 36.4261C18.2014 36.449 18.2452 36.4002 18.2829 36.3483C18.3995 36.1871 18.4745 36.0028 18.5459 35.8209C18.8449 35.0576 18.9826 34.2673 18.9125 33.446C18.8824 33.0914 18.8052 32.7491 18.642 32.4312C18.4326 32.0237 18.1255 31.752 17.654 31.6659C17.3334 31.6073 16.8892 31.763 16.6854 32.1371C16.4247 32.6155 16.3106 33.1231 16.3864 33.6654C16.4483 34.109 16.5656 34.5376 16.7684 34.9401C16.8057 35.0141 16.8447 35.0885 16.8706 35.1668C17.0191 35.6152 17.3029 35.9632 17.6643 36.2562C17.7181 36.2992 17.784 36.3343 17.8089 36.4104Z" fill="#CFCFCF"/>
<path d="M11.2135 11.18C11.2183 11.1734 11.2271 11.1667 11.2289 11.1583C11.3349 10.6782 11.562 10.2473 11.7751 9.81045C12.0156 9.3172 12.2317 8.81303 12.4222 8.29886C12.5553 7.93971 12.6591 7.57163 12.688 7.18517C12.7197 6.76277 12.6455 6.36091 12.4783 5.975C12.3728 5.73132 12.203 5.52847 11.9869 5.38564C11.624 5.14557 11.08 5.12774 10.729 5.48275C10.5421 5.67167 10.42 5.8957 10.3345 6.1422C10.1715 6.61303 10.1782 7.09654 10.2255 7.58441C10.2886 8.23454 10.5277 8.82766 10.8047 9.40868C10.9476 9.70868 11.0768 10.0119 11.1279 10.3434C11.1355 10.3931 11.147 10.4492 11.1765 10.4868C11.2293 10.5544 11.215 10.6191 11.2012 10.6917C11.1783 10.8136 11.1602 10.9365 11.1464 11.0598C11.1407 11.1099 11.1463 11.165 11.2135 11.18Z" fill="#CFCFCF"/>
<path d="M8.75202 29.2376C8.40476 28.9588 8.1024 28.6321 7.77741 28.3293C7.58039 28.1459 7.37801 27.9683 7.17474 27.7916C7.12085 27.7449 7.05641 27.7097 6.99407 27.674C6.98253 27.6673 6.95356 27.6789 6.94066 27.6907C6.92801 27.7024 6.9154 27.7298 6.92095 27.7422C6.94137 27.7884 6.96051 27.8409 6.9959 27.8742C7.56018 28.407 8.12605 28.9382 8.69404 29.467C8.76869 29.5364 8.84288 29.6183 8.9537 29.6278C9.04148 29.6353 9.07565 29.6923 9.10881 29.7592C9.20507 29.9542 9.30066 30.1499 9.40087 30.3429C9.77928 31.073 10.25 31.738 10.7876 32.3608C11.2909 32.944 11.8534 33.4591 12.4609 33.9287C12.5426 33.9919 12.62 34.0609 12.6991 34.1271C12.6603 34.1918 12.5963 34.1894 12.5359 34.1974C12.0022 34.2688 11.4685 34.3409 10.9349 34.4122C10.8735 34.4203 10.8109 34.4216 10.7499 34.4323C10.7122 34.439 10.6657 34.4405 10.6593 34.4976C10.6531 34.5526 10.7078 34.6188 10.7733 34.6192C10.8768 34.6197 10.9811 34.6197 11.0835 34.6074C11.6387 34.5411 12.1948 34.481 12.7473 34.3971C12.948 34.3666 13.1017 34.4092 13.2653 34.5198C13.8307 34.9019 14.4171 35.2517 15.0253 35.5614C15.6152 35.8616 16.2187 36.1342 16.8354 36.3762C16.9993 36.4404 17.1617 36.5081 17.3247 36.5746C17.3678 36.5923 17.3794 36.643 17.3463 36.669C17.3222 36.6882 17.2974 36.7071 17.2712 36.7233C16.7512 37.0451 16.2427 37.3866 15.6938 37.6596C15.6754 37.6688 15.6566 37.6779 15.6389 37.6885C15.5997 37.712 15.5801 37.7428 15.6029 37.7893C15.6231 37.8306 15.6625 37.8608 15.7004 37.852C15.7803 37.8331 15.8607 37.8065 15.9329 37.7679C16.2164 37.6166 16.4996 37.4644 16.7772 37.3028C17.0459 37.1461 17.3109 36.9828 17.5704 36.8115C17.6763 36.7417 17.766 36.7276 17.8873 36.7722C18.2761 36.9146 18.6678 37.0498 19.0619 37.1773C19.6525 37.3683 20.2454 37.5526 20.8385 37.7361C21.6192 37.9777 22.4012 38.2154 23.1822 38.4565C23.2711 38.4839 23.358 38.5186 23.4435 38.5553C23.4725 38.5677 23.4787 38.6023 23.4594 38.6305C23.4482 38.6467 23.4297 38.659 23.4128 38.6702C23.0835 38.8865 22.7564 39.106 22.4235 39.3166C22.2663 39.416 22.0976 39.4976 21.9347 39.5883C21.8948 39.6105 21.8706 39.6492 21.8976 39.6893C21.9189 39.7208 21.9568 39.7534 21.9922 39.7601C22.0284 39.767 22.0739 39.7496 22.1097 39.7316C22.2852 39.6426 22.464 39.5584 22.6323 39.4568C22.996 39.237 23.3566 39.0116 23.713 38.7802C23.8397 38.698 23.9543 38.6974 24.0904 38.751C25.2155 39.1945 26.2546 39.788 27.2082 40.5307C27.3466 40.6385 27.4714 40.7638 27.6033 40.8801C27.6423 40.9146 27.6798 40.8951 27.7143 40.8701C27.7452 40.8478 27.7415 40.814 27.728 40.7871C27.7097 40.7506 27.687 40.7143 27.6585 40.6854C27.5566 40.5824 27.458 40.4747 27.3463 40.383C26.7124 39.8633 26.0435 39.3921 25.3246 38.9982C25.0165 38.8293 24.6863 38.701 24.3658 38.5549C24.3187 38.5333 24.2705 38.5141 24.2221 38.4954C24.1347 38.4617 24.1013 38.3987 24.0917 38.3053C24.0508 37.9036 24.0042 37.5025 23.9564 37.1016C23.943 36.9888 23.9223 36.8764 23.8984 36.7654C23.8855 36.7052 23.8621 36.6464 23.837 36.59C23.8204 36.5528 23.7932 36.5128 23.7441 36.5228C23.693 36.5331 23.6918 36.5776 23.698 36.6196C23.7026 36.6502 23.7108 36.6803 23.7171 36.7107C23.8197 37.2093 23.8348 37.7176 23.886 38.222C23.889 38.2505 23.874 38.2805 23.8684 38.3055C23.8104 38.3348 23.7618 38.3111 23.7139 38.294C22.982 38.0335 22.2519 37.7679 21.5182 37.5127C20.8918 37.2947 20.2604 37.0911 19.6331 36.8759C19.1046 36.6946 18.5783 36.5064 18.0514 36.3198C17.9353 36.2787 17.9283 36.272 17.9328 36.1374C17.9469 35.7126 17.9495 35.2878 17.9297 34.8632C17.9211 34.6769 17.9019 34.4912 17.8874 34.3054C17.8832 34.2505 17.8598 34.2058 17.813 34.1764C17.7968 34.1661 17.7727 34.1551 17.7575 34.1602C17.7416 34.1656 17.7233 34.1887 17.7212 34.2059C17.7152 34.2564 17.7142 34.3079 17.7156 34.3591C17.7293 34.8974 17.7356 35.4356 17.7063 35.9736C17.7041 36.0149 17.7034 36.0567 17.6953 36.0968C17.6858 36.1436 17.652 36.1677 17.6054 36.1524C17.5268 36.1267 17.4498 36.096 17.3729 36.0656C16.6886 35.796 16.0145 35.5046 15.363 35.1621C14.8126 34.873 14.2714 34.5689 13.7566 34.2193C13.7052 34.1844 13.6556 34.1464 13.6018 34.1159C13.5307 34.0753 13.5005 34.0252 13.5195 33.9391C13.5621 33.7469 13.6046 33.5541 13.6329 33.3595C13.697 32.9186 13.7526 32.4766 13.811 32.0349C13.8137 32.0147 13.8142 31.9935 13.8118 31.9731C13.8067 31.9293 13.7853 31.892 13.7407 31.8843C13.6909 31.8757 13.6661 31.9125 13.6589 31.9558C13.6245 32.1601 13.5944 32.3653 13.5588 32.5695C13.4948 32.9371 13.4281 33.3042 13.3621 33.6715C13.3565 33.7021 13.3488 33.7323 13.3407 33.7623C13.312 33.8677 13.2737 33.8871 13.1926 33.8256C12.9454 33.6379 12.6955 33.453 12.4566 33.2551C11.5965 32.5425 10.859 31.7204 10.2659 30.772C10.0127 30.3671 9.79668 29.942 9.58589 29.5137C9.51669 29.3729 9.53841 29.2777 9.62729 29.1524C9.81894 28.8826 9.98471 28.5944 10.1643 28.3158C10.2428 28.1941 10.33 28.078 10.4112 27.9579C10.4374 27.919 10.4263 27.8792 10.3965 27.8456C10.3621 27.8069 10.3128 27.8117 10.2854 27.8394C10.2128 27.9127 10.1428 27.9906 10.0837 28.0749C9.89938 28.3378 9.72075 28.6046 9.53936 28.8696C9.49994 28.9273 9.47616 29.0006 9.37651 29.0237C9.27968 28.8227 9.19916 28.6104 9.12156 28.398C8.8005 27.5192 8.59455 26.6117 8.4508 25.6884C8.3326 24.9288 8.28862 24.1657 8.31288 23.398C8.31456 23.3463 8.32308 23.2944 8.31999 23.2429C8.31585 23.174 8.34036 23.1227 8.39555 23.0841C8.92343 22.7154 9.37526 22.2524 9.89457 21.8728C9.91128 21.8605 9.92768 21.8477 9.94294 21.8337C9.97559 21.804 9.99132 21.7695 9.97454 21.7242C9.9574 21.6778 9.90209 21.6641 9.84376 21.7029C9.73168 21.7775 9.61928 21.8526 9.51392 21.936C9.19672 22.1867 8.88327 22.4419 8.56727 22.6942C8.51922 22.7326 8.46793 22.7683 8.41367 22.7972C8.38758 22.8112 8.35151 22.7993 8.3479 22.7611C8.34285 22.7097 8.33953 22.6573 8.34399 22.606C8.41318 21.7994 8.52251 20.999 8.73805 20.2169C8.94462 19.4677 9.15453 18.7192 9.40006 17.9815C9.41963 17.9225 9.43965 17.8637 9.45656 17.8038C9.49736 17.6582 9.58299 17.5571 9.71097 17.4685C10.1548 17.1617 10.5739 16.8221 10.9529 16.4366C11.0613 16.3263 11.1555 16.2016 11.2537 16.0812C11.2869 16.0403 11.3002 15.9905 11.2906 15.9358C11.2821 15.8875 11.2051 15.8475 11.1708 15.8787C11.1251 15.9199 11.0824 15.9648 11.0417 16.011C10.6968 16.4023 10.2897 16.7221 9.87143 17.0292C9.84757 17.0467 9.81786 17.0603 9.78913 17.0653C9.77623 17.0674 9.74727 17.0452 9.74575 17.0317C9.74246 17.0021 9.74714 16.9695 9.75721 16.9413C10.1332 15.8755 10.4752 14.7992 10.7916 13.7141C11.1881 12.355 11.4233 10.9684 11.539 9.55989C11.5772 9.09537 11.6023 8.62973 11.6303 8.1644C11.6364 8.06137 11.6335 7.95724 11.6265 7.85423C11.6241 7.81893 11.6202 7.76852 11.5634 7.7622C11.5036 7.80188 11.5159 7.86938 11.5057 7.92536C11.4061 8.47568 11.3296 9.02931 11.2596 9.58446C11.2052 10.0159 11.1219 10.4438 11.0517 10.8733C10.9429 11.5395 10.7745 12.1926 10.5898 12.8402C10.4079 13.4779 10.1973 14.1075 9.98992 14.7376C9.85053 15.1608 9.69487 15.5786 9.54628 15.9988C9.41491 16.3701 9.28484 16.7419 9.15007 17.1121C9.12746 17.1744 9.11341 17.2505 9.03529 17.281C8.97791 17.2059 8.98951 17.1196 8.9761 17.04C8.88823 16.5193 8.805 15.9977 8.71341 15.4776C8.66476 15.2017 8.58741 14.9323 8.48356 14.6714C8.46075 14.6142 8.44325 14.5525 8.39015 14.5133C8.3646 14.4944 8.33444 14.4793 8.30578 14.5018C8.29267 14.5121 8.28441 14.5357 8.28406 14.5535C8.28354 14.5731 8.2923 14.5941 8.3008 14.6127C8.4386 14.9182 8.50516 15.2436 8.55685 15.5712C8.66654 16.2664 8.76386 16.9637 8.87385 17.6591C8.89623 17.8003 8.86552 17.9256 8.82267 18.0539C8.63205 18.6241 8.45096 19.1971 8.29517 19.778C8.10436 20.4892 7.93512 21.2046 7.86421 21.9394C7.84134 22.1761 7.82178 22.4131 7.79857 22.6499C7.79501 22.6866 7.79966 22.7399 7.74326 22.7387C7.71802 22.7382 7.68471 22.7147 7.66996 22.692C7.33274 22.1698 6.97972 21.656 6.76714 21.0646C6.76014 21.0453 6.75475 21.0249 6.74414 21.0075C6.72062 20.9688 6.68055 20.9481 6.63924 20.9547C6.58795 20.9629 6.58434 21.006 6.59574 21.0498C6.6807 21.3735 6.82444 21.6723 6.99105 21.9599C7.2041 22.3276 7.41683 22.697 7.69923 23.0171C7.78934 23.1194 7.77384 23.2309 7.76969 23.3395C7.75343 23.7543 7.75788 24.1685 7.78503 24.5824C7.85485 25.6507 8.04968 26.6971 8.3346 27.7286C8.47012 28.219 8.66802 28.6867 8.83259 29.1665C8.84526 29.1983 8.882 29.2302 8.84231 29.2643C8.80303 29.2975 8.77662 29.2656 8.75202 29.2376Z" fill="#D0D0D0"/>
</svg>
