<svg width="251" height="166" viewBox="0 0 251 166" fill="none" xmlns="http://www.w3.org/2000/svg">
<path fill-rule="evenodd" clip-rule="evenodd" d="M242.4 68.7002C243.8 68.7002 245.2 69.1002 246.5 69.8002C247.8 70.5002 248.9 71.6002 249.6 72.9002C250.3 74.2002 250.7 75.6002 250.7 77.1002C250.7 78.6002 250.3 79.9002 249.6 81.3002C248.9 82.6002 247.8 83.7002 246.5 84.4002C245.2 85.1002 243.8 85.5002 242.3 85.5002C240.8 85.5002 239.5 85.1002 238.1 84.4002C236.8 83.7002 235.7 82.6002 235 81.3002C234.3 80.0002 233.9 78.6002 233.9 77.1002C233.9 75.6002 234.3 74.2002 235 72.9002C235.8 71.6002 236.8 70.5002 238.1 69.8002C239.4 69.1002 240.8 68.7002 242.2 68.7002H242.4ZM242.4 70.1002C241.2 70.1002 240.1 70.4002 239 71.0002C237.9 71.6002 237 72.5002 236.4 73.6002C235.8 74.7002 235.5 75.9002 235.5 77.1002C235.5 78.3002 235.8 79.5002 236.4 80.6002C237 81.7002 237.9 82.6002 239 83.2002C240.1 83.8002 241.3 84.1002 242.5 84.1002C243.7 84.1002 244.9 83.8002 246 83.2002C247.1 82.6002 248 81.7002 248.6 80.6002C249.2 79.5002 249.5 78.3002 249.5 77.1002C249.5 75.9002 249.2 74.7002 248.6 73.6002C248 72.5002 247.1 71.6002 246 71.0002C244.9 70.4002 243.7 70.1002 242.6 70.1002H242.4ZM238.8 81.7002H240.3V77.9002H241.2C241.7 77.9002 242.1 77.9002 242.4 78.2002C242.8 78.5002 243.3 79.2002 243.9 80.3002L244.7 81.7002H246.5L245.4 79.9002C244.9 79.1002 244.4 78.5002 244.1 78.1002C243.9 77.9002 243.7 77.8002 243.3 77.6002C244.1 77.6002 244.7 77.3002 245.2 76.8002C245.7 76.3002 245.9 75.7002 245.9 75.1002C245.9 74.5002 245.8 74.2002 245.5 73.8002C245.2 73.4002 244.8 73.1002 244.4 72.9002C243.9 72.7002 243.2 72.7002 242.1 72.7002H239V81.7002H238.8ZM240.2 76.6002H242C242.8 76.6002 243.4 76.5002 243.7 76.2002C244 76.0002 244.2 75.6002 244.2 75.2002C244.2 74.8002 244.2 74.7002 244 74.5002C243.9 74.3002 243.6 74.1002 243.4 74.0002C243.1 73.9002 242.7 73.8002 241.9 73.8002H240.2V76.5002V76.6002Z" fill="black"/>
<path fill-rule="evenodd" clip-rule="evenodd" d="M126.3 115.6C126.3 125.3 125.3 132.6 123.3 137.5C121.3 142.4 117.8 147.1 112.9 151.5C107.8 156.2 103.5 159.7 99.8999 162.1C96.2999 164.5 93.5999 165.7 91.7999 165.7C91.1999 165.7 90.6999 165.6 90.2999 165.3C89.7999 165 89.5999 164.7 89.5999 164.4C89.5999 163.5 90.8999 161.5 93.4999 158.6C96.0999 155.7 98.2 153 99.7 150.6C102 146.9 103.6 142.3 104.7 137C105.7 131.7 106.2 123.9 106.2 113.6V76.3002C106.2 73.0002 106.2 70.0002 106 67.6002C105.8 65.1002 105.5 62.8002 105.1 60.5002H97.3999C92.6999 60.5002 89.7999 60.3002 88.7999 60.0002C87.6999 59.7002 87.2 59.1002 87.2 58.2002C87.2 57.0002 88.8999 56.2002 92.3999 55.8002C93.7999 55.7002 94.9999 55.5002 95.8999 55.4002C102.3 54.5002 108.5 53.0002 114.6 51.2002C120.7 49.3002 123.8 48.4002 123.9 48.4002C125 48.4002 125.7 48.6002 126 48.9002C126.3 49.1002 126.4 49.9002 126.4 51.2002V115.6H126.3ZM104.4 12.3002C104.4 9.10017 105.6 6.30018 108 3.90018C110.4 1.50018 113.3 0.200195 116.6 0.200195C119.8 0.200195 122.6 1.40017 125 3.80017C127.4 6.20017 128.6 9.00017 128.6 12.3002C128.6 15.7002 127.4 18.6002 125.1 21.0002C122.8 23.4002 119.9 24.6002 116.6 24.6002C113.2 24.6002 110.4 23.4002 108 21.0002C105.6 18.6002 104.4 15.7002 104.4 12.3002Z" fill="#1E38A1"/>
<path fill-rule="evenodd" clip-rule="evenodd" d="M112.7 129.1C158.9 129.8 196.6 120 196.8 107.4C196.8 101.9 190 96.8002 178.3 92.7002C177.5 94.8002 175.8 96.5002 173.8 97.4002C177.5 99.7002 179.6 102.1 179.5 104.7C179.3 115.5 141.7 123.8 95.3999 123.3C76.4999 123.1 59.2 121.4 45.2 118.8C60.3 124.7 84.9 128.8 112.7 129.2V129.1Z" fill="#02A14C"/>
<path fill-rule="evenodd" clip-rule="evenodd" d="M112.7 106.5C158.9 107.2 196.6 97.3998 196.8 84.7998C196.8 79.8998 191.2 75.1998 181.5 71.2998C180.6 73.6998 178.7 75.6998 176.3 76.5998C178.4 78.3998 179.6 80.1998 179.6 82.0998C179.4 92.8998 141.8 101.2 95.5 100.7C76.6 100.5 59.3 98.7998 45.3 96.1998C60.4 102.1 85 106.2 112.8 106.6L112.7 106.5Z" fill="white" stroke="#4D4D4D" stroke-width="0.2" stroke-miterlimit="2.6"/>
<path fill-rule="evenodd" clip-rule="evenodd" d="M112.7 85.8004C158.9 86.5004 196.6 76.7004 196.8 64.1004C197 51.4004 159.6 40.7004 113.4 40.0004C104.1 39.9004 95.1999 40.2004 86.7999 40.8004C89.7999 40.8004 92.9 40.8004 96.1 40.8004C142.3 41.4004 179.7 50.6004 179.5 61.4004C179.3 72.2004 141.7 80.5004 95.3999 80.0004C76.4999 79.8004 59.2 78.1004 45.2 75.5004C60.3 81.4004 84.9 85.5004 112.7 85.9004V85.8004Z" fill="#F57E16"/>
<path fill-rule="evenodd" clip-rule="evenodd" d="M27.2 91.6998H35.7L27.7 70.1998L27.3 71.1998V66.7998C28.1 64.6998 28.9 62.6998 29.6 60.7998C29.9 59.9998 30.0999 59.0998 30.3999 57.9998C30.6999 56.4998 31.2 55.7998 31.7 55.7998C32.1 55.7998 32.4 56.4998 32.6 57.8998C32.6 58.0998 32.6 58.1998 32.6 58.2998C32.9 59.9998 33.6 62.3998 34.6 65.4998C35.6 68.5998 36.9 72.1998 38.5 76.2998L46.6 96.5998C47.1 97.7998 47.8 99.3998 48.7 101.4C49.6 103.4 50.6 105.6 51.6 108C54.8 108.4 56.8 108.7 57.6 108.9C58.4 109.1 58.7 109.5 58.7 109.9C58.7 110.2 58.5999 110.4 58.3999 110.5C58.1999 110.7 57.9 110.7 57.6 110.7C57.5 110.7 56.1999 110.6 53.8999 110.4C51.4999 110.2 49.2 110.1 46.8 110.1C43.7 110.1 40.3999 110.3 36.8999 110.6C35.9999 110.6 35.4 110.7 35.1 110.7C34.7 110.7 34.4 110.7 34.2 110.5C34 110.3 33.8999 110.1 33.8999 109.9C33.8999 109.5 34.4 109.1 35.3 108.8C36.2 108.5 38.2 108.2 41.2 107.9C40.8 106.2 40.2999 104.1 39.3999 101.7C38.5999 99.2998 37.6 96.4998 36.3 93.2998H27.1V91.4998L27.2 91.6998ZM18.8 91.6998H27.3V93.4998H18.1C16.9 97.3998 15.9999 100.4 15.3999 102.6C14.7999 104.8 14.4 106.6 14.3 108C17.3 108.3 19.2 108.6 20.1 108.9C21 109.2 21.5 109.5 21.5 110C21.5 110.3 21.4 110.5 21.2 110.6C21 110.8 20.6999 110.8 20.3999 110.8C20.0999 110.8 18.9 110.7 16.8 110.5C14.7 110.3 12.7999 110.2 10.8999 110.2C8.99995 110.2 6.99995 110.3 4.89995 110.5C2.79995 110.7 1.59995 110.8 1.39995 110.8C0.999948 110.8 0.699954 110.8 0.499954 110.6C0.299954 110.4 0.199951 110.2 0.199951 110C0.199951 109.6 0.69996 109.2 1.59996 108.9C2.49996 108.6 4.49995 108.3 7.49995 108C9.09995 105.4 10.6 102.6 12.2 99.4998C13.8 96.3998 15.4 92.9998 17.1 89.2998L24.1 73.9998C25.1 71.7998 26.1 69.4998 27 67.2998L27.2 66.6998V71.0998L18.7 91.5998L18.8 91.6998Z" fill="#1E38A1"/>
<path fill-rule="evenodd" clip-rule="evenodd" d="M71.8999 90.1V101.9C71.8999 103.2 71.9 104.4 72 105.4C72 106.4 72.2 107.3 72.3 108.2C74.1 108.6 75.3 108.9 76 109.2C76.7 109.5 77.1 109.8 77.1 110.1C77.1 110.3 77.0999 110.5 76.8999 110.6C76.6999 110.6 76.4 110.7 76 110.7C75.8 110.7 75.4 110.7 74.8 110.7C72.3 110.5 69.9 110.3 67.7 110.3C65.5 110.3 63.1 110.4 60.6 110.7C60 110.7 59.5999 110.7 59.3999 110.7C58.9999 110.7 58.7 110.7 58.5 110.6C58.3 110.6 58.3 110.3 58.3 110.1C58.3 109.7 58.6999 109.4 59.3999 109.2C60.1999 108.9 61.7 108.6 64 108.2C64.1 107.3 64.2 106.4 64.3 105.4C64.3 104.4 64.3999 103.3 64.3999 101.9V100V93.6C64.3999 92.3 64.4 91.2 64.3 90.3C64.3 89.4 64.1 88.5 64 87.6H61.1C59.3 87.6 58.2 87.6 57.8 87.4C57.4 87.3 57.2 87.1 57.2 86.7C57.2 86.2 57.9 85.9 59.2 85.8C59.7 85.8 60.1 85.8 60.5 85.7C62.9 85.3 65.3 84.8 67.6 84.1C69.9 83.4 71 83 71.1 83C71.5 83 71.7999 83 71.8999 83.2C71.9999 83.3 72.1 83.6 72.1 84.1V87.9C75.3 86.5 78.1 85.4 80.5 84.6C82.9 83.8 84.8999 83.4 86.3999 83.4C89.0999 83.4 90.9 84.1 92 85.4C93.1 86.7 93.6 89.2 93.6 92.9V100C93.6 102.2 93.6 103.9 93.7 105C93.7 106.1 93.9 107.1 94.1 108.1C96.4 108.5 97.9 108.8 98.7 109.1C99.5 109.4 99.7999 109.7 99.7999 110C99.7999 110.2 99.8 110.4 99.5 110.5C99.3 110.5 99 110.6 98.6 110.6C98.4 110.6 97.9999 110.6 97.3999 110.6C94.8999 110.4 92.4999 110.2 90.2999 110.2C87.9999 110.2 85.7 110.3 83.1 110.6C82.5 110.6 82.0999 110.6 81.8999 110.6C81.4999 110.6 81.2 110.6 81 110.5C80.8 110.5 80.7 110.2 80.7 110C80.7 109.7 81 109.4 81.8 109.1C82.5 108.8 83.7 108.5 85.5 108.1C85.6 107.2 85.6999 106.3 85.7999 105.3C85.7999 104.3 85.8999 103.2 85.8999 101.8V99.9V94.8C85.8999 91.5 85.5999 89.4 84.8999 88.4C84.1999 87.5 83 87 81.2 87C79.7 87 78.2 87.2 76.7 87.7C75.2 88.2 73.5999 88.9 71.8999 89.9V90.1Z" fill="#1E38A1"/>
<path fill-rule="evenodd" clip-rule="evenodd" d="M137 92.0004C137 90.7004 137 89.6004 136.9 88.7004C136.9 87.8004 136.7 86.9004 136.6 86.0004H133.7C131.9 86.0004 130.8 86.0004 130.4 85.8004C130 85.7004 129.8 85.5004 129.8 85.1004C129.8 84.6004 130.5 84.3004 131.8 84.2004C132.3 84.2004 132.8 84.2004 133.1 84.1004C135.5 83.7004 137.9 83.2004 140.2 82.5004C142.5 81.8004 143.7 81.4004 143.7 81.4004C144.1 81.4004 144.3 81.4004 144.5 81.6004C144.6 81.7004 144.7 82.0004 144.7 82.5004V98.3004C144.7 101.6 145 103.7 145.7 104.7C146.4 105.6 147.6 106.1 149.4 106.1C151.2 106.1 152.5 105.9 153.9 105.4C155.4 104.9 156.9 104.2 158.6 103.2V92.1004C158.6 90.8004 158.6 89.7004 158.5 88.8004C158.5 87.9004 158.3 87.0004 158.2 86.1004H155.3C153.5 86.1004 152.4 86.1004 152 85.9004C151.6 85.8004 151.4 85.6004 151.4 85.2004C151.4 84.7004 152.1 84.4004 153.4 84.3004C153.9 84.3004 154.4 84.3004 154.7 84.2004C157.1 83.8004 159.5 83.3004 161.8 82.6004C164.1 81.9004 165.2 81.5004 165.3 81.5004C165.7 81.5004 166 81.5004 166.1 81.7004C166.2 81.8004 166.3 82.1004 166.3 82.6004V100.4C166.3 101.7 166.3 102.9 166.4 103.9C166.4 104.9 166.6 105.8 166.7 106.7C169 107.1 170.5 107.4 171.3 107.7C172.1 108 172.4 108.3 172.4 108.6C172.4 108.8 172.4 109 172.2 109.1C172 109.1 171.7 109.2 171.3 109.2C171.2 109.2 170.3 109.2 168.5 109C166.8 108.9 165.1 108.8 163.6 108.8C162.9 108.8 162.2 108.8 161.3 108.8C160.5 108.8 159.6 108.8 158.6 109V105.3C155.4 106.8 152.7 107.9 150.2 108.6C147.8 109.4 145.8 109.8 144.3 109.8C141.6 109.8 139.8 109.1 138.7 107.8C137.6 106.5 137.1 104 137.1 100.3V92.0004H137Z" fill="#1E38A1"/>
<path fill-rule="evenodd" clip-rule="evenodd" d="M188.7 88.5004V100.3C188.7 101.6 188.7 102.8 188.8 103.8C188.8 104.8 189 105.7 189.1 106.6C190.7 107 191.7 107.4 192.3 107.6C192.9 107.9 193.2 108.2 193.2 108.5C193.2 108.7 193.2 108.9 192.9 109C192.7 109 192.4 109.1 192 109.1C192 109.1 191.1 109.1 189.3 108.9C187.5 108.8 185.8 108.7 184 108.7C182.3 108.7 180.5 108.7 178.7 108.9C176.9 109 176 109.1 175.9 109.1C175.5 109.1 175.2 109.1 175 109C174.8 109 174.8 108.7 174.8 108.5C174.8 108.1 175.2 107.8 175.9 107.6C176.7 107.3 178.2 107 180.5 106.6C180.6 105.7 180.7 104.8 180.8 103.8C180.8 102.8 180.9 101.7 180.9 100.3V92.0004C180.9 90.7004 180.9 89.6004 180.8 88.7004C180.8 87.8004 180.6 86.9004 180.5 86.0004H177.6C175.8 86.0004 174.7 86.0004 174.3 85.8004C173.9 85.7004 173.7 85.5004 173.7 85.1004C173.7 84.6004 174.4 84.3004 175.7 84.2004C176.2 84.2004 176.6 84.2004 177 84.1004C179.4 83.7004 181.8 83.2004 184.1 82.5004C186.4 81.8004 187.5 81.4004 187.6 81.4004C188 81.4004 188.3 81.4004 188.4 81.6004C188.5 81.7004 188.6 82.0004 188.6 82.5004V86.3004C192 84.7004 194.8 83.6004 197 82.9004C199.2 82.2004 201 81.8004 202.3 81.8004C204.1 81.8004 205.6 82.2004 206.8 83.0004C208 83.8004 208.7 85.0004 209 86.5004C212.4 84.9004 215.2 83.7004 217.5 82.9004C219.7 82.2004 221.5 81.8004 222.9 81.8004C225.5 81.8004 227.3 82.5004 228.4 83.8004C229.5 85.1004 230 87.6004 230 91.3004V98.4004C230 100.6 230 102.3 230.1 103.4C230.1 104.5 230.3 105.5 230.5 106.5C232.8 106.9 234.3 107.2 235.1 107.5C235.9 107.8 236.2 108.1 236.2 108.4C236.2 108.6 236.2 108.8 235.9 108.9C235.7 108.9 235.4 109 235 109C235 109 234 109 232.3 108.8C230.5 108.7 228.8 108.6 227.1 108.6C225.3 108.6 223.6 108.6 221.8 108.8C220 108.9 219.2 109 219.2 109C218.7 109 218.4 109 218.3 108.9C218.1 108.9 218 108.6 218 108.4C218 108.1 218.3 107.8 218.9 107.5C219.5 107.2 220.5 106.9 222 106.5C222.2 105.5 222.3 104.5 222.4 103.4C222.4 102.3 222.5 100.6 222.5 98.4004V93.3004C222.5 90.1004 222.2 88.0004 221.5 87.0004C220.8 86.0004 219.6 85.5004 217.9 85.5004C216.7 85.5004 215.4 85.7004 214 86.2004C212.6 86.7004 211.1 87.4004 209.3 88.4004V100.2C209.3 101.5 209.3 102.7 209.4 103.7C209.4 104.7 209.6 105.6 209.8 106.5C211.3 106.9 212.4 107.2 213 107.5C213.6 107.8 213.9 108.1 213.9 108.4C213.9 108.6 213.9 108.8 213.7 108.9C213.5 108.9 213.2 109 212.7 109C212.5 109 211.6 109 210 108.8C208.4 108.7 206.9 108.6 205.5 108.6C204.1 108.6 202.6 108.6 201 108.8C199.4 108.9 198.5 109 198.4 109C198 109 197.7 109 197.5 108.9C197.3 108.9 197.2 108.6 197.2 108.4C197.2 108.1 197.5 107.8 198.1 107.6C198.7 107.3 199.8 107 201.3 106.5C201.4 105.6 201.5 104.7 201.6 103.7C201.6 102.7 201.7 101.6 201.7 100.2V93.2004C201.7 90.0004 201.4 87.9004 200.7 86.9004C200 85.9004 198.8 85.4004 197.1 85.4004C195.9 85.4004 194.6 85.6004 193.2 86.1004C191.8 86.6004 190.2 87.3004 188.5 88.3004L188.7 88.5004Z" fill="#1E38A1"/>
</svg>
