<svg width="55" height="61" viewBox="0 0 55 61" fill="none" xmlns="http://www.w3.org/2000/svg">
<path d="M35.8887 2.5625L37.5542 6.3125H17.5684L19.2338 2.5625H35.8887Z" fill="#A0D468"/>
<path d="M38.3871 6.3125C39.3031 6.3125 40.0526 7.15625 40.0526 8.1875V10.0625C40.0526 11.0938 39.3031 11.9375 38.3871 11.9375H35.8888H19.234H16.7358C15.8198 11.9375 15.0703 11.0938 15.0703 10.0625V8.1875C15.0703 7.15625 15.8198 6.3125 16.7358 6.3125H17.5685H37.5543H38.3871Z" fill="#95A834"/>
<path d="M42.551 47.5625V53.1875C42.551 56.2906 40.3109 58.8125 37.5545 58.8125H17.5687C14.8123 58.8125 12.5723 56.2906 12.5723 53.1875V47.5625H42.551Z" fill="#FEF1D2"/>
<path d="M42.551 28.8125H12.5723V19.4375C12.5723 15.2937 15.5535 11.9375 19.2342 11.9375H35.889C39.5697 11.9375 42.551 15.2937 42.551 19.4375V28.8125Z" fill="#FEF1D2"/>
<path d="M51.8108 29.6375C51.3611 29.1312 50.7365 28.8125 50.0454 28.8125H5.07733C3.69498 28.8125 2.5791 27.5562 2.5791 26V44.75C2.5791 46.3062 3.69498 47.5625 5.07733 47.5625H47.5471V34.4375H50.0454C51.4277 34.4375 52.5436 33.1813 52.5436 31.625C52.5436 30.8469 52.2604 30.1437 51.8108 29.6375Z" fill="#FFF4DF"/>
<path d="M52.5433 31.625V50.375C52.5433 51.9312 51.4274 53.1875 50.0451 53.1875H47.5469V47.5625V34.4375H50.0451C51.4274 34.4375 52.5433 33.1812 52.5433 31.625Z" fill="#FFF4DF"/>
<path d="M9.24103 23.1875V28.8125H5.07733C3.69498 28.8125 2.5791 27.5563 2.5791 26C2.5791 25.2219 2.86223 24.5187 3.31191 24.0125C3.76159 23.5062 4.38615 23.1875 5.07733 23.1875H9.24103Z" fill="#FFF4DF"/>
<path d="M19.2344 40.0625H32.5582V43.8125H19.2344V40.0625Z" fill="#95A834"/>
<path d="M19.2344 32.5625H32.5582V36.3125H19.2344V32.5625Z" fill="#95A834"/>
<path d="M39.2197 40.0625H44.2162V43.8125H39.2197V40.0625Z" fill="#B45220"/>
<path d="M39.2197 32.5625H44.2162V36.3125H39.2197V32.5625Z" fill="#B45220"/>
<path d="M2.5791 32.5625H12.572V43.8125H2.5791V32.5625Z" fill="#B45220"/>
<path d="M50.0451 27.875H43.3832V19.4375C43.3832 16.4356 41.98 13.8022 39.8765 12.3069C40.4852 11.7931 40.8849 10.9822 40.8849 10.0625V8.1875C40.8849 6.63688 39.7641 5.375 38.3867 5.375H38.0686L36.4031 1.625H18.719L17.0535 5.375H16.7354C15.3581 5.375 14.2372 6.63688 14.2372 8.1875V10.0625C14.2372 10.9822 14.6369 11.7931 15.2457 12.3069C13.1422 13.8022 11.739 16.4356 11.739 19.4375V27.875H10.0735V22.25H5.07706C3.24003 22.25 1.74609 23.9319 1.74609 26V44.75C1.74609 46.8181 3.24003 48.5 5.07706 48.5H11.739V53.1875C11.739 56.8063 14.3546 59.75 17.5682 59.75H37.554C40.7675 59.75 43.3832 56.8063 43.3832 53.1875V48.5H46.7141V54.125H50.0451C51.8821 54.125 53.3761 52.4431 53.3761 50.375V31.625C53.3761 29.5569 51.8821 27.875 50.0451 27.875ZM24.2301 7.25V11H20.8991V7.25H24.2301ZM25.8956 7.25H29.2266V11H25.8956V7.25ZM30.892 7.25H34.223V11H30.892V7.25ZM39.2195 8.1875V10.0625C39.2195 10.5791 38.8464 11 38.3867 11H35.8885V7.25H38.3867C38.8464 7.25 39.2195 7.67094 39.2195 8.1875ZM19.7483 3.5H35.3739L36.2066 5.375H18.9156L19.7483 3.5ZM16.7354 11C16.2758 11 15.9027 10.5791 15.9027 10.0625V8.1875C15.9027 7.67094 16.2758 7.25 16.7354 7.25H19.2337V11H16.7354ZM13.4045 19.4375C13.4045 15.8188 16.0201 12.875 19.2337 12.875H35.8885C39.102 12.875 41.7177 15.8188 41.7177 19.4375V27.875H13.4045V19.4375ZM5.07706 24.125H8.40802V27.875H5.07706C4.15855 27.875 3.41158 27.0341 3.41158 26C3.41158 24.9659 4.15855 24.125 5.07706 24.125ZM3.41158 37.25H5.07706V39.125H3.41158V37.25ZM6.74254 37.25H8.40802V39.125H6.74254V37.25ZM3.41158 41H5.07706V42.875H3.41158V41ZM6.74254 41H8.40802V42.875H6.74254V41ZM10.0735 41H11.739V42.875H10.0735V41ZM11.739 39.125H10.0735V37.25H11.739V39.125ZM11.739 35.375H10.0735V33.5H11.739V35.375ZM8.40802 35.375H6.74254V33.5H8.40802V35.375ZM5.07706 35.375H3.41158V33.5H5.07706V35.375ZM41.7177 53.1875C41.7177 55.7722 39.8498 57.875 37.554 57.875H17.5682C15.2723 57.875 13.4045 55.7722 13.4045 53.1875V48.5H41.7177V53.1875ZM51.7106 50.375C51.7106 51.4091 50.9636 52.25 50.0451 52.25H48.3796V35.375H50.0451C50.6513 35.375 51.2201 35.1922 51.7106 34.8716V50.375ZM50.0451 33.5H46.7141V46.625H36.7212V44.75H35.0557V46.625H16.7354V44.75H15.07V46.625H5.07706C4.15855 46.625 3.41158 45.7841 3.41158 44.75H13.4045V31.625H3.41158V29.2288C3.90373 29.5513 4.46749 29.75 5.07706 29.75H15.07V31.625H16.7354V29.75H35.0557V31.625H36.7212V29.75H50.0451C50.9636 29.75 51.7106 30.5909 51.7106 31.625C51.7106 32.6591 50.9636 33.5 50.0451 33.5Z" fill="black"/>
<path d="M35.8888 14.75H33.3906V16.625H35.8888C37.2662 16.625 38.3871 17.8869 38.3871 19.4375V22.25H40.0526V19.4375C40.0526 16.8528 38.1847 14.75 35.8888 14.75Z" fill="black"/>
<path d="M38.3867 24.125H40.0522V26H38.3867V24.125Z" fill="black"/>
<path d="M15.0703 41H16.7358V42.875H15.0703V41Z" fill="black"/>
<path d="M15.0703 33.5H16.7358V35.375H15.0703V33.5Z" fill="black"/>
<path d="M15.0703 37.25H16.7358V39.125H15.0703V37.25Z" fill="black"/>
<path d="M35.0557 33.5H36.7211V35.375H35.0557V33.5Z" fill="black"/>
<path d="M35.0557 37.25H36.7211V39.125H35.0557V37.25Z" fill="black"/>
<path d="M35.0557 41H36.7211V42.875H35.0557V41Z" fill="black"/>
<path d="M38.3867 37.25H45.0486V31.625H38.3867V37.25ZM40.0522 33.5H43.3832V35.375H40.0522V33.5Z" fill="black"/>
<path d="M38.3867 44.75H45.0486V39.125H38.3867V44.75ZM40.0522 41H43.3832V42.875H40.0522V41Z" fill="black"/>
<path d="M18.4014 37.25H33.3907V31.625H18.4014V37.25ZM20.0668 33.5H31.7252V35.375H20.0668V33.5Z" fill="black"/>
<path d="M18.4014 44.75H33.3907V39.125H18.4014V44.75ZM20.0668 41H31.7252V42.875H20.0668V41Z" fill="black"/>
</svg>
