<svg width="54" height="60" viewBox="0 0 54 60" fill="none" xmlns="http://www.w3.org/2000/svg">
<path d="M52.0505 29.867V39.5014C52.0505 41.6294 50.3247 43.3552 48.1967 43.3552H37.0148H37.0136C36.7787 42.9156 36.8582 42.3724 37.2135 42.0184C37.2171 42.0136 37.2207 42.01 37.2255 42.0063C37.588 41.6426 38.1492 41.568 38.5948 41.8245L38.9055 42.0039L41.7958 36.9988L41.4887 36.8206C41.0432 36.5641 40.8276 36.0402 40.9601 35.5452C40.9625 35.538 40.9637 35.532 40.9661 35.526C41.0986 35.0298 41.5478 34.6842 42.0608 34.6842H42.4161V28.9035H42.0608C41.5478 28.9035 41.0986 28.5579 40.9661 28.0617C40.9637 28.0557 40.9625 28.0497 40.9601 28.0424C40.8276 27.5475 41.0432 27.0236 41.4887 26.7671L41.7958 26.5888L41.4635 26.0132H48.1967C50.3247 26.0132 52.0505 27.739 52.0505 29.867Z" fill="#AAB2BD"/>
<path d="M16.7882 42.0184C17.1435 42.3724 17.223 42.9156 16.9881 43.3552H16.9869H5.80494C3.67694 43.3552 1.95117 41.6294 1.95117 39.5014V29.867C1.95117 27.739 3.67694 26.0132 5.80494 26.0132H12.5382L12.2058 26.5888L12.5129 26.7671C12.9585 27.0236 13.1741 27.5475 13.0416 28.0424C13.0392 28.0497 13.038 28.0557 13.0356 28.0617C12.9031 28.5579 12.4539 28.9035 11.9409 28.9035H11.5856V34.6842H11.9409C12.4539 34.6842 12.9031 35.0298 13.0356 35.526C13.038 35.532 13.0392 35.538 13.0416 35.5452C13.1741 36.0402 12.9585 36.5641 12.5129 36.8206L12.2058 36.9988L15.0962 42.0039L15.4069 41.8245C15.8525 41.568 16.4137 41.6426 16.7762 42.0063C16.781 42.01 16.7846 42.0136 16.7882 42.0184Z" fill="#AAB2BD"/>
<path d="M35.7467 44.5439L39.5258 55.8801L33.7451 53.9532L30.8235 57.9587L26.9697 47.297L27.001 47.2091H29.8914V46.8538C29.8914 46.3408 30.237 45.8916 30.7332 45.7591C30.7392 45.7567 30.7452 45.7555 30.7524 45.7531C31.2474 45.6206 31.7713 45.8362 32.0278 46.2818L32.206 46.5889L35.7467 44.5439Z" fill="#F29ED0"/>
<path d="M26.9377 47.2091L26.969 47.297L23.1779 57.9587L20.2562 53.9532L14.4756 55.8801L18.2547 44.5439L21.7953 46.5889L21.9736 46.2818C22.2301 45.8362 22.754 45.6206 23.2489 45.7531C23.2562 45.7555 23.2622 45.7567 23.2682 45.7591C23.7644 45.8916 24.11 46.3408 24.11 46.8538V47.2091H26.9377Z" fill="#F29ED0"/>
<path d="M42.4161 28.9037V34.6843H42.0609C41.5478 34.6843 41.0986 35.03 40.9661 35.5261C40.9637 35.5322 40.9625 35.5382 40.9601 35.5454C40.8276 36.0404 41.0432 36.5642 41.4888 36.8208L41.7959 36.999L38.9056 42.0041L38.5949 41.8246C38.1493 41.5681 37.5881 41.6428 37.2256 42.0065C37.2208 42.0101 37.2171 42.0137 37.2135 42.0185C36.8583 42.3726 36.7788 42.9157 37.0136 43.3553H37.0148C37.0196 43.3662 37.0257 43.377 37.0317 43.3878L37.2111 43.6985L35.7467 44.544L32.206 46.5889L32.0278 46.2818C31.7713 45.8362 31.2474 45.6206 30.7524 45.7531C30.7452 45.7555 30.7392 45.7567 30.7332 45.7591C30.237 45.8916 29.8914 46.3408 29.8914 46.8538V47.2091H27.001H26.9384H24.1107V46.8538C24.1107 46.3408 23.7651 45.8916 23.2689 45.7591C23.2629 45.7567 23.2569 45.7555 23.2496 45.7531C22.7547 45.6206 22.2308 45.8362 21.9743 46.2818L21.796 46.5889L18.2554 44.544L16.7909 43.6985L16.9704 43.3878C16.9764 43.377 16.9824 43.3662 16.9872 43.3553H16.9884C17.2233 42.9157 17.1438 42.3726 16.7885 42.0185C16.7849 42.0137 16.7813 42.0101 16.7765 42.0065C16.414 41.6428 15.8528 41.5681 15.4072 41.8246L15.0965 42.0041L12.2062 36.999L12.5133 36.8208C12.9588 36.5642 13.1744 36.0404 13.0419 35.5454C13.0395 35.5382 13.0383 35.5322 13.0359 35.5261C12.9034 35.03 12.4542 34.6843 11.9412 34.6843H11.5859V28.9037H11.9412C12.4542 28.9037 12.9034 28.558 13.0359 28.0619C13.0383 28.0558 13.0395 28.0498 13.0419 28.0426C13.1744 27.5476 12.9588 27.0238 12.5133 26.7672L12.2062 26.589L12.5385 26.0133L15.0965 21.5839L15.4072 21.7634C15.8528 22.0199 16.414 21.9452 16.7765 21.5815C16.7813 21.5779 16.7849 21.5743 16.7885 21.5695C17.1522 21.207 17.2269 20.6458 16.9704 20.2002L16.7909 19.8895L21.796 16.9991L21.9731 17.3038C22.2296 17.7494 22.7547 17.9674 23.2508 17.8337L23.2689 17.8289C23.7651 17.6964 24.1107 17.2472 24.1107 16.733V16.3789H29.8914V16.7342C29.8914 17.2472 30.237 17.6964 30.7332 17.8289C30.7392 17.8313 30.7452 17.8325 30.7524 17.8349C31.2474 17.9674 31.7713 17.7518 32.0278 17.3062L32.206 16.9991L37.2111 19.8895L37.0317 20.2002C36.7752 20.6458 36.8498 21.207 37.2135 21.5695C37.2171 21.5743 37.2208 21.5779 37.2256 21.5815C37.5881 21.9452 38.1493 22.0199 38.5949 21.7634L38.9056 21.5839L41.4635 26.0133L41.7959 26.589L41.4888 26.7672C41.0432 27.0238 40.8276 27.5476 40.9601 28.0426C40.9625 28.0498 40.9637 28.0558 40.9661 28.0619C41.0986 28.558 41.5478 28.9037 42.0609 28.9037H42.4161Z" fill="#48CFAD"/>
<path d="M27.0002 21.1958C32.8531 21.1958 37.5981 25.9408 37.5981 31.7937C37.5981 37.6466 32.8531 42.3916 27.0002 42.3916C21.1473 42.3916 16.4023 37.6466 16.4023 31.7937C16.4023 25.9408 21.1473 21.1958 27.0002 21.1958Z" fill="#5CD6B3"/>
<path d="M32.781 28.9034V35.6475C32.781 36.1798 32.3499 36.6109 31.8176 36.6109H22.1832C21.6509 36.6109 21.2197 36.1798 21.2197 35.6475V28.9034L25.0735 30.8303L27.0004 27.9399L28.9273 30.8303L32.781 28.9034Z" fill="#FCD770"/>
<path d="M43.3794 6.74427L41.4525 9.6346L42.416 12.5249L39.5256 11.5615L36.6353 12.5249L37.5988 9.6346L35.6719 6.74427H38.5622L39.5256 4.81738L40.4891 6.74427H43.3794Z" fill="#FCD770"/>
<path d="M30.854 6.74427L28.9271 9.6346L29.8906 12.5249L27.0003 11.5615L24.1099 12.5249L25.0734 9.6346L23.1465 6.74427H26.0368L27.0003 4.81738L27.9637 6.74427H30.854Z" fill="#FCD770"/>
<path d="M18.3296 6.74427L16.4027 9.6346L17.3662 12.5249L14.4758 11.5615L11.5855 12.5249L12.549 9.6346L10.6221 6.74427H13.5124L14.4758 4.81738L15.4393 6.74427H18.3296Z" fill="#FCD770"/>
<path d="M27.0008 20.2324C20.6258 20.2324 15.4395 25.4188 15.4395 31.7937C15.4395 38.1687 20.6258 43.3551 27.0008 43.3551C33.3758 43.3551 38.5621 38.1687 38.5621 31.7937C38.5621 25.4188 33.3758 20.2324 27.0008 20.2324ZM27.0008 41.4282C21.6883 41.4282 17.3663 37.1062 17.3663 31.7937C17.3663 26.4813 21.6883 22.1593 27.0008 22.1593C32.3132 22.1593 36.6352 26.4813 36.6352 31.7937C36.6352 37.1062 32.3132 41.4282 27.0008 41.4282Z" fill="black"/>
<path d="M27 26.2031L24.7432 29.5882L20.2559 27.3446V35.6475C20.2559 36.71 21.1203 37.5744 22.1827 37.5744H31.8172C32.8796 37.5744 33.7441 36.71 33.7441 35.6475V27.3446L29.2567 29.5883L27 26.2031ZM31.8172 35.6475H22.1827V30.4623L25.4029 32.0723L27 29.6768L28.597 32.0724L31.8172 30.4623V35.6475Z" fill="black"/>
<path d="M49.1595 25.1465V8.67099C49.1595 3.88978 45.2697 0 40.4885 0H13.5121C8.73086 0 4.84108 3.88978 4.84108 8.67099V25.1465C2.64503 25.5941 0.987305 27.5404 0.987305 29.8667V39.5012C0.987305 42.1574 3.14831 44.3184 5.80452 44.3184H15.9367L17.0915 44.9851L12.9522 57.403L19.8928 55.0894L23.4746 59.9999L26.9765 50.1512L30.5327 59.9907L34.1078 55.0894L41.0485 57.403L36.9092 44.9851L38.064 44.3184H48.196C50.8522 44.3184 53.0132 42.1574 53.0132 39.5012V29.8667C53.0132 27.5404 51.3555 25.5941 49.1595 25.1465ZM13.5121 1.92689H40.4885C44.2073 1.92689 47.2326 4.95222 47.2326 8.67099V25.0495H42.0189L39.2576 20.2668L38.1117 20.9284C38.0462 20.9661 37.9627 20.9556 37.9079 20.9024C37.9024 20.8968 37.8969 20.8913 37.8914 20.8859C37.8383 20.8312 37.8274 20.7479 37.8654 20.682L38.527 19.5362L31.8518 15.6823L31.1925 16.8245C31.1543 16.8908 31.075 16.9234 31.0009 16.9033L30.9804 16.8978C30.9058 16.878 30.8538 16.8103 30.8538 16.7336V15.4151H23.1463V16.7326C23.1463 16.8102 23.094 16.8781 23.0204 16.8978L23.0011 16.903C22.9256 16.9231 22.8455 16.8901 22.8064 16.8223L22.1484 15.6823L15.4732 19.5362L16.1348 20.6821C16.1727 20.7479 16.162 20.8312 16.1088 20.8859C16.1032 20.8913 16.0978 20.8968 16.0923 20.9024C16.0375 20.9555 15.954 20.9661 15.8884 20.9284L14.7426 20.2668L11.9816 25.0495H6.76796V8.67099C6.76796 4.95222 9.7933 1.92689 13.5121 1.92689ZM40.5244 37.2725L38.5079 40.7653C37.8143 40.6023 37.0652 40.8018 36.541 41.3268L36.5314 41.3363C36.0081 41.8591 35.8093 42.6077 35.972 43.3011L32.4791 45.3176C31.9606 44.8323 31.2163 44.631 30.5095 44.8206L30.4838 44.8275C29.7704 45.0179 29.2244 45.5648 29.0175 46.2452H24.9832C24.7766 45.5648 24.2323 45.0183 23.5262 44.83L23.499 44.8226C22.7861 44.6312 22.0403 44.832 21.5213 45.3175L18.0285 43.301C18.1912 42.6073 17.9918 41.8584 17.467 41.3341L17.4575 41.3245C16.9347 40.8011 16.1863 40.6025 15.4927 40.7651L13.4762 37.2723C13.9616 36.7534 14.1629 36.0091 13.9732 35.3026L13.9663 35.277C13.7759 34.5635 13.2289 34.0175 12.5486 33.8106V29.7763C13.2289 29.5698 13.7754 29.0254 13.9638 28.3193L13.9711 28.2921C14.1625 27.5794 13.9616 26.8336 13.4763 26.3144L15.4928 22.8216C16.1861 22.9845 16.9354 22.785 17.4597 22.2601L17.4693 22.2506C17.9926 21.7278 18.1914 20.9792 18.0287 20.2858L21.5221 18.2689C22.0416 18.7539 22.7867 18.9548 23.4985 18.7644L23.5178 18.7593C24.2304 18.5686 24.7758 18.0217 24.9829 17.3417H29.0175C29.224 18.0221 29.7684 18.5686 30.4745 18.7569L30.5017 18.7643C31.2144 18.9555 31.9602 18.7547 32.4794 18.2694L35.9722 20.2859C35.8095 20.9796 36.0088 21.7285 36.5337 22.2528L36.5432 22.2624C37.066 22.7858 37.8144 22.9846 38.508 22.8218L40.5245 26.3146C40.039 26.8335 39.8378 27.5778 40.0275 28.2843L40.0343 28.3099C40.2247 29.0234 40.7717 29.5694 41.452 29.7763V33.8106C40.7717 34.0171 40.2252 34.5615 40.0369 35.2676L40.0295 35.2948C39.8382 36.0075 40.039 36.7534 40.5244 37.2725ZM2.91419 39.5012V29.8667C2.91419 28.2731 4.21087 26.9764 5.80452 26.9764H10.9487L12.0313 27.6012C12.0976 27.6395 12.13 27.7184 12.11 27.7928L12.1046 27.8133C12.0847 27.8878 12.017 27.9399 11.9403 27.9399H10.6217V35.6474H11.9403C12.0172 35.6474 12.0847 35.6994 12.1065 35.7807L12.11 35.7943C12.13 35.8688 12.0975 35.9475 12.0313 35.9859L10.8891 36.6453L14.2066 42.3915H5.80452C4.21087 42.3915 2.91419 41.0948 2.91419 39.5012ZM22.8813 55.9169L20.6196 52.8162L15.999 54.3564L18.7949 45.9687L22.1486 47.9049L22.808 46.7628C22.8461 46.6963 22.925 46.6637 22.9996 46.684L23.0201 46.6894C23.0946 46.7093 23.1466 46.777 23.1466 46.8537V48.1722H25.6352L22.8813 55.9169ZM38.0017 54.3564L33.381 52.8162L31.1126 55.9261L28.3101 48.1722H30.854V46.8536C30.854 46.7767 30.9061 46.7092 30.9874 46.6874L31.001 46.6839C31.0756 46.6637 31.1543 46.6964 31.1926 46.7626L31.8519 47.9048L35.2057 45.9685L38.0017 54.3564ZM51.0864 39.5012C51.0864 41.0948 49.7897 42.3915 48.196 42.3915H39.794L43.1115 36.6453L41.9693 35.9859C41.9029 35.9476 41.8705 35.8688 41.8905 35.7943L41.896 35.7739C41.9158 35.6993 41.9835 35.6473 42.0602 35.6473H43.3788V27.9397H42.0602C41.9834 27.9397 41.9158 27.8877 41.894 27.8064L41.8905 27.7928C41.8705 27.7184 41.9031 27.6396 41.9693 27.6012L43.0518 26.9764H48.196C49.7897 26.9764 51.0864 28.2731 51.0864 29.8667V39.5012Z" fill="black"/>
<path d="M22.587 14.0478L27.0006 12.5767L31.4143 14.048L29.9906 9.77654L32.6546 5.78042H28.5595L27.0006 2.6626L25.4418 5.78042H21.3467L24.0107 9.77654L22.587 14.0478ZM26.6326 7.70731L27.0006 6.97136L27.3687 7.70731H29.0542L27.8645 9.49185L28.3677 11.0011L27.0006 10.5455L25.6336 11.0011L26.1368 9.49185L24.9471 7.70731H26.6326Z" fill="black"/>
<path d="M35.1114 14.0478L39.5251 12.5767L43.9387 14.048L42.515 9.77654L45.179 5.78042H41.0839L39.5251 2.6626L37.9662 5.78042H33.8711L36.5351 9.77654L35.1114 14.0478ZM39.157 7.70731L39.5251 6.97136L39.8931 7.70731H41.5786L40.3889 9.49185L40.8921 11.0011L39.5251 10.5455L38.1581 11.0011L38.6612 9.49185L37.4715 7.70731H39.157Z" fill="black"/>
<path d="M10.0616 14.0478L14.4753 12.5767L18.8889 14.048L17.4652 9.77654L20.1292 5.78042H16.0341L14.4753 2.6626L12.9164 5.78042H8.82129L11.4853 9.77654L10.0616 14.0478ZM14.1072 7.70731L14.4753 6.97136L14.8433 7.70731H16.5288L15.3391 9.49185L15.8423 11.0011L14.4753 10.5455L13.1083 11.0011L13.6114 9.49185L12.4217 7.70731H14.1072Z" fill="black"/>
</svg>
