<svg width="1512" height="220" viewBox="0 0 1512 220" fill="none" xmlns="http://www.w3.org/2000/svg">
<path d="M1495.89 113.312C1481.96 115.603 1468.32 118.155 1452.91 119.19C1442.98 119.856 1433.24 120.895 1423.27 121.42C1409.63 122.138 1395.85 122.517 1382.14 123.064C1377.57 123.246 1373.04 123.562 1368.46 123.704C1360.42 123.955 1352.34 124.051 1344.3 124.334C1333.5 124.716 1322.74 125.233 1311.95 125.657C1295.68 126.297 1279.38 126.874 1263.11 127.538C1245.94 128.239 1228.77 128.995 1211.62 129.754C1196.28 130.432 1180.94 131.125 1165.62 131.85C1157.24 132.247 1148.91 132.75 1140.53 133.156C1133.6 133.49 1126.67 133.819 1119.71 134.03C1106.69 134.425 1093.66 134.784 1080.62 135.061C1069.06 135.307 1057.48 135.444 1045.91 135.585C1040.2 135.654 1034.48 135.664 1028.77 135.629C1012.38 135.528 995.986 135.464 979.608 135.24C968.965 135.095 958.344 134.728 947.73 134.4C935.624 134.026 923.462 133.753 911.459 133.13C894.532 132.252 877.775 130.985 860.852 130.094C848.86 129.463 836.734 128.912 824.63 128.804C806.816 128.644 788.971 128.884 771.14 129.001C752.001 129.127 732.867 129.32 713.73 129.459C694.957 129.597 676.183 129.748 657.408 129.813C636.959 129.884 616.511 129.878 596.061 129.873C584.087 129.871 572.108 129.883 560.144 129.747C547.279 129.602 534.432 129.283 521.573 129.053C495.987 128.594 470.377 128.328 444.825 129.103C427.404 129.632 410.036 130.396 392.682 131.163C376.98 131.857 361.368 132.81 345.644 133.435C335.053 133.856 324.343 134.022 313.675 134.092C298.012 134.195 282.452 133.6 266.891 133.009C252.987 132.481 239.008 132.195 225.074 131.758C205.433 131.141 185.748 131.072 166.053 131.141C142.665 131.221 119.281 131.371 95.8928 131.431C81.1225 131.469 66.4031 131.039 51.8984 130.116C34.5311 129.011 17.2938 127.665 0 126.423C0 157.616 0 188.808 0 220C504.001 220 1008 220 1512 220C1512 183.334 1512 146.666 1512 110C1506.64 111.114 1501.5 112.388 1495.89 113.312Z" fill="#545418"/>
<path d="M265.035 110.161C264.857 109.864 264.57 109.853 264.289 109.802C264.222 109.79 264.154 109.773 264.086 109.768C263.65 109.738 263.206 109.637 262.783 109.813C262.521 109.923 262.342 109.864 262.111 109.704C261.566 109.327 260.996 109.02 260.271 109.248C259.893 109.366 259.502 109.351 259.216 108.944C259.058 108.72 258.808 108.544 258.457 108.554C258.439 108.897 258.421 109.226 258.403 109.563C258.236 109.546 258.1 109.518 257.964 109.523C257.68 109.531 257.557 109.698 257.681 109.956C257.819 110.246 258.009 110.512 258.176 110.788C258.258 110.985 258.152 111.143 258 111.302C257.852 111.457 257.716 111.636 257.621 111.827C257.371 112.329 257.136 112.84 256.915 113.356C256.811 113.597 256.654 113.759 256.433 113.893C256.178 114.047 255.942 114.235 255.703 114.414C255.382 114.653 255.059 114.859 254.626 114.841C254.402 114.832 254.261 114.793 254.207 114.556C254.136 114.246 253.927 114.068 253.622 113.984C253.492 113.948 253.367 113.884 253.25 113.815C252.851 113.576 252.452 113.338 252.063 113.083C251.826 112.928 251.622 112.699 251.663 112.41C251.75 111.805 251.568 111.241 251.463 110.667C251.401 110.328 251.253 109.983 250.92 109.83C250.477 109.627 250.09 109.284 249.577 109.277C249.355 108.665 249.13 108.077 248.928 107.482C248.801 107.107 248.623 106.788 248.275 106.568C248.119 106.47 247.986 106.32 247.877 106.169C247.636 105.833 247.449 105.473 247.375 105.054C247.328 104.786 247.234 104.521 247.125 104.271C246.984 103.945 246.934 103.628 246.998 103.273C247.036 103.065 246.977 102.839 246.961 102.622C246.952 102.5 246.931 102.379 246.931 102.258C246.932 101.903 246.811 101.623 246.497 101.428C246.275 101.291 246.199 101.045 246.345 100.838C246.43 100.718 246.424 100.632 246.414 100.507C246.383 100.143 246.322 99.7806 246.453 99.4124C246.58 99.0509 246.438 98.6816 246.257 98.3938C246.104 98.1504 246.056 97.9287 246.067 97.6682C246.075 97.4628 246.099 97.2577 246.104 97.0522C246.105 96.987 246.066 96.9209 246.037 96.8248C245.714 97.1622 245.68 97.6247 245.376 97.9291C245.069 97.5635 244.972 97.072 244.499 96.7793C244.385 97.3189 244.285 97.7903 244.173 98.3209C243.863 98.0717 243.604 97.8628 243.314 97.6295C243.248 97.8838 243.38 98.0445 243.427 98.2201C243.508 98.5237 243.637 98.8194 243.678 99.1276C243.733 99.543 243.688 99.948 243.279 100.214C243.036 100.372 242.908 100.608 242.889 100.904C242.881 101.018 242.832 101.128 242.801 101.242C242.648 101.208 242.536 101.151 242.436 101.166C242.127 101.214 241.819 101.277 241.516 101.355C241.238 101.427 240.98 101.515 240.679 101.396C240.399 101.284 240.111 101.344 239.883 101.577C239.676 101.787 239.686 101.951 239.928 102.111C240.008 102.164 240.096 102.205 240.179 102.253C240.349 102.351 240.431 102.492 240.418 102.695C240.366 103.516 240.325 104.339 240.266 105.16C240.245 105.455 240.184 105.748 240.138 106.059C239.537 105.902 238.996 106.008 238.489 106.295C238.179 106.469 237.858 106.638 237.586 106.862C237.018 107.328 236.537 107.865 236.406 108.634C236.389 108.735 236.28 108.833 236.192 108.905C235.845 109.192 235.481 109.459 235.136 109.749C234.671 110.138 234.552 110.662 234.626 111.235C234.646 111.391 234.621 111.492 234.514 111.599C234.041 112.068 233.774 112.59 234.084 113.144C233.974 113.582 233.896 113.924 233.797 114.261C233.775 114.339 233.698 114.437 233.625 114.46C233.025 114.651 232.712 115.146 232.403 115.629C232.17 115.995 232.065 116.426 232.178 116.853C232.276 117.226 232.19 117.517 231.969 117.808C231.653 118.226 231.494 118.697 231.521 119.231C231.528 119.357 231.469 119.491 231.423 119.616C231.333 119.858 231.143 120.011 230.941 120.161C230.737 120.312 230.644 120.535 230.744 120.781C230.829 120.993 230.958 121.188 231.265 121.2C230.862 120.821 230.847 120.784 230.934 120.496C231.047 120.652 231.173 120.825 231.344 121.062C231.395 120.876 231.435 120.777 231.448 120.675C231.484 120.386 231.595 120.184 231.882 120.038C232.562 119.692 232.846 119.027 232.79 118.252C232.75 117.694 232.774 117.127 232.825 116.569C232.855 116.239 232.992 115.918 233.348 115.72C233.335 115.96 233.316 116.164 233.315 116.367C233.311 117.022 233.475 117.646 233.699 118.254C233.809 118.552 233.832 118.841 233.719 119.136C233.547 119.582 233.368 120.026 233.193 120.471C233.123 120.648 233.034 120.822 232.99 121.006C232.765 121.958 232.242 122.742 231.578 123.428C231.186 123.833 230.793 124.227 230.499 124.714C230.055 125.452 229.868 126.232 230.1 127.077C230.343 127.963 230.394 128.862 230.315 129.769C230.291 130.049 230.307 130.312 230.394 130.579C230.53 130.995 230.629 131.412 230.643 131.862C230.666 132.612 230.612 132.642 231.471 132.894C231.497 132.902 231.524 132.911 231.551 132.914C231.933 132.946 232.31 132.949 232.644 132.735C232.64 132.659 232.65 132.612 232.633 132.579C232.383 132.108 232.127 131.64 231.876 131.168C231.768 130.964 231.613 130.765 231.573 130.547C231.466 129.968 231.403 129.38 231.336 128.795C231.214 127.735 231.456 126.721 231.744 125.714C231.878 125.246 232.086 124.819 232.41 124.451C232.826 123.978 233.246 123.509 233.652 123.027C233.847 122.795 234.097 122.681 234.418 122.576C234.426 122.835 234.427 123.063 234.442 123.29C234.512 124.348 234.487 125.4 234.308 126.449C234.229 126.912 234.333 127.337 234.641 127.721C235.069 128.256 235.476 128.809 235.766 129.438C235.841 129.598 235.953 129.742 236.053 129.889C236.382 130.369 236.666 130.861 236.681 131.47C236.686 131.672 236.758 131.873 236.796 132.075C236.881 132.532 237.017 132.699 237.484 132.754C237.862 132.798 238.249 132.775 238.631 132.764C238.8 132.76 238.967 132.711 239.222 132.667C239.014 132.381 238.873 132.148 238.694 131.95C237.941 131.114 237.406 130.145 236.923 129.141C236.787 128.858 236.646 128.572 236.469 128.314C235.995 127.623 235.739 126.877 235.805 126.03C235.821 125.825 235.847 125.61 235.802 125.414C235.665 124.822 235.731 124.243 235.847 123.661C235.949 123.15 236.044 122.635 236.335 122.188C236.568 121.832 236.811 121.484 237.047 121.13C237.235 120.849 237.273 120.839 237.601 121.02C237.549 121.189 237.487 121.356 237.446 121.528C237.365 121.868 237.479 122.042 237.849 122.171C238.122 122.266 238.264 122.188 238.4 121.843C238.49 121.615 238.559 121.379 238.64 121.139C238.912 121.117 239.167 121.096 239.401 121.257C239.342 121.442 239.278 121.609 239.235 121.782C239.16 122.084 239.227 122.212 239.506 122.339C239.903 122.521 240.119 122.432 240.273 122.024C240.353 121.811 240.431 121.598 240.518 121.365C240.762 121.406 240.956 121.44 241.172 121.477C241.109 121.69 241.05 121.857 241.011 122.028C240.936 122.359 241.103 122.614 241.443 122.706C241.716 122.78 241.903 122.663 242.024 122.329C242.107 122.099 242.175 121.864 242.251 121.627C242.578 121.645 242.882 121.661 243.205 121.678C243.167 121.825 243.148 121.933 243.111 122.035C242.92 122.566 243.144 122.706 243.562 122.862C243.933 123.001 244.163 122.857 244.25 122.461C244.301 122.225 244.361 121.991 244.408 121.79C244.712 121.807 244.964 121.82 245.243 121.835C245.21 121.955 245.19 122.032 245.167 122.108C245.144 122.187 245.11 122.264 245.093 122.343C245.037 122.6 245.095 122.72 245.332 122.844C245.404 122.883 245.48 122.917 245.557 122.944C245.946 123.079 246.159 122.959 246.244 122.557C246.288 122.344 246.323 122.13 246.366 121.895C246.508 121.888 246.644 121.875 246.779 121.877C246.899 121.88 247.019 121.901 247.133 121.913C247.107 122.164 247.007 122.42 247.08 122.611C247.15 122.796 247.398 122.912 247.604 123.09C247.567 123.269 247.527 123.496 247.474 123.721C247.257 124.656 247.058 125.595 246.805 126.52C246.7 126.903 246.647 127.269 246.723 127.651C246.809 128.086 246.821 128.52 246.778 128.961C246.714 129.63 246.64 130.3 246.631 130.971C246.625 131.442 246.584 131.899 246.469 132.354C246.42 132.548 246.409 132.753 246.384 132.934C247.037 133.293 247.822 133.379 248.157 133.157C248.003 132.459 247.792 131.772 247.71 131.071C247.589 130.032 247.626 128.99 247.992 127.984C248.075 127.757 248.088 127.504 248.133 127.263C248.251 126.63 248.333 125.988 248.496 125.368C248.727 124.488 249.125 123.657 249.307 122.686C249.424 122.815 249.513 122.908 249.595 123.007C249.691 123.123 249.764 123.262 249.874 123.36C250.437 123.862 250.809 124.508 251.205 125.131C251.491 125.581 251.555 126.065 251.33 126.582C250.959 127.434 250.488 128.238 250.164 129.116C249.847 129.976 249.445 130.804 249.084 131.648C248.871 132.144 248.892 132.22 249.341 132.514C249.5 132.619 249.671 132.713 249.849 132.779C250.065 132.858 250.294 132.889 250.545 132.783C250.482 132.173 250.514 131.582 250.638 130.983C250.787 130.254 251.001 129.549 251.234 128.847C251.29 128.681 251.388 128.527 251.478 128.374C251.802 127.817 252.134 127.265 252.456 126.708C252.775 126.156 252.741 125.553 252.554 124.995C252.4 124.536 252.149 124.077 251.831 123.714C251.357 123.171 251.348 122.52 251.206 121.974C251.382 121.755 251.543 121.619 251.619 121.444C251.713 121.232 251.832 121.118 252.069 121.124C252.135 121.226 252.205 121.327 252.268 121.433C252.697 122.153 253.269 122.74 253.955 123.212C255.212 124.077 256.546 124.103 257.902 123.49C258.8 123.085 259.393 122.348 259.88 121.515C260.066 121.197 260.237 120.858 260.481 120.587C261.074 119.926 261.555 119.196 261.93 118.398C262.744 116.67 263.357 114.865 263.907 113.038C263.997 112.74 264.093 112.444 264.16 112.232C264.47 112.132 264.741 112.112 264.913 111.971C265.096 111.82 265.25 111.569 265.3 111.336C265.387 110.924 265.255 110.529 265.035 110.161ZM231.143 120.712C231.148 120.609 231.154 120.506 231.159 120.404C231.174 120.404 231.188 120.403 231.202 120.403C231.206 120.502 231.21 120.601 231.213 120.699C231.19 120.703 231.167 120.708 231.143 120.712ZM231.987 118.82C231.96 118.811 231.933 118.802 231.906 118.793C231.95 118.674 231.995 118.555 232.04 118.437C232.062 118.445 232.083 118.452 232.105 118.46C232.066 118.58 232.026 118.7 231.987 118.82ZM231.985 118.249C231.964 118.23 231.943 118.211 231.921 118.192C231.989 118.078 232.056 117.964 232.123 117.85C232.145 117.863 232.168 117.875 232.19 117.888C232.122 118.008 232.054 118.129 231.985 118.249ZM232.493 116.393C232.474 116.391 232.455 116.389 232.437 116.388C232.447 116.293 232.457 116.199 232.468 116.106C232.481 116.106 232.495 116.106 232.508 116.107C232.503 116.202 232.498 116.297 232.493 116.393ZM257.273 123.327C256.57 123.545 255.841 123.634 255.131 123.373C254.75 123.234 254.375 123.044 254.043 122.812C253.479 122.417 253.021 121.906 252.667 121.282C254.745 122.853 256.92 122.853 259.191 121.769C258.733 122.503 258.115 123.065 257.273 123.327ZM260.221 119.977C260.116 120.218 259.927 120.439 259.732 120.622C258.951 121.356 258.038 121.829 256.96 121.943C255.845 122.061 254.762 121.968 253.782 121.371C253.434 121.159 253.129 120.877 252.812 120.617C252.756 120.571 252.739 120.477 252.694 120.384C252.775 120.384 252.811 120.373 252.822 120.385C253.04 120.626 253.04 120.626 253.225 120.384C253.297 120.288 253.372 120.194 253.468 120.071C253.548 120.268 253.612 120.424 253.682 120.596C253.861 120.539 254.018 120.395 254.169 120.595C254.186 120.617 254.318 120.572 254.382 120.534C254.448 120.495 254.495 120.425 254.567 120.353C254.674 120.462 254.767 120.556 254.865 120.655C255.14 120.577 255.097 120.265 255.295 120.095C255.366 120.166 255.43 120.23 255.541 120.342C255.655 120.136 255.748 119.967 255.843 119.794C256.154 120.148 256.154 120.148 256.524 119.878C256.844 120.058 256.846 120.057 257.204 119.586C257.289 119.639 257.376 119.74 257.457 119.735C257.549 119.728 257.648 119.641 257.718 119.565C257.82 119.454 257.9 119.324 257.986 119.2C258.107 119.028 258.193 118.856 258.446 118.786C258.592 118.746 258.689 118.478 258.78 118.298C258.891 118.079 258.971 117.844 259.067 117.618C259.14 117.444 259.276 117.358 259.459 117.399C259.743 117.461 260.058 117.282 260.311 117.539C260.56 117.393 260.604 117.138 260.705 116.923C260.757 116.812 260.768 116.695 260.951 116.712C261.013 116.718 261.124 116.588 261.152 116.501C261.26 116.163 261.346 115.818 261.435 115.475C261.465 115.359 261.479 115.239 261.501 115.12C261.837 115.194 262.007 115.105 262.134 114.779C262.194 114.627 262.215 114.46 262.261 114.302C262.311 114.132 262.414 114.091 262.599 114.209C262.492 114.516 262.4 114.829 262.275 115.129C261.598 116.748 260.92 118.367 260.221 119.977ZM261.473 118.148C261.644 117.703 261.822 117.261 261.984 116.813C262.494 115.411 262.996 114.006 263.507 112.604C263.568 112.438 263.56 112.204 263.822 112.179C263.835 112.677 261.947 117.599 261.473 118.148Z" fill="#545418"/>
<path d="M361.242 107.41C361.169 107.292 361.135 107.15 361.063 107.032C360.943 106.834 360.842 106.601 360.669 106.465C360.375 106.232 360.031 106.062 359.707 105.868C359.315 105.632 358.888 105.538 358.435 105.576C358.073 105.606 357.713 105.66 357.351 105.684C357.066 105.702 356.776 105.715 356.62 105.383C356.587 105.311 356.468 105.281 356.39 105.229C356.059 105.01 355.678 104.966 355.301 104.956C355.088 104.951 354.968 104.844 354.809 104.741C354.55 104.575 354.259 104.438 353.963 104.356C353.694 104.281 353.554 104.425 353.539 104.712C353.529 104.914 353.537 105.117 353.537 105.344C353.402 105.321 353.282 105.291 353.161 105.282C352.795 105.255 352.697 105.377 352.828 105.733C352.947 106.058 353.098 106.37 353.223 106.659C353.175 106.91 353.143 107.142 353.082 107.366C353.051 107.48 352.986 107.598 352.904 107.682C352.566 108.025 352.292 108.4 352.181 108.882C352.143 109.048 352.036 109.197 351.972 109.358C351.797 109.805 351.471 110.072 351.012 110.191C350.828 110.239 350.647 110.297 350.471 110.367C350.114 110.509 350.096 110.567 350.255 110.923C350.271 110.959 350.263 111.006 350.269 111.091C350.119 111.105 349.983 111.129 349.848 111.127C349.47 111.121 349.09 111.081 348.713 111.097C347.96 111.129 347.231 111.014 346.518 110.792C346.328 110.733 346.144 110.629 345.98 110.513C345.247 109.994 344.687 109.319 344.2 108.568C343.778 107.917 343.303 107.303 342.543 106.993C342.433 106.948 342.343 106.841 342.259 106.749C341.879 106.331 341.514 105.899 341.123 105.492C341.009 105.374 340.836 105.299 340.677 105.242C340.485 105.175 340.279 105.147 340.078 105.104C339.796 105.043 339.474 104.638 339.614 104.414C339.884 103.982 339.657 103.752 339.382 103.497C339.348 103.465 339.322 103.422 339.304 103.379C339.134 102.99 338.823 102.912 338.444 102.987C338.196 103.036 337.975 102.997 337.782 102.825C337.566 102.633 337.301 102.614 337.027 102.603C336.57 102.586 336.114 102.557 335.658 102.519C335.524 102.508 335.393 102.449 335.321 102.429C335.303 102.131 335.288 101.89 335.273 101.641C335.351 101.496 335.502 101.337 335.518 101.166C335.589 100.439 335.569 99.7154 335.176 99.0599C334.985 98.7402 334.787 98.425 334.614 98.145C334.721 97.9808 334.87 97.8553 334.851 97.7651C334.728 97.1743 335.183 96.6858 335.117 96.1127C335.41 95.4885 335.293 94.7404 335.718 94.1516C335.807 94.0283 335.754 93.8652 335.578 93.8156C335.436 93.7757 335.317 93.8327 335.298 93.988C335.245 94.4354 334.862 94.4987 334.507 94.7174C334.499 94.1798 334.169 93.7467 334.389 93.2407C334.412 93.1859 334.3 93.0004 334.25 93C334.146 92.999 334.032 93.0701 333.94 93.1362C333.908 93.1593 333.934 93.256 333.923 93.3171C333.839 93.7648 333.616 94.1234 333.232 94.428C333.052 94.125 332.725 93.9592 332.744 93.5713C332.752 93.4293 332.662 93.3227 332.506 93.3435C332.337 93.366 332.268 93.4828 332.296 93.6514C332.321 93.8037 332.388 93.961 332.368 94.1067C332.303 94.5752 332.284 95.0719 332.102 95.4964C331.892 95.9891 331.662 96.4771 331.44 96.9668C331.306 97.2607 330.911 97.4102 330.881 97.8001C330.878 97.8328 330.819 97.8745 330.777 97.8888C330.419 98.0118 330.285 98.2981 330.195 98.6345C330.164 98.7491 330.063 98.846 329.991 98.9485C329.581 99.5333 329.307 100.152 329.426 100.896C329.484 101.26 329.399 101.613 329.274 101.963C328.928 102.929 328.596 103.901 328.453 104.924C328.438 105.031 328.404 105.159 328.445 105.247C328.695 105.791 328.582 106.324 328.421 106.855C328.219 107.516 327.857 108.094 327.407 108.607C326.99 109.083 326.52 109.498 325.897 109.715C325.348 109.906 324.884 110.25 324.559 110.734C324.145 111.349 323.75 111.978 323.383 112.621C323.249 112.855 323.089 113.003 322.86 113.13C322.322 113.427 321.775 113.719 321.278 114.076C319.791 115.146 319.964 116.508 320.596 117.763C320.732 118.032 321.01 118.23 321.25 118.492C321.207 118.665 321.154 118.875 321.102 119.084C321.432 118.903 321.598 118.645 321.505 118.269C321.483 118.181 321.484 118.078 321.504 117.989C321.605 117.538 321.496 117.139 321.201 116.797C320.968 116.528 320.965 116.251 321.144 115.974C321.297 115.738 321.453 115.484 321.668 115.313C321.995 115.052 322.373 114.854 322.803 114.584C322.785 114.82 322.77 114.969 322.763 115.12C322.747 115.451 322.706 115.784 322.728 116.113C322.773 116.767 322.673 117.402 322.541 118.037C322.216 119.588 321.552 120.998 320.728 122.337C320.439 122.807 320.096 123.244 319.798 123.709C319.7 123.861 319.587 124.07 319.619 124.225C319.718 124.712 319.652 125.199 319.69 125.682C319.711 125.95 319.647 126.305 320.052 126.411C320.094 126.422 320.12 126.548 320.128 126.624C320.166 126.984 320.201 127.345 320.225 127.706C320.241 127.942 320.212 128.184 320.252 128.415C320.276 128.55 320.373 128.752 320.474 128.778C320.698 128.835 320.685 128.974 320.7 129.13C320.728 129.445 320.741 129.762 320.797 130.072C320.833 130.267 320.935 130.451 321.006 130.638C321.109 130.604 321.178 130.581 321.301 130.541C321.341 130.878 321.36 131.175 321.414 131.465C321.545 132.162 321.7 132.855 321.829 133.552C321.861 133.726 321.965 133.794 322.101 133.84C322.87 134.096 323.621 134.045 324.349 133.687C324.374 133.675 324.388 133.639 324.431 133.581C324.391 133.362 324.231 133.186 324.078 133.012C323.713 132.598 323.344 132.187 322.972 131.779C322.625 131.398 322.362 130.981 322.269 130.461C322.23 130.247 322.114 130.048 322.047 129.838C321.936 129.494 321.812 129.151 321.739 128.798C321.594 128.104 321.507 127.402 321.434 126.694C321.325 125.641 321.393 124.677 322.201 123.889C322.347 123.747 322.481 123.585 322.591 123.413C322.853 123.002 323.188 122.607 323.33 122.155C323.567 121.399 324.156 121.057 324.76 120.69C324.722 120.806 324.651 120.892 324.578 120.978C324.461 121.116 324.432 121.274 324.562 121.402C324.623 121.461 324.772 121.489 324.854 121.458C325.025 121.394 325.084 121.233 324.998 121.068C324.861 120.802 324.998 120.571 325.083 120.346C325.182 120.085 325.31 120.061 325.664 120.178C325.58 120.513 325.646 120.899 325.28 121.136C325.241 121.161 325.257 121.351 325.309 121.415C325.403 121.53 325.544 121.505 325.633 121.388C325.673 121.335 325.668 121.244 325.673 121.17C325.679 121.081 325.674 120.992 325.674 120.903C325.716 120.904 325.758 120.905 325.8 120.907C325.8 121.278 325.781 121.651 325.806 122.02C325.828 122.354 325.647 122.758 326.092 122.977C326.133 122.998 326.143 123.124 326.133 123.197C326.1 123.446 326.065 123.696 326.007 123.94C325.892 124.429 325.746 124.911 325.646 125.403C325.618 125.54 325.661 125.734 325.746 125.845C325.957 126.116 326.169 126.442 326.46 126.581C326.732 126.71 326.799 126.896 326.914 127.112C327.183 127.615 327.384 128.182 328.013 128.383C328.084 128.406 328.13 128.527 328.175 128.61C328.471 129.162 328.751 129.728 329.025 130.286C329.348 130.946 329.566 131.661 329.981 132.284C330.057 132.398 330.064 132.557 330.13 132.681C330.192 132.797 330.275 132.915 330.379 132.993C330.503 133.086 330.655 133.144 330.8 133.205C331.504 133.502 332.186 133.423 332.858 133.093C333.186 132.932 333.281 132.522 332.942 132.298C332.682 132.126 332.437 131.911 332.239 131.67C331.754 131.082 331.196 130.573 330.639 130.058C330.474 129.905 330.377 129.674 330.258 129.474C330.123 129.247 330.028 128.99 329.864 128.787C329.478 128.309 329.058 127.857 328.657 127.39C328.088 126.727 327.911 125.907 327.76 125.082C327.736 124.947 327.763 124.798 327.787 124.66C327.964 123.633 328.151 122.608 328.325 121.581C328.382 121.244 328.526 120.954 328.723 120.682C328.833 120.531 328.962 120.488 329.145 120.612C329.056 120.812 329.115 121.072 328.825 121.188C328.656 121.256 328.633 121.449 328.734 121.593C328.781 121.66 328.929 121.699 329.019 121.683C329.198 121.651 329.292 121.519 329.224 121.332C329.12 121.043 329.263 120.823 329.391 120.557C329.644 120.593 329.882 120.627 330.155 120.667C330.064 120.935 330.062 121.157 329.843 121.297C329.73 121.37 329.679 121.523 329.806 121.619C329.891 121.682 330.054 121.722 330.139 121.681C330.214 121.645 330.293 121.45 330.258 121.383C330.115 121.106 330.269 120.904 330.346 120.682C330.624 120.682 330.871 120.682 331.125 120.682C331.146 120.949 331.17 121.176 330.928 121.344C330.869 121.384 330.882 121.529 330.862 121.625C331.008 121.647 331.162 121.709 331.297 121.68C331.44 121.65 331.477 121.485 331.383 121.374C331.195 121.151 331.237 120.946 331.377 120.714C331.665 120.714 331.955 120.714 332.256 120.714C332.293 120.972 332.228 121.133 332.037 121.274C331.967 121.326 331.926 121.558 331.962 121.584C332.061 121.657 332.219 121.711 332.334 121.686C332.506 121.647 332.602 121.482 332.493 121.318C332.34 121.087 332.455 120.904 332.513 120.727C332.803 120.727 333.063 120.727 333.325 120.727C333.352 121.004 333.331 121.216 333.123 121.4C333.055 121.461 333.081 121.655 333.108 121.778C333.116 121.817 333.307 121.872 333.347 121.838C333.447 121.754 333.519 121.63 333.579 121.51C333.598 121.47 333.534 121.396 333.526 121.335C333.495 121.113 333.503 120.898 333.645 120.718C333.892 120.718 334.121 120.718 334.339 120.718C334.433 120.99 334.367 121.174 334.203 121.358C334.142 121.427 334.129 121.618 334.181 121.689C334.234 121.761 334.431 121.809 334.5 121.766C334.599 121.702 334.646 121.549 334.7 121.428C334.713 121.398 334.679 121.335 334.65 121.3C334.497 121.112 334.577 120.919 334.616 120.692C334.939 120.692 335.246 120.692 335.551 120.692C335.582 121.043 335.575 121.038 335.413 121.314C335.365 121.397 335.328 121.542 335.368 121.607C335.412 121.676 335.554 121.716 335.652 121.712C335.879 121.705 335.997 121.504 335.851 121.312C335.672 121.075 335.75 120.879 335.817 120.641C336.061 120.641 336.289 120.641 336.591 120.641C336.527 120.873 336.468 121.059 336.427 121.248C336.409 121.331 336.391 121.458 336.435 121.501C336.501 121.564 336.639 121.616 336.716 121.589C336.87 121.534 336.924 121.375 336.827 121.24C336.682 121.034 336.697 120.834 336.769 120.594C337.034 120.57 337.296 120.545 337.569 120.52C337.672 120.747 337.767 120.931 337.58 121.149C337.456 121.293 337.546 121.421 337.699 121.482C337.863 121.548 337.986 121.468 338.023 121.308C338.041 121.232 338.005 121.122 337.955 121.057C337.82 120.882 337.784 120.702 337.827 120.486C338.095 120.442 338.336 120.403 338.655 120.351C338.611 120.57 338.614 120.732 338.544 120.852C338.448 121.019 338.442 121.172 338.583 121.271C338.657 121.323 338.84 121.309 338.918 121.25C339.088 121.121 339.039 120.97 338.913 120.802C338.821 120.678 338.8 120.5 338.739 120.322C339.046 120.232 339.297 120.159 339.574 120.078C339.635 120.288 339.675 120.452 339.586 120.646C339.543 120.739 339.559 120.92 339.625 120.984C339.687 121.046 339.848 121.017 339.964 121.013C340.016 121.011 340.067 120.973 340.138 120.943C340.138 121.1 340.142 121.226 340.137 121.351C340.089 122.487 340.047 123.623 339.987 124.757C339.97 125.085 339.894 125.41 339.861 125.738C339.826 126.096 339.781 126.458 339.794 126.816C339.806 127.129 339.88 127.442 339.948 127.75C340.217 128.955 340.348 130.179 340.415 131.409C340.427 131.634 340.483 131.814 340.676 131.931C340.947 132.095 341.098 132.343 341.222 132.625C341.289 132.779 341.386 132.952 341.521 133.038C342.087 133.399 342.696 133.484 343.32 133.189C343.66 133.028 343.691 132.9 343.458 132.611C343.141 132.218 342.811 131.835 342.474 131.459C341.938 130.863 341.663 130.155 341.545 129.377C341.529 129.275 341.528 129.125 341.588 129.065C341.965 128.685 342.2 128.19 342.647 127.859C343.127 127.504 343.599 127.114 343.986 126.663C344.397 126.183 344.867 125.813 345.409 125.509C345.656 125.371 345.906 125.221 346.109 125.028C346.696 124.469 346.696 124.015 346.221 123.37C345.914 122.954 345.645 122.504 345.407 122.044C345.169 121.584 345.006 121.086 344.783 120.617C344.586 120.204 344.348 119.81 344.136 119.405C344.037 119.215 343.954 119.017 343.856 118.806C344.102 118.691 344.294 118.601 344.487 118.511C344.605 118.712 344.659 118.874 344.495 119.054C344.378 119.183 344.416 119.351 344.561 119.413C344.667 119.458 344.851 119.446 344.941 119.379C345.057 119.291 345.067 119.107 344.932 119.005C344.706 118.832 344.709 118.614 344.735 118.351C345.006 118.199 345.272 118.048 345.572 117.879C345.639 118.086 345.686 118.231 345.747 118.419C345.677 118.468 345.592 118.501 345.552 118.563C345.506 118.634 345.453 118.768 345.485 118.808C345.544 118.881 345.662 118.941 345.758 118.943C345.998 118.947 346.094 118.767 346.011 118.512C345.93 118.261 345.849 118.009 345.757 117.724C346.003 117.571 346.221 117.435 346.443 117.297C346.6 117.592 346.613 117.599 346.503 117.802C346.422 117.953 346.423 118.076 346.554 118.179C346.695 118.291 346.849 118.283 346.989 118.171C347.149 118.043 347.152 117.83 346.964 117.693C346.812 117.583 346.701 117.484 346.736 117.297C346.961 117.149 347.16 117.175 347.377 117.275C349.107 118.07 350.835 118.013 352.561 117.255C352.894 117.109 353.228 116.969 353.566 116.836C355.239 116.179 356.558 115.089 357.507 113.567C358.259 112.361 358.661 111.012 359.029 109.653C359.131 109.276 359.238 108.9 359.356 108.476C360.033 108.664 360.525 108.262 361.063 108.023C361.422 107.866 361.445 107.735 361.242 107.41ZM320.653 115.094C320.71 115.658 320.629 116.051 320.376 116.424C320.307 115.936 320.411 115.519 320.653 115.094ZM320.581 117.128C320.561 117.005 320.541 116.882 320.521 116.758C320.547 116.752 320.573 116.746 320.599 116.74C320.634 116.858 320.669 116.976 320.704 117.095C320.663 117.106 320.622 117.117 320.581 117.128ZM321.13 116.964C321.217 117.16 321.304 117.356 321.391 117.552C321.346 117.574 321.302 117.596 321.257 117.618C321.179 117.416 321.101 117.213 321.023 117.01C321.058 116.995 321.094 116.98 321.13 116.964ZM321.015 115.209C321.245 114.423 321.892 114.08 322.568 113.789C322.05 114.262 321.532 114.736 321.015 115.209ZM337.911 104.494C338.529 104.27 338.639 104.298 338.733 104.701C338.435 104.745 338.182 104.658 337.911 104.494ZM339.232 104.899C339.191 104.782 339.15 104.665 339.089 104.488C339.343 104.578 339.324 104.726 339.335 104.859C339.301 104.872 339.266 104.885 339.232 104.899ZM340.142 120.599C339.736 120.418 339.708 120.325 339.941 119.975C340.149 120.124 340.152 120.334 340.142 120.599ZM342.473 119.968C342.43 120.151 342.411 120.233 342.392 120.315C342.376 120.251 342.354 120.188 342.345 120.122C342.342 120.104 342.378 120.081 342.473 119.968ZM344.035 122.907C344.357 123.209 344.405 123.629 344.505 124.022C344.53 124.119 344.451 124.261 344.386 124.361C344.233 124.598 344.056 124.82 343.895 125.053C343.686 125.354 343.437 125.606 343.114 125.794C342.707 126.03 342.307 126.283 341.925 126.557C341.753 126.68 341.631 126.871 341.401 127.126C341.349 126.954 341.284 126.847 341.291 126.744C341.36 125.581 341.409 124.416 341.669 123.273C341.753 122.905 341.813 122.528 341.832 122.152C341.859 121.621 342.004 121.131 342.219 120.686C342.444 120.703 342.654 120.718 342.92 120.737C343.112 120.945 343.24 121.258 343.311 121.605C343.415 122.112 343.654 122.551 344.035 122.907ZM347.625 117.021C347.923 116.86 348.16 116.722 348.461 116.75C348.566 116.76 348.676 116.721 348.784 116.714C348.937 116.704 349.103 116.662 349.241 116.705C349.984 116.938 350.738 117.089 351.519 117.097C351.576 117.097 351.632 117.128 351.689 117.145C350.323 117.639 348.991 117.625 347.625 117.021ZM354.551 115.748C353.887 116.37 353.039 116.572 352.157 116.638C351.366 116.698 350.59 116.612 349.806 116.388C349.855 116.313 349.877 116.272 349.906 116.237C349.945 116.19 349.99 116.146 350.04 116.094C350.204 116.155 350.357 116.242 350.52 116.263C350.607 116.274 350.709 116.171 350.812 116.115C350.921 116.163 351.078 116.288 351.155 116.251C351.276 116.192 351.359 116.031 351.427 115.898C351.498 115.761 351.532 115.605 351.597 115.411C351.824 115.467 352.03 115.518 352.286 115.581C352.355 115.453 352.44 115.295 352.53 115.127C352.659 115.202 352.777 115.271 352.919 115.354C353.137 115.085 353.342 114.831 353.556 114.564C353.599 114.59 353.632 114.616 353.67 114.63C353.712 114.647 353.758 114.653 353.821 114.667C354.06 114.343 354.053 113.772 354.667 113.801C354.74 113.563 354.814 113.325 354.857 113.184C355.068 113.05 355.234 112.993 355.328 112.878C355.565 112.587 355.771 112.27 355.988 111.963C356.015 111.925 356.03 111.852 356.06 111.846C356.44 111.769 356.488 111.421 356.638 111.156C356.66 111.116 356.697 111.084 356.748 111.026C356.826 111.062 356.907 111.099 356.987 111.136C357.122 111.2 357.238 111.171 357.316 111.047C357.39 110.928 357.483 110.804 357.505 110.671C357.593 110.149 357.94 109.771 358.265 109.368C358.153 109.676 358.05 109.988 357.928 110.292C357.362 111.699 356.793 113.108 355.862 114.323C355.471 114.833 355.022 115.308 354.551 115.748ZM356.242 114.45C357.102 113.127 357.707 111.69 358.243 110.222C358.388 109.822 358.499 109.411 358.624 109.004C358.676 108.832 358.724 108.662 359.01 108.744C358.421 110.817 357.842 112.882 356.242 114.45Z" fill="#545418"/>
<path d="M313.329 107.502C313.093 107.112 312.876 106.709 312.614 106.337C312.508 106.187 312.316 106.035 312.143 106.005C311.468 105.886 310.795 105.699 310.097 105.809C309.724 105.868 309.37 105.808 309.012 105.696C308.768 105.62 308.497 105.541 308.253 105.575C307.963 105.615 307.801 105.515 307.624 105.32C307.441 105.116 307.234 104.929 307.015 104.764C306.687 104.517 306.492 104.591 306.379 104.978C306.346 105.094 306.314 105.211 306.275 105.351C306.165 105.284 306.077 105.227 305.986 105.177C305.513 104.913 305.203 105.073 305.195 105.617C305.189 106.039 305.238 106.463 305.265 106.933C304.999 107.387 304.69 107.891 304.409 108.41C304.342 108.534 304.376 108.709 304.347 108.857C304.317 109.017 304.318 109.225 304.219 109.323C303.908 109.628 303.825 109.994 303.794 110.404C303.761 110.844 303.535 111.148 303.08 111.243C302.447 111.374 301.833 111.633 301.164 111.509C301.105 111.499 301.035 111.493 300.982 111.515C300.668 111.646 300.426 111.465 300.16 111.351C299.859 111.223 299.663 111 299.522 110.721C299.071 109.828 298.391 109.216 297.41 108.957C297.28 108.923 297.148 108.873 297.031 108.807C296.673 108.606 296.321 108.394 295.969 108.184C295.919 108.154 295.846 108.113 295.838 108.068C295.751 107.559 295.27 107.151 295.455 106.568C295.478 106.495 295.428 106.389 295.39 106.308C295.299 106.115 295.2 105.925 295.096 105.738C294.862 105.317 294.541 105.023 294.038 104.945C293.722 104.896 293.413 104.796 293.103 104.711C292.631 104.582 292.157 104.459 291.695 104.302C291.552 104.254 291.411 104.126 291.326 103.997C291.135 103.706 291.101 103.363 291.135 103.023C291.174 102.619 291.095 102.264 290.797 101.971C290.732 101.908 290.685 101.827 290.627 101.749C290.825 101.264 291.129 100.857 291.038 100.33C290.951 99.8223 290.797 99.3242 290.88 98.794C290.901 98.6597 290.844 98.479 290.758 98.3704C290.631 98.2091 290.677 98.0687 290.697 97.8999C290.725 97.6783 290.776 97.4156 290.688 97.2331C290.524 96.8943 290.579 96.6042 290.747 96.321C290.989 95.9141 291.261 95.5256 291.517 95.1273C291.574 95.0387 291.618 94.9414 291.668 94.8482C291.641 94.826 291.615 94.8036 291.588 94.7815C291.262 94.9599 290.935 95.1384 290.558 95.3447C290.632 95.0234 290.695 94.7549 290.757 94.4864C290.724 94.4676 290.69 94.4489 290.656 94.4302C290.437 94.6693 290.218 94.9082 289.941 95.2115C289.884 94.721 289.836 94.3105 289.777 93.7969C289.412 94.2144 289.352 94.6872 289.068 95.1094C288.992 94.7017 288.929 94.3627 288.866 94.0237C288.751 94.1812 288.731 94.3287 288.697 94.4727C288.662 94.6236 288.613 94.7714 288.558 94.9597C288.071 94.2084 287.996 94.1435 287.679 94.1736C287.688 94.2032 287.689 94.2366 287.705 94.2616C287.927 94.6195 287.919 95.0117 287.913 95.4154C287.907 95.8825 287.584 96.1317 287.325 96.4429C287.012 96.8188 286.84 97.2786 286.915 97.7637C286.967 98.1011 286.874 98.3358 286.636 98.5263C286.468 98.6609 286.374 98.8111 286.341 99.0212C286.326 99.1203 286.251 99.209 286.215 99.3065C286.152 99.4744 286.095 99.6453 286.04 99.8159C286.003 99.9303 286.003 100.072 285.933 100.158C285.712 100.425 285.663 100.731 285.685 101.057C285.481 101.163 285.298 101.26 285.079 101.374C285.069 101.244 285.058 101.158 285.057 101.071C285.052 100.78 285.053 100.488 285.046 100.198C285.042 100.051 285.003 99.9083 284.824 99.9073C284.62 99.9061 284.638 100.056 284.647 100.202C284.66 100.431 284.66 100.661 284.662 100.891C284.668 101.561 284.668 102.208 284.383 102.861C284.085 103.544 283.842 104.254 283.505 104.923C283.039 105.847 282.713 106.822 282.589 107.843C282.526 108.366 282.331 108.703 281.851 108.884C281.566 108.992 281.372 109.199 281.201 109.444C280.967 109.78 280.92 110.151 280.974 110.539C281.038 110.998 280.9 111.392 280.598 111.721C280.32 112.024 280.02 112.312 279.708 112.58C279.412 112.833 279.25 113.144 279.17 113.515C279.11 113.792 279.034 114.065 278.964 114.339C277.57 113.944 276.421 114.74 276.318 116.114C276.307 116.267 276.307 116.424 276.264 116.569C276.163 116.915 276.153 117.261 276.211 117.612C276.344 118.411 276.131 119.127 275.7 119.795C275.568 120 275.442 120.212 275.335 120.432C275.21 120.689 275.187 120.962 275.301 121.234C275.366 121.387 275.443 121.533 275.664 121.526C275.372 121.033 275.371 120.876 275.644 120.624C275.758 120.881 275.726 121.212 276.014 121.402C276.032 121.36 276.042 121.346 276.043 121.331C276.044 121.286 276.051 121.237 276.04 121.195C275.914 120.725 276.073 120.351 276.352 119.964C276.878 119.235 277.212 118.423 277.259 117.5C277.28 117.11 277.367 116.711 277.497 116.342C277.641 115.935 277.968 115.715 278.282 115.678C278.247 115.942 278.18 116.213 278.18 116.484C278.183 117.432 277.983 118.336 277.667 119.223C277.519 119.64 277.385 120.064 277.288 120.495C277.192 120.92 276.988 121.243 276.646 121.515C275.866 122.133 275.12 122.792 274.463 123.544C274.355 123.667 274.238 123.811 274.203 123.963C274.037 124.687 274.116 125.421 274.153 126.152C274.19 126.885 274.227 127.618 274.27 128.351C274.288 128.655 274.304 128.962 274.354 129.262C274.43 129.716 274.478 130.162 274.416 130.629C274.329 131.289 274.182 131.95 274.444 132.623C274.532 132.85 274.625 132.998 274.834 133.075C275.405 133.286 275.968 133.213 276.588 133.026C276.355 132.596 276.161 132.2 275.931 131.827C275.617 131.316 275.474 130.777 275.468 130.173C275.456 129.08 275.616 128.005 275.733 126.925C275.806 126.243 275.937 125.566 276.049 124.888C276.099 124.59 276.249 124.354 276.487 124.158C276.782 123.915 277.053 123.644 277.338 123.389C277.452 123.287 277.575 123.196 277.694 123.1C278.073 122.791 278.458 122.491 278.827 122.172C279.152 121.892 279.454 121.587 279.773 121.3C280.138 120.972 280.504 120.648 280.743 120.207C280.82 120.067 280.927 119.943 281.053 119.767C281.138 120.017 281.203 120.203 281.265 120.391C281.501 121.118 281.708 121.856 281.98 122.57C282.282 123.366 282.523 124.152 282.402 125.023C282.322 125.596 282.363 126.185 282.286 126.757C282.195 127.427 282.5 128.275 283.081 128.624C283.525 128.89 283.884 129.23 284.199 129.632C284.293 129.751 284.401 129.861 284.512 129.966C285.169 130.59 285.783 131.245 286.189 132.074C286.313 132.328 286.459 132.611 286.766 132.698C287.146 132.806 287.533 132.918 287.924 132.954C288.203 132.98 288.516 132.979 288.824 132.791C288.655 132.659 288.533 132.57 288.418 132.472C287.879 132.019 287.352 131.558 286.935 130.978C286.642 130.57 286.318 130.175 285.955 129.83C285.47 129.37 285.052 128.876 284.789 128.256C284.694 128.031 284.585 127.809 284.457 127.601C284.086 126.999 284.027 126.356 284.234 125.7C284.413 125.132 284.431 124.558 284.431 123.975C284.43 123.7 284.48 123.426 284.479 123.151C284.479 122.886 284.585 122.679 284.757 122.495C285.152 122.071 285.392 121.561 285.576 121.02C285.643 120.821 285.717 120.623 285.786 120.428C286.741 120.515 287.651 120.633 288.564 120.67C289.465 120.706 290.374 120.71 291.272 120.636C292.176 120.561 293.071 120.372 294.031 120.223C294.1 120.628 294.183 120.969 294.208 121.315C294.236 121.695 294.226 122.081 294.206 122.463C294.072 124.945 294.17 127.424 294.29 129.903C294.324 130.609 294.306 131.307 294.197 132.006C294.172 132.167 294.171 132.351 294.225 132.5C294.271 132.627 294.394 132.782 294.514 132.816C294.874 132.918 295.266 133.047 295.524 132.604C295.536 132.584 295.579 132.582 295.633 132.562C295.735 132.621 295.848 132.698 295.969 132.756C296.227 132.879 296.636 132.787 296.869 132.583C297.119 132.366 296.949 132.163 296.857 131.965C296.57 131.344 296.638 130.738 296.952 130.159C297.177 129.743 297.435 129.342 297.705 128.953C298.291 128.112 298.961 127.323 299.474 126.44C300.186 125.214 300.206 125.344 299.632 124.117C299.203 123.199 298.828 122.269 298.545 121.296C298.344 120.607 298.365 119.903 298.301 119.205C298.284 119.014 298.376 118.898 298.553 118.815C299.078 118.568 299.595 118.306 300.121 118.047C300.615 118.376 300.736 118.369 301.188 117.977C301.673 118.209 301.691 118.206 302.043 117.827C302.266 117.947 302.52 118.049 302.709 117.817C302.858 117.636 302.932 117.393 303.039 117.176C303.718 117.336 303.857 117.286 304.25 116.688C304.426 116.42 304.593 116.143 304.735 115.855C304.872 115.579 305.127 115.515 305.371 115.507C305.868 115.493 305.869 115.515 305.951 115.055C306.006 114.748 306.179 114.578 306.484 114.571C306.696 114.566 306.827 114.461 306.921 114.29C307.009 114.131 307.091 113.969 307.173 113.813C307.752 113.967 308.036 113.802 308.163 113.247C308.21 113.04 308.236 112.828 308.27 112.625C308.419 112.595 308.597 112.614 308.677 112.535C308.991 112.223 309.405 111.981 309.429 111.449C309.443 111.12 309.535 110.793 309.586 110.501C310.404 110.306 310.441 109.602 310.664 109.05C311.01 109.05 311.341 109.106 311.643 109.036C312.093 108.933 312.443 108.559 312.919 108.487C312.956 108.481 312.994 108.434 313.019 108.397C313.173 108.173 313.324 107.946 313.475 107.721C313.413 107.627 313.368 107.566 313.329 107.502ZM276.502 118.464C276.526 118.125 276.551 117.786 276.575 117.446C276.608 117.451 276.641 117.455 276.674 117.459C276.657 117.797 276.755 118.146 276.502 118.464ZM277.389 116.088C277.365 116.07 277.34 116.052 277.316 116.034C277.373 115.964 277.43 115.895 277.486 115.825C277.507 115.839 277.526 115.853 277.547 115.867C277.494 115.94 277.442 116.014 277.389 116.088ZM298.08 125.934C297.876 126.344 297.683 126.76 297.466 127.164C297.098 127.851 296.733 128.542 296.332 129.211C295.987 129.788 295.669 130.368 295.513 131.048C295.495 130.955 295.464 130.863 295.461 130.769C295.423 129.837 295.39 128.903 295.355 127.97C295.355 127.955 295.356 127.939 295.352 127.925C295.125 127.136 295.331 126.379 295.531 125.625C295.713 124.94 295.8 124.248 295.808 123.539C295.816 122.79 295.882 122.044 296.142 121.328C296.209 121.143 296.231 120.941 296.284 120.75C296.323 120.613 296.379 120.481 296.427 120.346C296.455 120.35 296.484 120.354 296.513 120.358C296.528 120.408 296.549 120.458 296.556 120.509C296.714 121.71 297.135 122.814 297.729 123.865C297.923 124.208 298.057 124.588 298.195 124.959C298.32 125.296 298.236 125.623 298.08 125.934Z" fill="#545418"/>
<path d="M1363.51 32.21C1363.51 32.21 1372.58 72.6793 1369.47 139H1360.46C1360.46 139 1366.91 64.3597 1360.9 32.515L1363.51 32.21Z" fill="#545418"/>
<path d="M1363.83 98.341C1363.82 98.3894 1364.77 98.629 1365.97 98.5637C1367.17 98.5048 1368.1 98.1715 1368.08 98.1247C1368.06 98.065 1367.13 98.3039 1365.96 98.3612C1364.79 98.4249 1363.84 98.2797 1363.83 98.341Z" fill="#545418"/>
<path d="M1364.71 90.039C1364.7 90.0915 1365.51 90.2504 1366.51 90.248C1367.52 90.2496 1368.32 90.0899 1368.32 90.0374C1368.31 89.9793 1367.5 90.0463 1366.51 90.0447C1365.52 90.0479 1364.72 89.981 1364.71 90.039Z" fill="#545418"/>
<path d="M1364.03 80.2415C1364.02 80.2923 1364.75 80.5077 1365.68 80.5263C1366.6 80.5497 1367.34 80.3665 1367.33 80.3157C1367.32 80.2568 1366.58 80.3463 1365.68 80.3238C1364.77 80.3052 1364.05 80.1826 1364.03 80.2415Z" fill="#545418"/>
<path d="M1364.85 71.3134C1364.84 71.3658 1365.54 71.4852 1366.4 71.415C1367.26 71.3489 1367.92 71.1213 1367.91 71.0705C1367.89 71.0132 1367.22 71.148 1366.38 71.2125C1365.54 71.2811 1364.85 71.2545 1364.85 71.3134Z" fill="#545418"/>
<path d="M1364.37 61.8942C1364.37 61.9474 1364.84 62.0216 1365.42 61.9329C1366 61.8474 1366.43 61.6384 1366.41 61.5884C1366.39 61.5335 1365.95 61.6505 1365.39 61.732C1364.84 61.8167 1364.38 61.8353 1364.37 61.8942Z" fill="#545418"/>
<path d="M1363.93 51.4248C1363.93 51.4797 1364.38 51.5531 1364.94 51.5192C1365.51 51.4869 1365.95 51.3594 1365.94 51.3062C1365.93 51.2497 1365.48 51.2852 1364.93 51.3167C1364.38 51.3498 1363.93 51.3675 1363.93 51.4248Z" fill="#545418"/>
<path d="M1362.22 40.9816C1362.23 41.0333 1362.66 41.0292 1363.18 40.913C1363.7 40.7896 1364.08 40.6064 1364.07 40.5556C1364.05 40.4991 1363.63 40.5959 1363.13 40.7154C1362.63 40.8275 1362.21 40.9227 1362.22 40.9816Z" fill="#545418"/>
<path d="M1364.79 107.537C1364.79 107.594 1365.5 107.639 1366.37 107.639C1367.23 107.639 1367.94 107.594 1367.94 107.537C1367.94 107.481 1367.23 107.436 1366.37 107.436C1365.5 107.436 1364.79 107.481 1364.79 107.537Z" fill="#545418"/>
<path d="M1362.52 115.156C1362.52 115.213 1363.23 115.258 1364.1 115.258C1364.97 115.258 1365.67 115.213 1365.67 115.156C1365.67 115.101 1364.97 115.055 1364.1 115.055C1363.23 115.055 1362.52 115.101 1362.52 115.156Z" fill="#545418"/>
<path d="M1338.64 0.0134164C1338.75 0.0440775 1338.87 0.0844218 1339 0.135255C1341.64 1.13658 1349.33 5.90357 1349.33 5.90357L1350.3 4.78282L1350.51 8.51218L1354.69 14.2531L1356.11 9.88788C1356.71 10.6899 1356.48 17.09 1356.48 17.09L1357.94 22.4993L1360.43 16.7552C1361.67 20.0391 1359.23 26.6167 1359.23 26.6167L1361.81 32.874C1363.69 29.4755 1365.99 18.5166 1359.58 8.89221C1353.17 -0.732134 1338.64 0.0134164 1338.64 0.0134164Z" fill="#545418"/>
<path d="M1339.22 0.285925C1339.22 0.289152 1339.26 0.294798 1339.34 0.301253C1339.43 0.307708 1339.55 0.316582 1339.69 0.327071C1339.99 0.355311 1340.45 0.356928 1341.02 0.423091C1342.18 0.537667 1343.85 0.781346 1345.84 1.36633C1347.83 1.95776 1350.14 2.90179 1352.44 4.40499C1353.58 5.16264 1354.71 6.05665 1355.79 7.08622C1356.85 8.13757 1357.85 9.32044 1358.72 10.6405C1360.41 13.3161 1361.43 16.2087 1361.91 18.9061C1362.17 20.2535 1362.31 21.5534 1362.37 22.7726C1362.45 23.9918 1362.43 25.1303 1362.41 26.1687C1362.33 28.2464 1362.16 29.9223 1362.02 31.0769C1361.96 31.6554 1361.89 32.1024 1361.86 32.4066C1361.84 32.5494 1361.83 32.664 1361.82 32.7536C1361.81 32.8318 1361.81 32.8722 1361.81 32.873C1361.81 32.8738 1361.82 32.8342 1361.84 32.7568C1361.85 32.668 1361.87 32.5551 1361.9 32.4131C1361.94 32.1097 1362.02 31.6651 1362.1 31.0866C1362.26 29.9336 1362.46 28.2569 1362.55 26.1735C1362.58 25.1319 1362.61 23.9885 1362.54 22.7629C1362.49 21.5373 1362.35 20.2293 1362.1 18.8714C1361.62 16.153 1360.59 13.2338 1358.89 10.5299C1358.01 9.19619 1357 8.00283 1355.93 6.94341C1354.84 5.90578 1353.69 5.00772 1352.54 4.24846C1350.22 2.74123 1347.89 1.80526 1345.88 1.22835C1343.88 0.657891 1342.19 0.435201 1341.03 0.344024C1340.45 0.289964 1340 0.300448 1339.69 0.285925C1339.55 0.283504 1339.43 0.281887 1339.34 0.280273C1339.26 0.280273 1339.22 0.28189 1339.22 0.285925Z" fill="#545418"/>
<path d="M1363.43 32.9432L1363.69 32.5728C1363.69 32.5728 1357.08 18.9827 1344.87 17.8918C1332.65 16.8009 1325.97 23.7642 1324.46 25.19C1322.95 26.6165 1319 31.8176 1319 31.8176L1327.12 29.5527C1327.12 29.5527 1332.58 22.7572 1335.53 22.3385C1335.53 22.3385 1328.05 30.0562 1326.9 35.4251C1326.9 35.4251 1332.44 32.9924 1333.51 32.9924C1333.51 32.9924 1336.32 27.9277 1339.84 26.6012L1336.68 31.7345L1344 29.5535L1346.6 26.9037L1347.02 29.05C1347.02 29.05 1353.59 27.3225 1363.43 32.9432Z" fill="#545418"/>
<path d="M1363.43 32.8928C1363.34 32.8735 1363.24 32.8565 1363.13 32.8428C1360.86 32.562 1353.56 33.3003 1353.56 33.3003L1353.27 31.9424L1351.76 34.998L1346.64 38.0536L1347.21 33.7699C1346.49 34.1919 1344.31 39.6835 1344.31 39.6835L1341.29 43.6218L1341.58 37.7139C1339.49 39.9546 1338.85 46.5411 1338.85 46.5411L1334.6 51.4299C1334.49 47.7635 1336.93 36.8304 1345.07 31.4485C1353.21 26.0683 1363.43 32.8928 1363.43 32.8928Z" fill="#545418"/>
<path d="M1363.39 32.8533C1364.67 30.3375 1369.83 25.1267 1369.83 25.1267L1368.35 23.8406L1371.69 24.0334L1377.74 20.4323L1374.98 18.4232C1375.84 17.9157 1380.95 19.0816 1380.95 19.0816L1385.94 17.7511L1382.3 15.6815C1385.7 14.8004 1390.17 16.9031 1390.17 16.9031L1397.37 15.3144C1394.19 13.0834 1382.87 7.51031 1372.62 12.8566C1362.37 18.203 1362.15 32.6887 1362.15 32.6887" fill="#545418"/>
<path d="M1362.73 32.5759C1362.82 32.5339 1363.27 32.8962 1363.39 32.8534C1365.78 31.9965 1372.03 33.1915 1372.03 33.1915L1372.02 31.7182L1374.38 34.4914L1380.65 36.3641L1379.01 32.0893C1379.9 32.3435 1383.56 37.4639 1383.56 37.4639L1388.23 41.7887L1386.5 35.7703C1387.67 37.2146 1391.11 43.1709 1391.11 43.1709L1396.87 47.152C1396.12 43.3411 1391.78 30.3876 1381.69 26.8729C1371.59 23.3566 1362.73 32.5759 1362.73 32.5759Z" fill="#545418"/>
<path d="M1337.22 21.2583C1337.23 21.2664 1337.32 21.2268 1337.51 21.1671C1337.7 21.1074 1337.98 21.0267 1338.35 20.9654C1338.72 20.9025 1339.18 20.8605 1339.71 20.8492C1340.24 20.8307 1340.85 20.875 1341.52 20.8896C1344.2 21.0066 1347.9 21.6924 1351.68 23.4167C1353.57 24.2687 1355.27 25.3169 1356.74 26.3819C1356.93 26.5143 1357.11 26.645 1357.29 26.7749C1357.47 26.9072 1357.64 27.0508 1357.81 27.1848C1358.14 27.4591 1358.47 27.7141 1358.78 27.9811C1359.38 28.5338 1359.96 29.022 1360.44 29.5336C1360.68 29.7813 1360.92 30.0169 1361.14 30.2404C1361.35 30.4752 1361.55 30.6979 1361.73 30.906C1362.1 31.3208 1362.42 31.679 1362.66 31.9953C1362.89 32.2923 1363.08 32.5287 1363.22 32.7029C1363.35 32.8635 1363.42 32.9458 1363.43 32.9418C1363.43 32.9378 1363.37 32.8474 1363.25 32.6787C1363.12 32.4988 1362.94 32.2543 1362.71 31.9469C1362.48 31.6226 1362.17 31.2562 1361.8 30.8326C1361.62 30.6212 1361.43 30.3905 1361.22 30.154C1361 29.9265 1360.77 29.6861 1360.53 29.4343C1360.05 28.9147 1359.47 28.4177 1358.87 27.8569C1358.57 27.5858 1358.23 27.3268 1357.9 27.0492C1357.73 26.9128 1357.56 26.7684 1357.38 26.6337C1357.2 26.503 1357.02 26.3698 1356.84 26.2359C1355.36 25.1563 1353.65 24.0969 1351.75 23.24C1347.95 21.5052 1344.21 20.8371 1341.53 20.754C1340.85 20.7475 1340.24 20.7129 1339.71 20.7419C1339.17 20.7637 1338.71 20.8161 1338.34 20.8912C1337.97 20.9646 1337.69 21.0582 1337.5 21.13C1337.41 21.1655 1337.34 21.1978 1337.29 21.2196C1337.24 21.2422 1337.22 21.2551 1337.22 21.2583Z" fill="#545418"/>
<path d="M1341.44 17.5884C1341.44 17.5949 1341.54 17.5989 1341.72 17.6005C1341.9 17.6062 1342.17 17.5901 1342.52 17.6078C1343.21 17.6191 1344.21 17.6893 1345.43 17.8991C1347.87 18.3017 1351.2 19.4483 1354.36 21.6841C1357.53 23.9183 1359.88 26.677 1361.39 28.7878C1362.15 29.8456 1362.72 30.7396 1363.1 31.3666C1363.3 31.6764 1363.44 31.9257 1363.54 32.0895C1363.64 32.2541 1363.69 32.3396 1363.7 32.3364C1363.7 32.3332 1363.66 32.2412 1363.57 32.0693C1363.48 31.8991 1363.35 31.6433 1363.16 31.3262C1362.8 30.6864 1362.24 29.7778 1361.49 28.7055C1360 26.5665 1357.65 23.7747 1354.46 21.5235C1351.27 19.2708 1347.91 18.1355 1345.45 17.7651C1344.22 17.5707 1343.21 17.5215 1342.52 17.5328C1342.17 17.5271 1341.9 17.5554 1341.72 17.5618C1341.54 17.5723 1341.44 17.5812 1341.44 17.5884Z" fill="#545418"/>
<path d="M1348 29.7043C1348 29.7188 1348.22 29.6978 1348.62 29.6631C1349.02 29.6276 1349.61 29.5808 1350.32 29.5574C1351.04 29.5348 1351.9 29.5437 1352.85 29.5961C1353.09 29.6107 1353.33 29.6252 1353.58 29.6397C1353.83 29.6542 1354.08 29.6704 1354.33 29.722C1354.83 29.8156 1355.35 29.9463 1355.9 30.0633C1356.44 30.1609 1356.94 30.3207 1357.43 30.4934C1357.92 30.6661 1358.39 30.8379 1358.83 31.009C1359.72 31.3487 1360.51 31.6795 1361.17 31.9659C1361.81 32.2507 1362.33 32.4855 1362.73 32.6639C1363.1 32.8309 1363.3 32.9221 1363.31 32.91C1363.31 32.9043 1363.26 32.8728 1363.17 32.8204C1363.08 32.7671 1362.94 32.6913 1362.76 32.5977C1362.41 32.4097 1361.88 32.1475 1361.23 31.8425C1360.57 31.5391 1359.78 31.1945 1358.9 30.8444C1358.45 30.6693 1357.98 30.4926 1357.49 30.3167C1357 30.1416 1356.48 29.9746 1355.93 29.8761C1355.4 29.7607 1354.88 29.6308 1354.36 29.538C1354.1 29.4864 1353.84 29.4695 1353.59 29.4582C1353.34 29.4453 1353.1 29.4331 1352.86 29.421C1351.9 29.3775 1351.04 29.3831 1350.32 29.4227C1349.6 29.463 1349.02 29.5316 1348.61 29.5897C1348.41 29.6171 1348.26 29.6454 1348.16 29.6647C1348.05 29.6841 1348 29.6978 1348 29.7043Z" fill="#545418"/>
<path d="M1362.9 30.192C1362.91 30.1944 1362.94 30.1129 1363 29.958C1363.06 29.7821 1363.15 29.5553 1363.24 29.2754C1363.3 29.1245 1363.35 28.9599 1363.42 28.7808C1363.48 28.6016 1363.57 28.4112 1363.65 28.2038C1363.82 27.7923 1363.99 27.3139 1364.25 26.8112C1364.37 26.557 1364.49 26.2908 1364.62 26.014C1364.75 25.7381 1364.92 25.4629 1365.07 25.1708C1365.37 24.5818 1365.75 23.9888 1366.14 23.3554C1366.95 22.1144 1367.93 20.804 1369.07 19.5332C1370.23 18.2737 1371.45 17.182 1372.61 16.2606C1373.21 15.8176 1373.77 15.3843 1374.32 15.0325C1374.6 14.8526 1374.86 14.6662 1375.12 14.5097C1375.39 14.3547 1375.64 14.2055 1375.88 14.0634C1376.36 13.7665 1376.82 13.5511 1377.21 13.3421C1377.41 13.2404 1377.6 13.1404 1377.77 13.0581C1377.94 12.9806 1378.1 12.9088 1378.25 12.8427C1378.52 12.7176 1378.73 12.6167 1378.9 12.5385C1379.05 12.4667 1379.13 12.4263 1379.13 12.4198C1379.12 12.4134 1379.04 12.4416 1378.89 12.5005C1378.71 12.5699 1378.49 12.6595 1378.21 12.77C1378.07 12.8314 1377.9 12.8975 1377.73 12.9693C1377.55 13.0468 1377.37 13.1428 1377.16 13.2396C1376.76 13.4397 1376.3 13.6479 1375.81 13.9384C1375.57 14.078 1375.31 14.224 1375.04 14.3765C1374.77 14.5306 1374.51 14.7146 1374.23 14.8921C1373.67 15.2399 1373.1 15.6707 1372.5 16.1129C1371.32 17.0327 1370.09 18.1277 1368.92 19.3961C1367.77 20.6758 1366.79 21.9998 1365.98 23.2545C1365.59 23.8944 1365.22 24.4955 1364.92 25.0909C1364.77 25.3863 1364.61 25.6646 1364.48 25.9446C1364.35 26.2246 1364.23 26.4941 1364.11 26.7515C1363.87 27.2606 1363.7 27.7447 1363.54 28.1619C1363.46 28.3717 1363.39 28.5653 1363.32 28.7469C1363.27 28.9284 1363.22 29.0954 1363.17 29.2487C1363.08 29.5344 1363.01 29.7651 1362.96 29.9443C1362.92 30.1056 1362.9 30.1904 1362.9 30.192Z" fill="#545418"/>
<path d="M1369.98 14.7759C1369.97 14.7654 1369.79 14.9244 1369.48 15.2205C1369.32 15.3665 1369.13 15.5505 1368.93 15.7764C1368.72 16.0007 1368.47 16.2484 1368.23 16.5478C1367.72 17.1287 1367.17 17.8622 1366.6 18.7094C1366.05 19.5647 1365.49 20.5386 1364.99 21.6044C1364.5 22.6751 1364.12 23.7313 1363.83 24.7068C1363.55 25.6864 1363.35 26.5836 1363.23 27.3453C1363.16 27.7237 1363.13 28.0715 1363.09 28.3749C1363.05 28.6783 1363.03 28.9405 1363.02 29.1559C1363 29.586 1362.99 29.8232 1363.01 29.824C1363.02 29.8248 1363.06 29.5892 1363.1 29.1632C1363.13 28.9502 1363.15 28.6896 1363.2 28.3894C1363.25 28.0892 1363.29 27.7447 1363.37 27.3703C1363.51 26.6167 1363.72 25.7299 1364.01 24.7609C1364.31 23.7959 1364.69 22.751 1365.18 21.6899C1365.67 20.6338 1366.22 19.6655 1366.76 18.8119C1367.31 17.9654 1367.85 17.2296 1368.34 16.6406C1368.57 16.3372 1368.81 16.0846 1369.01 15.8539C1369.21 15.6215 1369.39 15.4303 1369.53 15.2761C1369.83 14.9639 1369.99 14.7864 1369.98 14.7759Z" fill="#545418"/>
<path d="M1388.22 34.5378C1388.23 34.5329 1388.17 34.4603 1388.05 34.3264C1387.94 34.1949 1387.78 33.9891 1387.54 33.7519C1387.09 33.2629 1386.38 32.5948 1385.43 31.8751C1384.47 31.1538 1383.25 30.405 1381.79 29.7813C1380.33 29.156 1378.64 28.6767 1376.82 28.4734C1375 28.2862 1373.24 28.3943 1371.69 28.6969C1370.13 28.9978 1368.77 29.469 1367.69 29.9709C1366.6 30.4712 1365.77 30.9738 1365.22 31.3563C1364.94 31.5378 1364.74 31.7057 1364.6 31.8089C1364.46 31.9163 1364.39 31.9752 1364.39 31.9808C1364.4 31.9865 1364.48 31.938 1364.62 31.842C1364.77 31.7492 1364.98 31.5927 1365.26 31.4225C1365.82 31.0626 1366.66 30.5825 1367.75 30.1024C1368.83 29.6215 1370.18 29.1681 1371.72 28.8808C1373.26 28.5912 1375 28.4903 1376.8 28.6751C1378.6 28.8768 1380.27 29.344 1381.72 29.954C1383.16 30.5623 1384.38 31.2901 1385.34 31.9913C1386.3 32.6909 1387.02 33.338 1387.49 33.8076C1387.73 34.0351 1387.9 34.232 1388.02 34.3538C1388.15 34.4789 1388.21 34.5426 1388.22 34.5378Z" fill="#545418"/>
<path d="M1285.51 69.21C1285.51 69.21 1294.58 109.679 1291.47 176H1282.46C1282.46 176 1288.91 101.36 1282.9 69.515L1285.51 69.21Z" fill="#545418"/>
<path d="M1285.83 135.341C1285.82 135.389 1286.77 135.629 1287.97 135.564C1289.17 135.505 1290.1 135.172 1290.08 135.125C1290.06 135.065 1289.13 135.304 1287.96 135.361C1286.79 135.425 1285.84 135.28 1285.83 135.341Z" fill="#545418"/>
<path d="M1286.71 127.039C1286.7 127.091 1287.51 127.25 1288.51 127.248C1289.52 127.25 1290.32 127.09 1290.32 127.037C1290.31 126.979 1289.5 127.046 1288.51 127.045C1287.52 127.048 1286.72 126.981 1286.71 127.039Z" fill="#545418"/>
<path d="M1286.03 117.241C1286.02 117.292 1286.75 117.508 1287.68 117.526C1288.6 117.55 1289.34 117.367 1289.33 117.316C1289.32 117.257 1288.58 117.346 1287.68 117.324C1286.77 117.305 1286.05 117.183 1286.03 117.241Z" fill="#545418"/>
<path d="M1286.85 108.313C1286.84 108.366 1287.54 108.485 1288.4 108.415C1289.26 108.349 1289.92 108.121 1289.91 108.07C1289.89 108.013 1289.22 108.148 1288.38 108.213C1287.54 108.281 1286.85 108.254 1286.85 108.313Z" fill="#545418"/>
<path d="M1286.37 98.8942C1286.37 98.9474 1286.84 99.0216 1287.42 98.9329C1288 98.8474 1288.43 98.6384 1288.41 98.5884C1288.39 98.5335 1287.95 98.6505 1287.39 98.732C1286.84 98.8167 1286.38 98.8353 1286.37 98.8942Z" fill="#545418"/>
<path d="M1285.93 88.4248C1285.93 88.4797 1286.38 88.5531 1286.94 88.5192C1287.51 88.4869 1287.95 88.3594 1287.94 88.3062C1287.93 88.2497 1287.48 88.2852 1286.93 88.3167C1286.38 88.3498 1285.93 88.3675 1285.93 88.4248Z" fill="#545418"/>
<path d="M1284.22 77.9816C1284.23 78.0333 1284.66 78.0292 1285.18 77.913C1285.7 77.7896 1286.08 77.6064 1286.07 77.5556C1286.05 77.4991 1285.63 77.5959 1285.13 77.7154C1284.63 77.8275 1284.21 77.9227 1284.22 77.9816Z" fill="#545418"/>
<path d="M1286.79 144.537C1286.79 144.594 1287.5 144.639 1288.37 144.639C1289.23 144.639 1289.94 144.594 1289.94 144.537C1289.94 144.481 1289.23 144.436 1288.37 144.436C1287.5 144.436 1286.79 144.481 1286.79 144.537Z" fill="#545418"/>
<path d="M1284.52 152.156C1284.52 152.213 1285.23 152.258 1286.1 152.258C1286.97 152.258 1287.67 152.213 1287.67 152.156C1287.67 152.101 1286.97 152.055 1286.1 152.055C1285.23 152.055 1284.52 152.101 1284.52 152.156Z" fill="#545418"/>
<path d="M1260.64 37.0134C1260.75 37.0441 1260.87 37.0844 1261 37.1353C1263.64 38.1366 1271.33 42.9036 1271.33 42.9036L1272.3 41.7828L1272.51 45.5122L1276.69 51.2531L1278.11 46.8879C1278.71 47.6899 1278.48 54.09 1278.48 54.09L1279.94 59.4993L1282.43 53.7552C1283.67 57.0391 1281.23 63.6167 1281.23 63.6167L1283.81 69.874C1285.69 66.4755 1287.99 55.5166 1281.58 45.8922C1275.17 36.2679 1260.64 37.0134 1260.64 37.0134Z" fill="#545418"/>
<path d="M1261.22 37.2859C1261.22 37.2892 1261.26 37.2948 1261.34 37.3013C1261.43 37.3077 1261.55 37.3166 1261.69 37.3271C1261.99 37.3553 1262.45 37.3569 1263.02 37.4231C1264.18 37.5377 1265.85 37.7813 1267.84 38.3663C1269.83 38.9578 1272.14 39.9018 1274.44 41.405C1275.58 42.1626 1276.71 43.0567 1277.79 44.0862C1278.85 45.1376 1279.85 46.3204 1280.72 47.6405C1282.41 50.3161 1283.43 53.2087 1283.91 55.9061C1284.17 57.2535 1284.31 58.5534 1284.37 59.7726C1284.45 60.9918 1284.43 62.1303 1284.41 63.1687C1284.33 65.2464 1284.16 66.9223 1284.02 68.0769C1283.96 68.6554 1283.89 69.1024 1283.86 69.4066C1283.84 69.5494 1283.83 69.664 1283.82 69.7536C1283.81 69.8318 1283.81 69.8722 1283.81 69.873C1283.81 69.8738 1283.82 69.8342 1283.84 69.7568C1283.85 69.668 1283.87 69.5551 1283.9 69.4131C1283.94 69.1097 1284.02 68.6651 1284.1 68.0866C1284.26 66.9336 1284.46 65.2569 1284.55 63.1735C1284.58 62.1319 1284.61 60.9885 1284.54 59.7629C1284.49 58.5373 1284.35 57.2293 1284.1 55.8714C1283.62 53.153 1282.59 50.2338 1280.89 47.5299C1280.01 46.1962 1279 45.0028 1277.93 43.9434C1276.84 42.9058 1275.69 42.0077 1274.54 41.2485C1272.22 39.7412 1269.89 38.8053 1267.88 38.2283C1265.88 37.6579 1264.19 37.4352 1263.03 37.344C1262.45 37.29 1262 37.3004 1261.69 37.2859C1261.55 37.2835 1261.43 37.2819 1261.34 37.2803C1261.26 37.2803 1261.22 37.2819 1261.22 37.2859Z" fill="#545418"/>
<path d="M1285.43 69.9432L1285.69 69.5728C1285.69 69.5728 1279.08 55.9827 1266.87 54.8918C1254.65 53.8009 1247.97 60.7642 1246.46 62.19C1244.95 63.6165 1241 68.8176 1241 68.8176L1249.12 66.5527C1249.12 66.5527 1254.58 59.7572 1257.53 59.3385C1257.53 59.3385 1250.05 67.0562 1248.9 72.4251C1248.9 72.4251 1254.44 69.9924 1255.51 69.9924C1255.51 69.9924 1258.32 64.9277 1261.84 63.6012L1258.68 68.7345L1266 66.5535L1268.6 63.9037L1269.02 66.05C1269.02 66.05 1275.59 64.3225 1285.43 69.9432Z" fill="#545418"/>
<path d="M1285.43 69.8928C1285.34 69.8735 1285.24 69.8565 1285.13 69.8428C1282.86 69.562 1275.56 70.3003 1275.56 70.3003L1275.27 68.9424L1273.76 71.998L1268.64 75.0536L1269.21 70.7699C1268.49 71.1919 1266.31 76.6835 1266.31 76.6835L1263.29 80.6218L1263.58 74.7139C1261.49 76.9546 1260.85 83.5411 1260.85 83.5411L1256.6 88.4299C1256.49 84.7635 1258.93 73.8304 1267.07 68.4485C1275.21 63.0683 1285.43 69.8928 1285.43 69.8928Z" fill="#545418"/>
<path d="M1285.39 69.8533C1286.67 67.3375 1291.83 62.1267 1291.83 62.1267L1290.35 60.8406L1293.69 61.0334L1299.74 57.4323L1296.98 55.4232C1297.84 54.9157 1302.95 56.0816 1302.95 56.0816L1307.94 54.7511L1304.3 52.6815C1307.7 51.8004 1312.17 53.9031 1312.17 53.9031L1319.37 52.3144C1316.19 50.0834 1304.87 44.5103 1294.62 49.8566C1284.37 55.203 1284.15 69.6887 1284.15 69.6887" fill="#545418"/>
<path d="M1284.73 69.5759C1284.82 69.5339 1285.27 69.8962 1285.39 69.8534C1287.78 68.9965 1294.03 70.1915 1294.03 70.1915L1294.02 68.7182L1296.38 71.4914L1302.65 73.3641L1301.01 69.0893C1301.9 69.3435 1305.56 74.4639 1305.56 74.4639L1310.23 78.7887L1308.5 72.7703C1309.67 74.2146 1313.11 80.1709 1313.11 80.1709L1318.87 84.152C1318.12 80.3411 1313.78 67.3876 1303.69 63.8729C1293.59 60.3566 1284.73 69.5759 1284.73 69.5759Z" fill="#545418"/>
<path d="M1259.22 58.2583C1259.23 58.2664 1259.32 58.2268 1259.51 58.1671C1259.7 58.1074 1259.98 58.0267 1260.35 57.9654C1260.72 57.9025 1261.18 57.8605 1261.71 57.8492C1262.24 57.8307 1262.85 57.875 1263.52 57.8896C1266.2 58.0066 1269.9 58.6924 1273.68 60.4167C1275.57 61.2687 1277.27 62.3169 1278.74 63.3819C1278.93 63.5143 1279.11 63.645 1279.29 63.7749C1279.47 63.9072 1279.64 64.0508 1279.81 64.1848C1280.14 64.4591 1280.47 64.7141 1280.78 64.9811C1281.38 65.5338 1281.96 66.022 1282.44 66.5336C1282.68 66.7813 1282.92 67.0169 1283.14 67.2404C1283.35 67.4752 1283.55 67.6979 1283.73 67.906C1284.1 68.3208 1284.42 68.679 1284.66 68.9953C1284.89 69.2923 1285.08 69.5287 1285.22 69.7029C1285.35 69.8635 1285.42 69.9458 1285.43 69.9418C1285.43 69.9378 1285.37 69.8474 1285.25 69.6787C1285.12 69.4988 1284.94 69.2543 1284.71 68.9469C1284.48 68.6226 1284.17 68.2562 1283.8 67.8326C1283.62 67.6212 1283.43 67.3905 1283.22 67.154C1283 66.9265 1282.77 66.6861 1282.53 66.4343C1282.05 65.9147 1281.47 65.4177 1280.87 64.8569C1280.57 64.5858 1280.23 64.3268 1279.9 64.0492C1279.73 63.9128 1279.56 63.7684 1279.38 63.6337C1279.2 63.503 1279.02 63.3698 1278.84 63.2359C1277.36 62.1563 1275.65 61.0969 1273.75 60.24C1269.95 58.5052 1266.21 57.8371 1263.53 57.754C1262.85 57.7475 1262.24 57.7129 1261.71 57.7419C1261.17 57.7637 1260.71 57.8161 1260.34 57.8912C1259.97 57.9646 1259.69 58.0582 1259.5 58.13C1259.41 58.1655 1259.34 58.1978 1259.29 58.2196C1259.24 58.2422 1259.22 58.2551 1259.22 58.2583Z" fill="#545418"/>
<path d="M1263.44 54.5884C1263.44 54.5949 1263.54 54.5989 1263.72 54.6005C1263.9 54.6062 1264.17 54.5901 1264.52 54.6078C1265.21 54.6191 1266.21 54.6893 1267.43 54.8991C1269.87 55.3017 1273.2 56.4483 1276.36 58.6841C1279.53 60.9183 1281.88 63.677 1283.39 65.7878C1284.15 66.8456 1284.72 67.7396 1285.1 68.3666C1285.3 68.6764 1285.44 68.9257 1285.54 69.0895C1285.64 69.2541 1285.69 69.3396 1285.7 69.3364C1285.7 69.3332 1285.66 69.2412 1285.57 69.0693C1285.48 68.8991 1285.35 68.6433 1285.16 68.3262C1284.8 67.6864 1284.24 66.7778 1283.49 65.7055C1282 63.5665 1279.65 60.7747 1276.46 58.5235C1273.27 56.2708 1269.91 55.1355 1267.45 54.7651C1266.22 54.5707 1265.21 54.5215 1264.52 54.5328C1264.17 54.5271 1263.9 54.5554 1263.72 54.5618C1263.54 54.5723 1263.44 54.5812 1263.44 54.5884Z" fill="#545418"/>
<path d="M1270 66.7043C1270 66.7188 1270.22 66.6978 1270.62 66.6631C1271.02 66.6276 1271.61 66.5808 1272.32 66.5574C1273.04 66.5348 1273.9 66.5437 1274.85 66.5961C1275.09 66.6107 1275.33 66.6252 1275.58 66.6397C1275.83 66.6542 1276.08 66.6704 1276.33 66.722C1276.83 66.8156 1277.35 66.9463 1277.9 67.0633C1278.44 67.1609 1278.94 67.3207 1279.43 67.4934C1279.92 67.6661 1280.39 67.8379 1280.83 68.009C1281.72 68.3487 1282.51 68.6795 1283.17 68.9659C1283.81 69.2507 1284.33 69.4855 1284.73 69.6639C1285.1 69.8309 1285.3 69.9221 1285.31 69.91C1285.31 69.9043 1285.26 69.8728 1285.17 69.8204C1285.08 69.7671 1284.94 69.6913 1284.76 69.5977C1284.41 69.4097 1283.88 69.1475 1283.23 68.8425C1282.57 68.5391 1281.78 68.1945 1280.9 67.8444C1280.45 67.6693 1279.98 67.4926 1279.49 67.3167C1279 67.1416 1278.48 66.9746 1277.93 66.8761C1277.4 66.7607 1276.88 66.6308 1276.36 66.538C1276.1 66.4864 1275.84 66.4695 1275.59 66.4582C1275.34 66.4453 1275.1 66.4331 1274.86 66.421C1273.9 66.3775 1273.04 66.3831 1272.32 66.4227C1271.6 66.463 1271.02 66.5316 1270.61 66.5897C1270.41 66.6171 1270.26 66.6454 1270.16 66.6647C1270.05 66.6841 1270 66.6978 1270 66.7043Z" fill="#545418"/>
<path d="M1284.9 67.192C1284.91 67.1944 1284.94 67.1129 1285 66.958C1285.06 66.7821 1285.15 66.5553 1285.24 66.2754C1285.3 66.1245 1285.35 65.9599 1285.42 65.7808C1285.48 65.6016 1285.57 65.4112 1285.65 65.2038C1285.82 64.7923 1285.99 64.3139 1286.25 63.8112C1286.37 63.557 1286.49 63.2908 1286.62 63.014C1286.75 62.7381 1286.92 62.4629 1287.07 62.1708C1287.37 61.5818 1287.75 60.9888 1288.14 60.3554C1288.95 59.1144 1289.93 57.804 1291.07 56.5332C1292.23 55.2737 1293.45 54.182 1294.61 53.2606C1295.21 52.8176 1295.77 52.3843 1296.32 52.0325C1296.6 51.8526 1296.86 51.6662 1297.12 51.5097C1297.39 51.3547 1297.64 51.2055 1297.88 51.0634C1298.36 50.7665 1298.82 50.5511 1299.21 50.3421C1299.41 50.2404 1299.6 50.1404 1299.77 50.0581C1299.94 49.9806 1300.1 49.9088 1300.25 49.8427C1300.52 49.7176 1300.73 49.6167 1300.9 49.5385C1301.05 49.4667 1301.13 49.4263 1301.13 49.4198C1301.12 49.4134 1301.04 49.4416 1300.89 49.5005C1300.71 49.5699 1300.49 49.6595 1300.21 49.77C1300.07 49.8314 1299.9 49.8975 1299.73 49.9693C1299.55 50.0468 1299.37 50.1428 1299.16 50.2396C1298.76 50.4397 1298.3 50.6479 1297.81 50.9384C1297.57 51.078 1297.31 51.224 1297.04 51.3765C1296.77 51.5306 1296.51 51.7146 1296.23 51.8921C1295.67 52.2399 1295.1 52.6707 1294.5 53.1129C1293.32 54.0327 1292.09 55.1277 1290.92 56.3961C1289.77 57.6758 1288.79 58.9998 1287.98 60.2545C1287.59 60.8944 1287.22 61.4955 1286.92 62.0909C1286.77 62.3863 1286.61 62.6646 1286.48 62.9446C1286.35 63.2246 1286.23 63.4941 1286.11 63.7515C1285.87 64.2606 1285.7 64.7447 1285.54 65.1619C1285.46 65.3717 1285.39 65.5653 1285.32 65.7469C1285.27 65.9284 1285.22 66.0954 1285.17 66.2487C1285.08 66.5344 1285.01 66.7651 1284.96 66.9443C1284.92 67.1056 1284.9 67.1904 1284.9 67.192Z" fill="#545418"/>
<path d="M1291.98 51.7759C1291.97 51.7654 1291.79 51.9244 1291.48 52.2205C1291.32 52.3665 1291.13 52.5505 1290.93 52.7764C1290.72 53.0007 1290.47 53.2484 1290.23 53.5478C1289.72 54.1287 1289.17 54.8622 1288.6 55.7094C1288.05 56.5647 1287.49 57.5386 1286.99 58.6044C1286.5 59.6751 1286.12 60.7313 1285.83 61.7068C1285.55 62.6864 1285.35 63.5836 1285.23 64.3453C1285.16 64.7237 1285.13 65.0715 1285.09 65.3749C1285.05 65.6783 1285.03 65.9405 1285.02 66.1559C1285 66.586 1284.99 66.8232 1285.01 66.824C1285.02 66.8248 1285.06 66.5892 1285.1 66.1632C1285.13 65.9502 1285.15 65.6896 1285.2 65.3894C1285.25 65.0892 1285.29 64.7447 1285.37 64.3703C1285.51 63.6167 1285.72 62.7299 1286.01 61.7609C1286.31 60.7959 1286.69 59.751 1287.18 58.6899C1287.67 57.6338 1288.22 56.6655 1288.76 55.8119C1289.31 54.9654 1289.85 54.2296 1290.34 53.6406C1290.57 53.3372 1290.81 53.0846 1291.01 52.8539C1291.21 52.6215 1291.39 52.4303 1291.53 52.2761C1291.83 51.9639 1291.99 51.7864 1291.98 51.7759Z" fill="#545418"/>
<path d="M1310.22 71.5378C1310.23 71.5329 1310.17 71.4603 1310.05 71.3264C1309.94 71.1949 1309.78 70.9891 1309.54 70.7519C1309.09 70.2629 1308.38 69.5948 1307.43 68.8751C1306.47 68.1538 1305.25 67.405 1303.79 66.7813C1302.33 66.156 1300.64 65.6767 1298.82 65.4734C1297 65.2862 1295.24 65.3943 1293.69 65.6969C1292.13 65.9978 1290.77 66.469 1289.69 66.9709C1288.6 67.4712 1287.77 67.9738 1287.22 68.3563C1286.94 68.5378 1286.74 68.7057 1286.6 68.8089C1286.46 68.9163 1286.39 68.9752 1286.39 68.9808C1286.4 68.9865 1286.48 68.938 1286.62 68.842C1286.77 68.7492 1286.98 68.5927 1287.26 68.4225C1287.82 68.0626 1288.66 67.5825 1289.75 67.1024C1290.83 66.6215 1292.18 66.1681 1293.72 65.8808C1295.26 65.5912 1297 65.4903 1298.8 65.6751C1300.6 65.8768 1302.27 66.344 1303.72 66.954C1305.16 67.5623 1306.38 68.2901 1307.34 68.9913C1308.3 69.6909 1309.02 70.338 1309.49 70.8076C1309.73 71.0351 1309.9 71.232 1310.02 71.3538C1310.15 71.4789 1310.21 71.5426 1310.22 71.5378Z" fill="#545418"/>
<path d="M127.123 53.5146C127.123 53.5146 118.252 93.1108 121.299 158H130.109C130.109 158 123.806 84.9705 129.687 53.8128L127.123 53.5146Z" fill="#545418"/>
<path d="M126.815 118.219C126.828 118.266 125.895 118.501 124.72 118.437C123.545 118.379 122.64 118.053 122.656 118.008C122.672 117.948 123.582 118.183 124.73 118.239C125.877 118.301 126.807 118.159 126.815 118.219Z" fill="#545418"/>
<path d="M125.953 110.096C125.96 110.148 125.174 110.303 124.189 110.301C123.204 110.302 122.418 110.146 122.426 110.095C122.433 110.037 123.22 110.104 124.189 110.102C125.159 110.104 125.945 110.039 125.953 110.096Z" fill="#545418"/>
<path d="M126.616 100.509C126.63 100.558 125.918 100.769 125.01 100.787C124.101 100.809 123.381 100.631 123.392 100.581C123.401 100.523 124.119 100.611 125.005 100.589C125.89 100.571 126.604 100.451 126.616 100.509Z" fill="#545418"/>
<path d="M125.819 91.7742C125.825 91.8253 125.147 91.942 124.305 91.8733C123.463 91.8085 122.811 91.5855 122.825 91.536C122.84 91.48 123.498 91.6119 124.32 91.6751C125.142 91.7422 125.814 91.7166 125.819 91.7742Z" fill="#545418"/>
<path d="M126.284 82.5578C126.288 82.6106 125.825 82.6825 125.258 82.5962C124.692 82.5123 124.27 82.3077 124.289 82.2589C124.308 82.2053 124.744 82.3196 125.288 82.3996C125.831 82.4827 126.281 82.5011 126.284 82.5578Z" fill="#545418"/>
<path d="M126.715 72.3148C126.719 72.3684 126.275 72.4403 125.724 72.4068C125.173 72.3748 124.741 72.2509 124.751 72.1981C124.761 72.143 125.199 72.1773 125.736 72.2085C126.273 72.2413 126.712 72.2589 126.715 72.3148Z" fill="#545418"/>
<path d="M128.387 62.0957C128.38 62.1469 127.961 62.1421 127.453 62.0286C126.946 61.9079 126.568 61.728 126.583 61.6793C126.6 61.6241 127.008 61.7184 127.498 61.8351C127.989 61.9454 128.396 62.0382 128.387 62.0957Z" fill="#545418"/>
<path d="M125.875 127.216C125.875 127.271 125.185 127.315 124.334 127.315C123.483 127.315 122.793 127.271 122.793 127.216C122.793 127.161 123.483 127.117 124.334 127.117C125.185 127.117 125.875 127.162 125.875 127.216Z" fill="#545418"/>
<path d="M128.094 134.671C128.094 134.727 127.404 134.77 126.554 134.77C125.703 134.77 125.013 134.726 125.013 134.671C125.013 134.617 125.703 134.572 126.554 134.572C127.404 134.572 128.094 134.616 128.094 134.671Z" fill="#545418"/>
<path d="M151.457 22.0131C151.353 22.0427 151.236 22.0827 151.106 22.1322C148.525 23.1122 140.999 27.7763 140.999 27.7763L140.05 26.6796L139.847 30.3285L135.754 35.9454L134.369 31.6746C133.786 32.4595 134.006 38.7214 134.006 38.7214L132.579 44.0138L130.136 38.3937C128.924 41.607 131.313 48.0424 131.313 48.0424L128.79 54.1644C126.951 50.8392 124.704 40.1171 130.973 30.7002C137.242 21.2834 151.457 22.0131 151.457 22.0131Z" fill="#545418"/>
<path d="M150.89 22.279C150.89 22.2822 150.851 22.2878 150.774 22.2942C150.687 22.3006 150.575 22.3086 150.434 22.319C150.135 22.3462 149.693 22.3486 149.127 22.4125C147.997 22.5252 146.361 22.7634 144.412 23.3357C142.47 23.9144 140.207 24.8377 137.96 26.3092C136.843 27.051 135.735 27.9247 134.68 28.9326C133.647 29.9613 132.668 31.1188 131.817 32.4105C130.165 35.0283 129.161 37.8587 128.69 40.4973C128.44 41.8153 128.301 43.0871 128.242 44.2797C128.166 45.4723 128.182 46.5865 128.205 47.6033C128.278 49.6359 128.45 51.2754 128.586 52.4056C128.646 52.9715 128.712 53.4088 128.745 53.7069C128.761 53.8468 128.774 53.9587 128.783 54.0458C128.791 54.1226 128.793 54.1617 128.79 54.1625C128.787 54.1633 128.778 54.125 128.763 54.049C128.748 53.9627 128.73 53.8516 128.706 53.7125C128.66 53.416 128.582 52.9803 128.51 52.4152C128.35 51.2874 128.157 49.6471 128.066 47.6089C128.034 46.5897 128.01 45.4707 128.078 44.2717C128.13 43.0727 128.265 41.793 128.511 40.4645C128.975 37.8051 129.982 34.9483 131.651 32.3026C132.512 30.9973 133.501 29.8295 134.546 28.7935C135.612 27.7784 136.733 26.8999 137.861 26.1566C140.131 24.6818 142.415 23.7658 144.373 23.2015C146.339 22.6427 147.986 22.4253 149.121 22.3358C149.689 22.283 150.134 22.2934 150.433 22.279C150.574 22.2766 150.687 22.275 150.774 22.2734C150.851 22.2742 150.89 22.2758 150.89 22.279Z" fill="#545418"/>
<path d="M127.204 54.2315L126.95 53.8694C126.95 53.8694 133.418 40.5726 145.369 39.5055C157.32 38.4384 163.858 45.251 165.335 46.6467C166.811 48.0423 170.677 53.1308 170.677 53.1308L162.734 50.9143C162.734 50.9143 157.391 44.2655 154.509 43.8554C154.509 43.8554 161.82 51.4066 162.945 56.6598C162.945 56.6598 157.532 54.2794 156.477 54.2794C156.477 54.2794 153.736 49.3236 150.291 48.0263L153.384 53.0485L146.213 50.9143L143.675 48.322L143.261 50.4219C143.26 50.4219 136.835 48.7321 127.204 54.2315Z" fill="#545418"/>
<path d="M127.204 54.1825C127.29 54.1633 127.39 54.1473 127.501 54.1329C129.723 53.858 136.862 54.5806 136.862 54.5806L137.146 53.2521L138.626 56.2415L143.633 59.231L143.073 55.0394C143.781 55.4526 145.909 60.8257 145.909 60.8257L148.873 64.6792L148.584 58.8993C150.632 61.0919 151.258 67.536 151.258 67.536L155.412 72.3192C155.526 68.7318 153.136 58.0352 145.17 52.7693C137.203 47.5049 127.204 54.1825 127.204 54.1825Z" fill="#545418"/>
<path d="M127.242 54.1439C125.993 51.682 120.945 46.5839 120.945 46.5839L122.392 45.3257L119.121 45.5144L113.208 41.9909L115.904 40.0254C115.061 39.529 110.062 40.6697 110.062 40.6697L105.181 39.3676L108.745 37.3429C105.421 36.4804 101.04 38.5387 101.04 38.5387L94 36.984C97.1102 34.801 108.185 29.3488 118.216 34.5796C128.246 39.8104 128.458 53.984 128.458 53.984" fill="#545418"/>
<path d="M127.893 53.8717C127.805 53.831 127.36 54.1851 127.241 54.1435C124.902 53.305 118.794 54.4744 118.794 54.4744L118.802 53.0332L116.489 55.747L110.356 57.579L111.96 53.3961C111.095 53.6455 107.512 58.6549 107.512 58.6549L102.944 62.8865L104.632 56.9979C103.488 58.4111 100.123 64.239 100.123 64.239L94.4873 68.1341C95.2179 64.406 99.4631 51.7319 109.342 48.2924C119.221 44.8513 127.893 53.8717 127.893 53.8717Z" fill="#545418"/>
<path d="M152.847 42.799C152.844 42.807 152.749 42.7686 152.563 42.7095C152.378 42.6511 152.102 42.572 151.741 42.512C151.38 42.4505 150.932 42.4097 150.411 42.3985C149.89 42.3809 149.296 42.4233 148.64 42.4385C146.023 42.5528 142.396 43.2234 138.701 44.9108C136.853 45.7445 135.187 46.77 133.746 47.8124C133.565 47.9419 133.387 48.0698 133.21 48.196C133.037 48.3263 132.873 48.4662 132.707 48.5973C132.379 48.8659 132.053 49.1153 131.752 49.3766C131.165 49.917 130.596 50.395 130.129 50.8954C129.889 51.1376 129.661 51.3686 129.445 51.5876C129.24 51.8178 129.047 52.0352 128.866 52.239C128.503 52.6451 128.192 52.996 127.96 53.3045C127.728 53.5955 127.542 53.8265 127.405 53.9967C127.277 54.1542 127.207 54.2341 127.202 54.2302C127.198 54.2262 127.258 54.1374 127.377 53.9728C127.509 53.7961 127.685 53.5571 127.907 53.2566C128.132 52.9392 128.437 52.5803 128.794 52.1663C128.972 51.9593 129.159 51.7331 129.365 51.5021C129.58 51.279 129.807 51.044 130.044 50.7978C130.508 50.2895 131.074 49.8027 131.661 49.2543C131.962 48.9898 132.288 48.7364 132.615 48.4638C132.78 48.3303 132.945 48.1888 133.118 48.057C133.295 47.9291 133.473 47.7988 133.655 47.6677C135.098 46.6118 136.772 45.5751 138.632 44.7366C142.349 43.0388 146.003 42.3849 148.633 42.3042C149.293 42.2978 149.888 42.2642 150.412 42.2922C150.935 42.313 151.386 42.365 151.75 42.4385C152.113 42.5104 152.389 42.6016 152.572 42.6719C152.664 42.7071 152.733 42.7382 152.778 42.7598C152.826 42.7838 152.848 42.7958 152.847 42.799Z" fill="#545418"/>
<path d="M148.718 39.2079C148.718 39.2143 148.624 39.2183 148.445 39.2191C148.266 39.2247 148.003 39.2087 147.665 39.2254C146.988 39.2366 146.007 39.3046 144.813 39.5108C142.428 39.9049 139.178 41.0263 136.079 43.2141C132.978 45.4002 130.676 48.0996 129.198 50.1642C128.456 51.1993 127.899 52.0738 127.527 52.6869C127.336 52.9898 127.2 53.2344 127.1 53.3943C127.002 53.5558 126.948 53.6389 126.943 53.6357C126.938 53.6325 126.982 53.543 127.071 53.3751C127.162 53.2088 127.289 52.9579 127.471 52.6477C127.826 52.0211 128.369 51.133 129.103 50.0835C130.561 47.9909 132.862 45.2588 135.985 43.0566C139.107 40.8529 142.391 39.7418 144.795 39.3789C145.999 39.1887 146.986 39.1407 147.665 39.1519C148.005 39.1463 148.269 39.1743 148.447 39.1807C148.625 39.1927 148.719 39.2015 148.718 39.2079Z" fill="#545418"/>
<path d="M142.307 51.0627C142.305 51.0771 142.087 51.0563 141.695 51.0219C141.302 50.9875 140.733 50.9412 140.03 50.9188C139.327 50.8964 138.488 50.9052 137.558 50.9572C137.326 50.9708 137.088 50.9851 136.844 50.9995C136.596 51.0139 136.36 51.0291 136.113 51.0803C135.617 51.1722 135.109 51.2993 134.579 51.4136C134.05 51.5087 133.558 51.6654 133.079 51.834C132.601 52.0027 132.142 52.1714 131.707 52.3384C130.837 52.6709 130.062 52.9947 129.416 53.2752C128.794 53.5534 128.281 53.7844 127.891 53.9578C127.533 54.1217 127.333 54.2104 127.326 54.1984C127.323 54.1928 127.369 54.1625 127.46 54.1105C127.55 54.0586 127.684 53.9842 127.859 53.8923C128.209 53.7085 128.72 53.4511 129.361 53.1537C130.002 52.8572 130.775 52.5199 131.644 52.1769C132.079 52.0051 132.539 51.8324 133.018 51.6606C133.495 51.4895 134.008 51.3257 134.54 51.2298C135.064 51.117 135.575 50.99 136.08 50.8988C136.331 50.8485 136.593 50.8317 136.833 50.8205C137.077 50.8077 137.316 50.7957 137.55 50.7837C138.485 50.7414 139.329 50.7462 140.036 50.7853C140.743 50.8253 141.311 50.8916 141.703 50.9484C141.899 50.9756 142.05 51.0027 142.152 51.0219C142.255 51.0427 142.308 51.0563 142.307 51.0627Z" fill="#545418"/>
<path d="M127.721 51.54C127.715 51.5416 127.682 51.4633 127.625 51.3106C127.564 51.1388 127.486 50.9173 127.387 50.6432C127.336 50.4961 127.281 50.3346 127.22 50.1596C127.155 49.9845 127.074 49.7983 126.992 49.5953C126.824 49.1924 126.654 48.7248 126.407 48.2332C126.29 47.9846 126.167 47.724 126.04 47.4539C125.91 47.1837 125.752 46.9143 125.602 46.629C125.309 46.0526 124.936 45.4723 124.558 44.8529C123.763 43.6387 122.808 42.3566 121.685 41.1128C120.548 39.8803 119.358 38.8123 118.221 37.9107C117.638 37.4775 117.094 37.053 116.547 36.7093C116.276 36.5335 116.022 36.3512 115.765 36.1978C115.507 36.0459 115.259 35.9004 115.022 35.7605C114.555 35.4704 114.104 35.2593 113.718 35.0547C113.524 34.9556 113.345 34.8573 113.177 34.7766C113.008 34.7006 112.852 34.6303 112.71 34.5663C112.446 34.444 112.233 34.3457 112.067 34.269C111.92 34.1986 111.844 34.1587 111.847 34.1523C111.849 34.1459 111.93 34.1731 112.082 34.2314C112.252 34.2994 112.47 34.3873 112.741 34.4952C112.886 34.5551 113.045 34.6199 113.216 34.6902C113.388 34.7662 113.569 34.8597 113.767 34.9548C114.159 35.1506 114.616 35.3545 115.09 35.6382C115.331 35.7749 115.583 35.918 115.844 36.0667C116.106 36.2177 116.363 36.3976 116.637 36.571C117.191 36.9116 117.743 37.3328 118.332 37.7652C119.484 38.6653 120.686 39.7372 121.831 40.9777C122.963 42.2295 123.921 43.5252 124.712 44.7529C125.088 45.3788 125.458 45.9671 125.747 46.5498C125.895 46.8384 126.051 47.111 126.178 47.3851C126.303 47.6593 126.422 47.9223 126.536 48.1749C126.776 48.6728 126.936 49.1468 127.096 49.5553C127.173 49.7607 127.249 49.9502 127.31 50.1276C127.364 50.3051 127.415 50.4689 127.461 50.6184C127.544 50.8982 127.611 51.1236 127.664 51.2994C127.708 51.4553 127.728 51.5384 127.721 51.54Z" fill="#545418"/>
<path d="M120.799 36.4575C120.809 36.4479 120.982 36.6029 121.288 36.8923C121.442 37.0354 121.627 37.2152 121.828 37.4366C122.031 37.6564 122.272 37.8986 122.508 38.192C123.003 38.7603 123.546 39.4773 124.099 40.307C124.642 41.1431 125.188 42.0967 125.676 43.139C126.156 44.1861 126.529 45.2197 126.816 46.1749C127.09 47.1333 127.287 48.0109 127.4 48.7559C127.47 49.126 127.499 49.4665 127.536 49.763C127.574 50.0596 127.592 50.317 127.602 50.5272C127.625 50.9476 127.631 51.1802 127.618 51.181C127.604 51.1818 127.571 50.9516 127.525 50.5344C127.504 50.3258 127.475 50.0708 127.426 49.7774C127.379 49.4833 127.34 49.1467 127.262 48.7807C127.132 48.0437 126.923 47.1756 126.641 46.2276C126.347 45.2836 125.971 44.2613 125.496 43.2229C125.012 42.1894 124.475 41.2422 123.945 40.4069C123.405 39.5788 122.878 38.8586 122.4 38.2823C122.172 37.985 121.94 37.738 121.746 37.5118C121.553 37.284 121.377 37.0977 121.232 36.9466C120.945 36.6413 120.79 36.4678 120.799 36.4575Z" fill="#545418"/>
<path d="M102.952 55.7921C102.946 55.7873 103.002 55.7169 103.113 55.5851C103.227 55.4572 103.383 55.2549 103.613 55.0231C104.059 54.5443 104.748 53.8905 105.684 53.1863C106.618 52.4805 107.817 51.7483 109.243 51.1376C110.667 50.5253 112.324 50.0569 114.105 49.8579C115.887 49.6748 117.607 49.7811 119.128 50.0769C120.652 50.371 121.979 50.8323 123.041 51.3238C124.105 51.8138 124.919 52.3054 125.455 52.6787C125.729 52.8562 125.924 53.0208 126.063 53.1215C126.2 53.2262 126.269 53.2838 126.265 53.2894C126.261 53.295 126.183 53.2478 126.039 53.1543C125.893 53.064 125.692 52.9105 125.412 52.7434C124.865 52.3917 124.046 51.9217 122.983 51.4517C121.922 50.9809 120.603 50.5381 119.094 50.2567C117.586 49.9738 115.887 49.8747 114.125 50.0553C112.366 50.252 110.727 50.71 109.314 51.3063C107.899 51.901 106.704 52.614 105.767 53.299C104.828 53.9832 104.127 54.6163 103.668 55.0767C103.43 55.2997 103.266 55.4923 103.142 55.6114C103.023 55.7345 102.956 55.7969 102.952 55.7921Z" fill="#545418"/>
<path d="M194.215 81.2334C194.215 81.2334 188.801 105.399 190.66 145H196.037C196.037 145 192.19 100.431 195.779 81.4154L194.215 81.2334Z" fill="#545418"/>
<path d="M194.027 120.721C194.034 120.75 193.465 120.894 192.747 120.855C192.03 120.82 191.478 120.621 191.488 120.593C191.498 120.557 192.053 120.7 192.754 120.734C193.454 120.772 194.021 120.685 194.027 120.721Z" fill="#545418"/>
<path d="M193.5 115.764C193.505 115.796 193.025 115.891 192.424 115.889C191.823 115.89 191.343 115.795 191.348 115.763C191.352 115.728 191.832 115.769 192.424 115.768C193.016 115.769 193.496 115.729 193.5 115.764Z" fill="#545418"/>
<path d="M193.904 109.914C193.913 109.944 193.478 110.073 192.924 110.084C192.369 110.097 191.93 109.988 191.937 109.958C191.942 109.923 192.381 109.976 192.921 109.963C193.462 109.952 193.897 109.879 193.904 109.914Z" fill="#545418"/>
<path d="M193.418 104.582C193.422 104.614 193.008 104.685 192.494 104.643C191.98 104.603 191.582 104.467 191.591 104.437C191.6 104.403 192.002 104.483 192.503 104.522C193.005 104.563 193.415 104.547 193.418 104.582Z" fill="#545418"/>
<path d="M193.702 98.9584C193.705 98.9906 193.422 99.0345 193.076 98.9819C192.731 98.9306 192.473 98.8057 192.485 98.776C192.496 98.7433 192.762 98.8131 193.095 98.8618C193.426 98.9126 193.701 98.9238 193.702 98.9584Z" fill="#545418"/>
<path d="M193.965 92.7072C193.968 92.7399 193.696 92.7838 193.36 92.7633C193.024 92.7438 192.76 92.6682 192.767 92.636C192.773 92.6023 193.04 92.6233 193.368 92.6423C193.696 92.6623 193.963 92.673 193.965 92.7072Z" fill="#545418"/>
<path d="M194.986 86.4701C194.982 86.5013 194.726 86.4984 194.416 86.4291C194.106 86.3554 193.876 86.2457 193.885 86.2159C193.895 86.1823 194.144 86.2398 194.443 86.311C194.743 86.3784 194.991 86.435 194.986 86.4701Z" fill="#545418"/>
<path d="M193.453 126.213C193.453 126.246 193.032 126.273 192.513 126.273C191.993 126.273 191.572 126.246 191.572 126.213C191.572 126.179 191.993 126.152 192.513 126.152C193.032 126.152 193.453 126.18 193.453 126.213Z" fill="#545418"/>
<path d="M194.807 130.763C194.807 130.796 194.386 130.823 193.867 130.823C193.348 130.823 192.927 130.796 192.927 130.763C192.927 130.729 193.348 130.702 193.867 130.702C194.386 130.702 194.807 130.729 194.807 130.763Z" fill="#545418"/>
<path d="M209.066 62.008C209.003 62.0261 208.931 62.0505 208.852 62.0807C207.276 62.6788 202.684 65.5252 202.684 65.5252L202.105 64.8559L201.981 67.0829L199.482 70.5108L198.638 67.9044C198.281 68.3834 198.416 72.205 198.416 72.205L197.545 75.4349L196.054 72.005C195.315 73.9661 196.773 77.8935 196.773 77.8935L195.233 81.6298C194.11 79.6004 192.739 73.0568 196.565 67.3097C200.391 61.5626 209.066 62.008 209.066 62.008Z" fill="#545418"/>
<path d="M208.72 62.1704C208.72 62.1724 208.696 62.1758 208.649 62.1797C208.595 62.1836 208.527 62.1885 208.441 62.1948C208.259 62.2114 207.989 62.2128 207.643 62.2519C206.954 62.3207 205.956 62.466 204.766 62.8153C203.58 63.1685 202.199 63.7319 200.828 64.63C200.147 65.0827 199.47 65.6159 198.826 66.2311C198.196 66.8589 197.599 67.5653 197.079 68.3536C196.071 69.9512 195.458 71.6786 195.171 73.2889C195.018 74.0933 194.933 74.8694 194.897 75.5973C194.851 76.3251 194.861 77.0051 194.875 77.6257C194.919 78.8662 195.024 79.8667 195.107 80.5565C195.144 80.9019 195.184 81.1687 195.204 81.3507C195.214 81.436 195.222 81.5043 195.228 81.5575C195.232 81.6043 195.234 81.6282 195.232 81.6287C195.23 81.6292 195.224 81.6058 195.216 81.5595C195.206 81.5068 195.195 81.439 195.18 81.3541C195.153 81.1731 195.105 80.9072 195.061 80.5624C194.963 79.874 194.845 78.873 194.79 77.6291C194.77 77.0071 194.756 76.3241 194.798 75.5924C194.829 74.8607 194.911 74.0797 195.061 73.2689C195.345 71.6459 195.959 69.9024 196.978 68.2877C197.503 67.4911 198.107 66.7784 198.745 66.1462C199.395 65.5266 200.079 64.9905 200.768 64.5368C202.153 63.6368 203.547 63.0778 204.742 62.7334C205.942 62.3924 206.947 62.2597 207.64 62.205C207.986 62.1728 208.258 62.1792 208.44 62.1704C208.526 62.1689 208.595 62.168 208.649 62.167C208.696 62.1675 208.72 62.1685 208.72 62.1704Z" fill="#545418"/>
<path d="M194.264 81.6703L194.109 81.4494C194.109 81.4494 198.056 73.3344 205.35 72.6832C212.644 72.0319 216.634 76.1896 217.535 77.0414C218.436 77.8931 220.796 80.9986 220.796 80.9986L215.948 79.6459C215.948 79.6459 212.687 75.5882 210.928 75.3379C210.928 75.3379 215.39 79.9464 216.077 83.1524C216.077 83.1524 212.773 81.6996 212.13 81.6996C212.13 81.6996 210.456 78.6751 208.354 77.8834L210.242 80.9484L205.865 79.6459L204.317 78.0639L204.064 79.3454C204.063 79.3454 200.142 78.3141 194.264 81.6703Z" fill="#545418"/>
<path d="M194.265 81.6406C194.317 81.6289 194.378 81.6191 194.446 81.6103C195.802 81.4425 200.159 81.8835 200.159 81.8835L200.332 81.0727L201.235 82.8972L204.291 84.7217L203.949 82.1635C204.382 82.4157 205.68 85.6949 205.68 85.6949L207.489 88.0467L207.312 84.5192C208.563 85.8573 208.945 89.7901 208.945 89.7901L211.48 92.7093C211.549 90.5199 210.091 83.9919 205.229 80.7781C200.367 77.5653 194.265 81.6406 194.265 81.6406Z" fill="#545418"/>
<path d="M194.288 81.617C193.525 80.1145 190.445 77.0032 190.445 77.0032L191.327 76.2354L189.331 76.3505L185.722 74.2002L187.368 73.0006C186.854 72.6977 183.802 73.3938 183.802 73.3938L180.824 72.5991L182.999 71.3635C180.97 70.8371 178.297 72.0932 178.297 72.0932L174 71.1444C175.898 69.8122 182.657 66.4847 188.779 69.6771C194.9 72.8694 195.03 81.5195 195.03 81.5195" fill="#545418"/>
<path d="M194.685 81.451C194.631 81.4262 194.36 81.6423 194.287 81.6169C192.86 81.1052 189.132 81.8189 189.132 81.8189L189.137 80.9393L187.725 82.5955L183.982 83.7136L184.961 81.1608C184.433 81.313 182.247 84.3702 182.247 84.3702L179.459 86.9527L180.489 83.3589C179.791 84.2214 177.737 87.7781 177.737 87.7781L174.298 90.1553C174.744 87.8801 177.335 80.1451 183.364 78.046C189.393 75.9459 194.685 81.451 194.685 81.451Z" fill="#545418"/>
<path d="M209.914 74.6939C209.912 74.6988 209.854 74.6754 209.741 74.6393C209.627 74.6037 209.459 74.5554 209.239 74.5188C209.018 74.4812 208.745 74.4563 208.427 74.4495C208.109 74.4388 207.746 74.4646 207.346 74.4739C205.749 74.5437 203.535 74.9529 201.281 75.9827C200.152 76.4915 199.136 77.1174 198.256 77.7535C198.146 77.8326 198.037 77.9106 197.929 77.9877C197.823 78.0672 197.723 78.1526 197.622 78.2326C197.422 78.3965 197.223 78.5487 197.04 78.7082C196.681 79.038 196.334 79.3297 196.049 79.6351C195.902 79.7829 195.763 79.9239 195.631 80.0575C195.506 80.198 195.389 80.3307 195.278 80.4551C195.057 80.7029 194.867 80.9171 194.725 81.1054C194.583 81.2829 194.47 81.4239 194.387 81.5278C194.308 81.6239 194.266 81.6727 194.263 81.6703C194.26 81.6678 194.297 81.6137 194.37 81.5132C194.45 81.4054 194.558 81.2595 194.693 81.0761C194.83 80.8824 195.016 80.6634 195.234 80.4107C195.343 80.2844 195.457 80.1463 195.583 80.0053C195.714 79.8692 195.852 79.7258 195.997 79.5756C196.28 79.2653 196.626 78.9682 196.984 78.6336C197.167 78.4721 197.366 78.3175 197.566 78.1511C197.667 78.0696 197.767 77.9833 197.873 77.9028C197.981 77.8248 198.09 77.7452 198.201 77.6652C199.082 77.0208 200.103 76.3881 201.238 75.8764C203.507 74.8403 205.737 74.4412 207.342 74.3919C207.744 74.388 208.108 74.3676 208.427 74.3846C208.747 74.3973 209.022 74.429 209.244 74.4739C209.466 74.5178 209.634 74.5734 209.746 74.6163C209.802 74.6378 209.844 74.6568 209.871 74.67C209.901 74.6846 209.914 74.692 209.914 74.6939Z" fill="#545418"/>
<path d="M207.394 72.5019C207.394 72.5058 207.336 72.5082 207.228 72.5087C207.118 72.5121 206.958 72.5024 206.752 72.5126C206.338 72.5194 205.74 72.5609 205.011 72.6868C203.555 72.9273 201.572 73.6117 199.681 74.9468C197.788 76.281 196.383 77.9284 195.481 79.1885C195.028 79.8202 194.688 80.3539 194.461 80.7281C194.345 80.9129 194.262 81.0622 194.201 81.1598C194.141 81.2583 194.108 81.309 194.105 81.3071C194.102 81.3051 194.129 81.2505 194.183 81.1481C194.238 81.0466 194.316 80.8934 194.427 80.7042C194.644 80.3217 194.975 79.7797 195.423 79.1392C196.313 77.8621 197.717 76.1947 199.623 74.8507C201.528 73.5058 203.533 72.8277 205 72.6063C205.735 72.4902 206.337 72.4609 206.752 72.4677C206.959 72.4643 207.12 72.4814 207.229 72.4853C207.337 72.4926 207.395 72.498 207.394 72.5019Z" fill="#545418"/>
<path d="M203.482 79.7373C203.48 79.7461 203.348 79.7334 203.108 79.7124C202.869 79.6914 202.521 79.6631 202.092 79.6495C201.663 79.6358 201.151 79.6412 200.584 79.6729C200.442 79.6812 200.296 79.69 200.147 79.6987C199.996 79.7075 199.852 79.7168 199.701 79.748C199.399 79.8041 199.088 79.8817 198.765 79.9514C198.443 80.0095 198.142 80.1051 197.85 80.208C197.558 80.311 197.278 80.4139 197.013 80.5158C196.481 80.7188 196.009 80.9163 195.614 81.0876C195.235 81.2573 194.921 81.3983 194.684 81.5042C194.465 81.6042 194.343 81.6583 194.339 81.651C194.337 81.6476 194.365 81.6291 194.42 81.5974C194.476 81.5656 194.558 81.5203 194.664 81.4642C194.878 81.352 195.19 81.1949 195.581 81.0134C195.972 80.8324 196.443 80.6266 196.974 80.4173C197.24 80.3124 197.52 80.2071 197.812 80.1022C198.103 79.9978 198.417 79.8978 198.742 79.8392C199.061 79.7705 199.373 79.6929 199.681 79.6373C199.834 79.6065 199.994 79.5963 200.141 79.5895C200.29 79.5817 200.436 79.5743 200.579 79.567C201.149 79.5412 201.664 79.5441 202.095 79.568C202.527 79.5924 202.874 79.6329 203.113 79.6675C203.232 79.6841 203.325 79.7007 203.387 79.7124C203.45 79.7251 203.482 79.7334 203.482 79.7373Z" fill="#545418"/>
<path d="M194.58 80.0282C194.576 80.0292 194.556 79.9814 194.521 79.8882C194.484 79.7833 194.436 79.6482 194.376 79.4809C194.345 79.3911 194.311 79.2926 194.274 79.1857C194.234 79.0789 194.185 78.9652 194.135 78.8413C194.032 78.5955 193.929 78.3101 193.778 78.0101C193.706 77.8584 193.631 77.6993 193.553 77.5345C193.474 77.3696 193.378 77.2052 193.286 77.031C193.108 76.6793 192.88 76.3251 192.649 75.9471C192.164 75.2061 191.581 74.4236 190.896 73.6646C190.202 72.9123 189.476 72.2606 188.782 71.7103C188.426 71.4459 188.094 71.1869 187.76 70.9771C187.595 70.8698 187.44 70.7586 187.283 70.6649C187.125 70.5722 186.974 70.4835 186.829 70.3981C186.544 70.221 186.269 70.0922 186.034 69.9673C185.915 69.9068 185.806 69.8468 185.703 69.7976C185.6 69.7512 185.505 69.7083 185.418 69.6693C185.258 69.5946 185.127 69.5346 185.026 69.4878C184.937 69.4449 184.89 69.4205 184.892 69.4166C184.893 69.4127 184.942 69.4293 185.035 69.4649C185.139 69.5063 185.272 69.56 185.438 69.6259C185.526 69.6624 185.623 69.702 185.727 69.7449C185.832 69.7912 185.943 69.8483 186.063 69.9063C186.303 70.0259 186.582 70.1503 186.871 70.3234C187.018 70.4069 187.172 70.4942 187.331 70.5849C187.491 70.6771 187.648 70.7869 187.815 70.8927C188.153 71.1005 188.49 71.3576 188.85 71.6215C189.552 72.1708 190.286 72.825 190.985 73.5821C191.676 74.346 192.26 75.1368 192.743 75.8861C192.973 76.2681 193.199 76.6271 193.375 76.9827C193.465 77.1588 193.56 77.3252 193.638 77.4925C193.714 77.6598 193.787 77.8203 193.856 77.9745C194.003 78.2784 194.101 78.5677 194.198 78.8169C194.245 78.9423 194.292 79.0579 194.329 79.1662C194.362 79.2745 194.393 79.3745 194.421 79.4658C194.472 79.6365 194.513 79.7741 194.545 79.8814C194.572 79.9765 194.584 80.0272 194.58 80.0282Z" fill="#545418"/>
<path d="M190.356 70.8225C190.362 70.8167 190.467 70.9113 190.654 71.0879C190.748 71.1752 190.861 71.285 190.984 71.4201C191.107 71.5543 191.254 71.7021 191.399 71.8811C191.701 72.228 192.032 72.6655 192.369 73.1719C192.701 73.6822 193.034 74.2641 193.332 74.9002C193.625 75.5393 193.852 76.1701 194.028 76.753C194.195 77.3379 194.315 77.8735 194.384 78.3282C194.427 78.554 194.445 78.7619 194.467 78.9428C194.491 79.1238 194.501 79.2809 194.507 79.4092C194.521 79.6658 194.525 79.8078 194.517 79.8083C194.509 79.8087 194.489 79.6682 194.46 79.4136C194.448 79.2863 194.43 79.1307 194.4 78.9516C194.372 78.7721 194.348 78.5667 194.3 78.3433C194.22 77.8935 194.093 77.3638 193.921 76.7852C193.741 76.2091 193.512 75.5852 193.222 74.9515C192.927 74.3207 192.599 73.7426 192.276 73.2329C191.946 72.7275 191.625 72.2879 191.333 71.9362C191.193 71.7548 191.052 71.604 190.933 71.466C190.816 71.3269 190.708 71.2133 190.62 71.1211C190.445 70.9347 190.35 70.8289 190.356 70.8225Z" fill="#545418"/>
<path d="M179.463 82.623C179.46 82.6201 179.494 82.5772 179.562 82.4967C179.631 82.4186 179.727 82.2952 179.867 82.1537C180.139 81.8615 180.56 81.4625 181.131 81.0327C181.701 80.6019 182.432 80.1551 183.303 79.7824C184.172 79.4087 185.183 79.1229 186.27 79.0014C187.358 78.8897 188.407 78.9546 189.336 79.1351C190.265 79.3146 191.075 79.5961 191.724 79.8961C192.373 80.1951 192.87 80.4951 193.197 80.7229C193.364 80.8312 193.483 80.9317 193.568 80.9932C193.651 81.0571 193.693 81.0922 193.691 81.0956C193.689 81.099 193.641 81.0703 193.553 81.0132C193.464 80.9581 193.341 80.8644 193.17 80.7624C192.837 80.5478 192.337 80.261 191.688 79.9741C191.041 79.6868 190.236 79.4165 189.315 79.2448C188.395 79.0721 187.358 79.0116 186.282 79.1219C185.209 79.2419 184.208 79.5214 183.346 79.8853C182.483 80.2483 181.753 80.6834 181.181 81.1015C180.608 81.5191 180.181 81.9054 179.9 82.1864C179.755 82.3225 179.655 82.4401 179.579 82.5128C179.507 82.5879 179.466 82.6259 179.463 82.623Z" fill="#545418"/>
</svg>
